<?xml version="1.0" encoding="utf-8"?>
<!-- Generator: Adobe Illustrator 22.0.0, SVG Export Plug-In . SVG Version: 6.00 Build 0)  -->
<svg version="1.1" id="Layer_1" xmlns="http://www.w3.org/2000/svg" xmlns:xlink="http://www.w3.org/1999/xlink" x="0px" y="0px"
	 viewBox="0 0 1383.9 7111.5" style="enable-background:new 0 0 1383.9 7111.5;" xml:space="preserve">
<style type="text/css">
	.st0{fill:none;}
</style>
<path class="st0" d="M23.8,7096.3c305.7-156,515.9-198.5,654.1-207c22-1.4,68.8-3.5,129-21c148.7-43.2,324.6-164,351-324
	c11.8-71.1,1.8-482.9,2.1-606.1c1.9-750.9,33.4-892.2-26.1-1014.1c-34.6-71-133.4-191.9-276-252c-74.6-31.5-118.5-19-429-33
	c-200.7-9-207.9-8.3-237-48c-46.4-63.3-79.3-156.9-51-279c38.5-166,11.5-192.5,0-525.1c-13.7-396.4-0.3-442.2-24-780.1
	c-8.1-115.5-22.4-238.2,9-405c13.2-69.9,26.3-139.7,75-195c187.3-212.5,654.6,68.4,813.1-126c47.1-57.7,57.4-166.5,78-384
	c7.9-83.6,8.6-145.9,9-180c0,0,2.1-174.7,15-657.1c13.7-513.2,56.6-555.9-3-687.1c-75.7-166.6-220.2-263.7-324-318"/>
</svg>
