<?xml version="1.0" encoding="utf-8"?>
<!-- Generator: Adobe Illustrator 22.0.0, SVG Export Plug-In . SVG Version: 6.00 Build 0)  -->
<svg version="1.1" id="Layer_1" xmlns="http://www.w3.org/2000/svg" xmlns:xlink="http://www.w3.org/1999/xlink" x="0px" y="0px"
	 viewBox="0 0 779.3 8192" style="enable-background:new 0 0 779.3 8192;" xml:space="preserve">
<style type="text/css">
	.st0{fill:none;}
</style>
<path class="st0" d="M109.3,7852.1c13.9,39,39.1,96,85.2,154.3c25.2,31.7,78.4,97.7,167.6,139.5c85.3,40,250.4,79.9,335.1-2.9
	c13.4-13.1,39.1-43.2,55.9-184c17.6-147.9,5.9-253.5,0-347.3c-9-144,5.6-103.8,2.9-374c-3.3-335.7-25.4-341.8-8.8-498.8
	c18.2-172.8,47.2-187.5,52.9-344.3c4.8-133.9-14.4-174-32.3-344.3c-14.5-137.6-7.3-162.3-8.8-635.2c-0.5-146.7-1.6-251.7-2.9-388.9
	c-5.1-507.2-12.2-565.8,0-712.5c26.5-319.6,86.7-286.2,88.2-501.7C846.4,3498,728,3444.1,709,3126.3
	c-11.3-187.4,28.8-186.1,91.1-611.5c56.5-386.2,67.6-687.7,70.6-798.5c11.3-418.2-52.8-445.7-29.4-813.4
	c8.8-139.2,2.8-279.1,5.9-418.6c4-185.8,7.4-257.9-38.2-329.5C734.3,37.5,583.7,8.9,509.1,0.5"/>
</svg>
