<?xml version="1.0" encoding="utf-8"?>
<!-- Generator: Adobe Illustrator 22.0.0, SVG Export Plug-In . SVG Version: 6.00 Build 0)  -->
<svg version="1.1" id="Layer_1" xmlns="http://www.w3.org/2000/svg" xmlns:xlink="http://www.w3.org/1999/xlink" x="0px" y="0px"
	 viewBox="0 0 1363.1 10423.4" style="enable-background:new 0 0 1363.1 10423.4;" xml:space="preserve">
<style type="text/css">
	.st0{fill:none;}
</style>
<path class="st0" d="M469.7,9931.1c4.4,205.2,113.7,377.1,264.2,427.1c91.6,30.4,215.2,21.1,299.2-61.8c74.9-74,92-180.6,97.1-480.6
	c5.5-322.2-8.8-515.2-16-763.8c-7.9-273,3-256.8-2.2-640.6c-3.9-283-12.3-390.8-22.6-726.3c-14.9-484.8-14.9-975.3-15-1460.6
	c0-221.4,12.4-425.4,49.3-641.6c37.1-217.6,63.5-417.3,16.8-636.5c-40.7-191.1-109-372.4-104.8-574.9
	c5-245.9,75.5-496.7,104.3-740.2c13.6-114.5,14.6-116.3,39.8-1175.5c7.4-309-28.6-622.7,19.1-927c37.1-237.1,93.3-424.1,1-601.9
	c-18.8-36.2-98.8-186-262.7-259.3C773.5,594.5,539.2,556.7,526.3,461c-1.7-12.6,1.3-125.8,0-161.3"/>
</svg>
