<?xml version="1.0" encoding="utf-8"?>
<!-- Generator: Adobe Illustrator 22.0.0, SVG Export Plug-In . SVG Version: 6.00 Build 0)  -->
<svg version="1.1" id="Layer_1" xmlns="http://www.w3.org/2000/svg" xmlns:xlink="http://www.w3.org/1999/xlink" x="0px" y="0px"
	 viewBox="0 0 779.3 8192" style="enable-background:new 0 0 779.3 8192;" xml:space="preserve">
<style type="text/css">
	.st0{fill:none;}
</style>
<path class="st0" d="M112.3,7879.8c69,177.7,425.7,466.3,596.4,244.9c75.5-97.9,56.7-265.1,52.1-378.9c-8.1-199.4,0.6-398.5-6.4-598
	c-6-169.4,15.4-330.4,33.1-498.5c20.2-192.3-15.1-376.7-22.6-568.5c-14.9-379.5-14.9-763.4-15-1143.3c0-173.3,12.4-333,49.3-502.2
	c37.1-170.3,63.5-326.6,16.8-498.2c-40.7-149.6-108.9-291.5-104.7-450c5-192.5,75.4-388.8,104.2-579.4
	c45.9-303.1,78.1-615.2,39.8-920.1c-30.2-240.3,12.3-482.9,37.2-721.7c20.5-195.8,107.6-582.9-39.4-739.4
	c-87.5-93.1-205.3-202.7-336-214.1C340,297,275,319,281.5,153.3"/>
</svg>
