<?xml version="1.0" encoding="utf-8"?>
<!-- Generator: Adobe Illustrator 22.0.0, SVG Export Plug-In . SVG Version: 6.00 Build 0)  -->
<svg version="1.1" id="Layer_1" xmlns="http://www.w3.org/2000/svg" xmlns:xlink="http://www.w3.org/1999/xlink" x="0px" y="0px"
	 viewBox="0 0 1383.9 7987.6" style="enable-background:new 0 0 1383.9 7987.6;" xml:space="preserve">
<style type="text/css">
	.st0{fill:none;}
</style>
<image style="display:none;overflow:visible;" width="1545" height="9547" xlink:href="../../Downloads/screencapture-localhost-8080-temp-html-2019-10-13-22_40_35.jpg"  transform="matrix(1 0 0 1 -77.9961 2.9794)">
</image>
<path class="st0" d="M409.8,8048.9c14.2,39.8,39.9,98,87,157.5c25.7,32.4,80,99.7,171,142.4c87.1,40.8,255.5,81.5,342-3
	c13.7-13.4,39.9-44.1,57-187.8c18-150.9,6-258.7,0-354.4c-9.2-147,5.7-105.9,3-381.7c-3.4-342.6-25.9-348.8-9-509
	c18.6-176.4,48.2-191.4,54-351.4c4.9-136.6-14.7-177.6-33-351.4c-14.8-140.4-7.4-165.6-9-648.3c-0.5-149.7-1.6-256.9-3-396.9
	c-5.2-517.6-12.4-577.4,0-727.1c27-326.2,88.5-292.1,90-512c2.2-320.4-118.6-375.4-138-699.8c-11.5-191.2,29.4-189.9,93-624.1
	c57.7-394.1,69-701.8,72-814.9c11.5-426.8-53.9-454.9-30-830.1c9-142.1,2.9-284.8,6-427.2c4.1-189.6,7.6-263.2-39-336.3
	C1047.6,73.8,893.9,44.6,817.8,36"/>
</svg>
