<?xml version="1.0" encoding="utf-8"?>
<!-- Generator: Adobe Illustrator 22.0.0, SVG Export Plug-In . SVG Version: 6.00 Build 0)  -->
<svg version="1.1" id="Layer_1" xmlns="http://www.w3.org/2000/svg" xmlns:xlink="http://www.w3.org/1999/xlink" x="0px" y="0px"
	 viewBox="0 0 1360.5 7041.7" style="enable-background:new 0 0 1360.5 7041.7;" xml:space="preserve">
<style type="text/css">
	.st0{fill:#FFFFFF;stroke:#000000;stroke-miterlimit:10;}
</style>
<image style="overflow:visible;" width="1366" height="7037" xlink:href="../../Downloads/screencapture-localhost-8080-dist-html-2019-09-23-19_57_44.jpg"  transform="matrix(1 0 0 1 3.4734 4)">
</image>
<path class="st0" d="M157.8,5975.2c64.2-39.4,165-92.5,297-126c78.6-19.9,124.7-21.8,189-30c235.1-29.8,436.9-55.4,558.1-192
	c115.9-130.7,119.1-319.2,120-372c1.2-71.1-10.8-93-24-264c-3.2-41.1-8.4-116.9-12-255c-8.5-327.5-3-768.1-3-768.1
	c4-316.9-4.3-202.1-6-927.1c-0.9-371.8,0.9-419.5,0-789.1c-0.8-315.7-1.9-275.8-3-633.1c-1.6-544.8,1.1-737.5-3-1209.1
	c-1.1-120.7-2.2-219.3-3-282"/>
</svg>
