<?xml version="1.0" encoding="utf-8"?>
<!-- Generator: Adobe Illustrator 22.0.0, SVG Export Plug-In . SVG Version: 6.00 Build 0)  -->
<svg version="1.1" id="Layer_1" xmlns="http://www.w3.org/2000/svg" xmlns:xlink="http://www.w3.org/1999/xlink" x="0px" y="0px"
	 viewBox="0 0 1363.1 8192" style="enable-background:new 0 0 1363.1 8192;" xml:space="preserve">
<style type="text/css">
	.st0{fill:none;}
</style>
<path class="st0" d="M515.1,7805.1c0.4,20.5,2.2,40.9,5.4,61.1c3,19.5,7.4,38.7,13,57.6c5.4,18.1,12.1,35.9,20,53.1
	c7.6,16.5,16.4,32.6,26.3,47.8c9.6,14.7,20.2,28.6,32,41.6c11.3,12.5,23.7,24.1,37,34.4c12.9,10.1,26.8,18.9,41.4,26.4
	c14.6,7.4,29.9,13.3,45.7,17.6c16.9,4.6,34.4,7.3,51.9,8.2c18.3,1,36.8,0,54.9-3c18.6-3.1,36.8-8.4,54-16.1
	c17.8-7.9,34.6-18.3,49.5-30.8c9-7.6,17.4-15.9,24.8-25c5.6-6.8,10.7-13.9,15.2-21.5c4.8-7.9,8.9-16.3,12.6-24.8
	c4-9.4,7.3-19.2,10.2-29c3.2-11.2,5.8-22.6,8-34.1c2.5-13.3,4.5-26.7,6.2-40.1c1.9-15.7,3.4-31.4,4.6-47.2
	c1.4-18.3,2.4-36.7,3.3-55.1c1-21.3,1.7-42.6,2.2-63.9c0.6-24.5,1.1-48.9,1.4-73.4c0.3-24.2,0.5-48.4,0.6-72.6c0-22.5,0-45-0.2-67.4
	c-0.2-21.1-0.5-42.2-0.9-63.3c-0.4-19.9-0.8-39.8-1.4-59.7c-0.5-19.2-1.1-38.5-1.8-57.7c-0.6-18.8-1.3-37.5-2-56.3
	c-0.7-18.6-1.4-37.2-2.2-55.8c-0.7-18.7-1.5-37.5-2.2-56.2c-0.7-19.2-1.4-38.4-2-57.6c-0.6-18.6-1.1-37.1-1.6-55.7
	c-0.4-15.3-0.7-30.7-1-46c-0.2-13-0.4-26.1-0.5-39.2c-0.1-11.4-0.1-22.8-0.1-34.1c0-10.5,0.1-21,0.2-31.5
	c0.1-10.2,0.2-20.5,0.4-30.7c0.1-10.7,0.3-21.3,0.4-32c0.2-11.8,0.3-23.6,0.4-35.3c0.1-13.6,0.2-27.1,0.3-40.7
	c0.1-16,0.1-32.1,0.1-48.1c0-19.2-0.1-38.4-0.3-57.6c-0.2-23-0.4-45.9-0.7-68.9c-0.3-21.4-0.6-42.8-1-64.3
	c-0.3-18.8-0.7-37.6-1.2-56.4c-0.4-17.3-0.9-34.5-1.3-51.8c-0.5-16.3-1-32.6-1.5-48.9c-0.5-16-1.1-31.9-1.7-47.9
	c-0.6-16.2-1.2-32.4-1.8-48.6c-0.7-17-1.3-34.1-2-51.1c-0.7-18.5-1.4-37-2.1-55.5c-0.8-20.4-1.5-40.8-2.2-61.2
	c-0.8-23.1-1.6-46.3-2.3-69.4c-0.8-25.4-1.6-50.9-2.3-76.3c-0.7-25.6-1.4-51.2-2-76.8c-0.6-25.6-1.2-51.2-1.7-76.9
	c-0.5-25.7-1-51.3-1.5-77c-0.4-25.7-0.9-51.3-1.2-77c-0.4-25.7-0.7-51.4-1-77.1c-0.3-25.7-0.6-51.4-0.8-77.1
	c-0.2-25.6-0.5-51.1-0.6-76.7c-0.2-25.7-0.4-51.4-0.5-77.1c-0.1-25.7-0.3-51.4-0.4-77.1c-0.1-25.7-0.2-51.4-0.3-77.1
	c-0.1-25.7-0.1-51.4-0.2-77c0-25.7-0.1-51.3-0.1-77c0-25.6,0-51.3,0-76.9c0-25.6,0-51.2,0-76.8c0-25.3,0-50.6,0.3-75.9
	c0.3-24.8,0.9-49.7,1.7-74.5c0.8-24.6,1.9-49.1,3.2-73.7c1.4-24.4,3-48.8,5-73.1c2-24.4,4.3-48.7,6.9-73c2.7-24.5,5.6-48.9,9-73.3
	c3.4-24.7,7.2-49.4,11.3-74c4.2-24.8,8.4-49.7,12.3-74.6c3.8-24.4,7.3-48.8,10.4-73.3c3-24,5.6-48.1,7.5-72.2
	c1.9-24.1,3.3-48.2,3.8-72.4c0.5-24.2,0.3-48.5-0.9-72.7c-1.2-24.6-3.4-49.2-6.5-73.6c-3.3-25-7.7-49.9-13-74.6
	c-5-23-10.5-46-16.2-68.9c-5.7-22.8-11.6-45.6-17.4-68.3c-5.8-22.7-11.6-45.5-16.9-68.3c-5.4-22.9-10.4-45.8-14.7-68.9
	c-4.3-23.1-8-46.3-10.8-69.6c-2.8-23.8-4.6-47.6-5.2-71.6c-0.6-24.4,0.2-48.8,1.6-73.2c1.4-24.6,3.5-49.1,6.1-73.6
	c2.7-24.6,5.9-49.2,9.5-73.7c3.6-24.7,7.6-49.2,11.8-73.8c4.2-24.6,8.6-49.2,13.1-73.8c4.5-24.5,9-49.1,13.3-73.6
	c4.4-24.3,8.6-48.7,12.6-73.1c3.9-24.2,7.6-48.4,10.8-72.7c1.4-10.3,2.6-20.5,3.8-30.8c0.3-2.6,0.6-5.3,0.9-7.9
	c0.3-2.6,0.6-5.1,0.9-7.7c0.3-2.5,0.6-5.1,0.8-7.6c0.3-2.6,0.5-5.1,0.8-7.7c0.3-2.6,0.5-5.3,0.8-7.9c0.3-2.8,0.5-5.6,0.7-8.4
	c0.3-3,0.5-5.9,0.7-8.9c0.2-3.2,0.5-6.5,0.7-9.7c0.2-3.5,0.5-7.1,0.7-10.6c0.2-3.9,0.5-7.8,0.7-11.7c0.2-4.3,0.5-8.6,0.7-12.9
	c0.2-4.8,0.5-9.6,0.7-14.4c0.2-5.3,0.5-10.6,0.7-15.9c0.2-5.9,0.5-11.8,0.7-17.7c0.3-6.5,0.5-13.1,0.7-19.6
	c0.3-7.2,0.5-14.4,0.7-21.5c0.3-8,0.5-15.9,0.8-23.9c0.3-8.8,0.5-17.5,0.8-26.3c0.3-9.6,0.6-19.2,0.9-28.9
	c0.3-10.5,0.6-21.1,0.9-31.6c0.3-11.5,0.6-23,0.9-34.5c0.3-12.5,0.7-25,1-37.6c0.4-13.6,0.7-27.2,1.1-40.8
	c0.4-14.7,0.8-29.4,1.1-44.1c0.4-15.9,0.8-31.7,1.2-47.6c0.4-17.2,0.9-34.3,1.3-51.5c0.5-18.4,0.9-36.9,1.4-55.3
	c0.5-19.8,1-39.6,1.4-59.4c0.5-21.2,1-42.4,1.5-63.6c0.5-22.7,1.1-45.3,1.6-68c0.6-24.2,1.2-48.4,1.7-72.6
	c0.6-25.3,1.3-50.6,1.6-75.9c0.3-25.1,0.3-50.2,0.1-75.3c-0.2-25.3-0.6-50.6-1.2-75.9c-0.5-25.3-1.1-50.6-1.7-75.9
	c-0.6-25.3-1.2-50.6-1.6-75.9c-0.5-25.3-0.8-50.5-0.9-75.8c-0.1-25.2,0-50.4,0.5-75.6c0.5-25.1,1.3-50.3,2.6-75.4
	c1.3-25.1,3.1-50.1,5.4-75.1c2.3-25,5.2-49.9,8.8-74.7c3.4-23.8,7.5-47.5,11.6-71.2c3.9-22.5,7.9-45,11.8-67.6
	c3.7-21.4,7.2-42.9,10.2-64.4c2.9-20.5,5.3-41,7-61.6c1.6-19.7,2.4-39.5,2-59.2c-0.3-19.2-1.8-38.3-4.7-57.3
	c-2.9-18.9-7.2-37.5-13-55.7c-5.8-18.1-13.2-35.6-22-52.5c-3.2-6.2-6.6-12.4-10.1-18.5c-5.3-9.2-10.9-18.3-16.8-27.2
	c-7.5-11.3-15.5-22.4-23.9-33c-9.8-12.5-20.2-24.5-31.3-35.9c-12.3-12.7-25.3-24.7-39-35.9c-14.9-12.1-30.6-23.1-47.1-32.9
	c-17.1-10.1-35-18.7-53.3-26.3c-17.7-7.4-35.6-14.1-53.6-20.5c-18.4-6.5-36.8-12.8-55.3-19c-17.9-6-35.9-12-53.7-18.3
	c-16.7-5.9-33.3-12-49.6-18.7c-14.4-6-28.6-12.4-42.3-20.1c-11.3-6.3-22.3-13.5-31.9-22.4c-7.7-7.2-14.6-15.7-18.4-25.6
	c-1.5-3.9-2.7-8.2-3-12.4c-0.3-3.5-0.3-7.1-0.3-10.6c-0.1-13.1,0.1-26.3,0.2-39.4c0.2-15.5,0.4-30.9,0.4-46.4
	c0-9.8,0.1-19.5-0.2-29.3"/>
</svg>
