<?xml version="1.0" encoding="UTF-8" standalone="no"?>
<!-- Generator: Adobe Illustrator 22.0.0, SVG Export Plug-In . SVG Version: 6.00 Build 0)  -->

<svg
   xmlns:dc="http://purl.org/dc/elements/1.1/"
   xmlns:cc="http://creativecommons.org/ns#"
   xmlns:rdf="http://www.w3.org/1999/02/22-rdf-syntax-ns#"
   xmlns:svg="http://www.w3.org/2000/svg"
   xmlns="http://www.w3.org/2000/svg"
   xmlns:sodipodi="http://sodipodi.sourceforge.net/DTD/sodipodi-0.dtd"
   xmlns:inkscape="http://www.inkscape.org/namespaces/inkscape"
   version="1.1"
   id="Layer_1"
   x="0px"
   y="0px"
   viewBox="0 0 1363.1 10423.4"
   style="enable-background:new 0 0 1363.1 10423.4;"
   xml:space="preserve"
   sodipodi:docname="path.svg"
   inkscape:version="0.92.4 (5da689c313, 2019-01-14)"><metadata
   id="metadata3733"><rdf:RDF><cc:Work
       rdf:about=""><dc:format>image/svg+xml</dc:format><dc:type
         rdf:resource="http://purl.org/dc/dcmitype/StillImage" /></cc:Work></rdf:RDF></metadata><defs
   id="defs3731" /><sodipodi:namedview
   pagecolor="#ffffff"
   bordercolor="#666666"
   borderopacity="1"
   objecttolerance="10"
   gridtolerance="10"
   guidetolerance="10"
   inkscape:pageopacity="0"
   inkscape:pageshadow="2"
   inkscape:window-width="1366"
   inkscape:window-height="705"
   id="namedview3729"
   showgrid="false"
   inkscape:zoom="0.20569103"
   inkscape:cx="1171.2157"
   inkscape:cy="1168.3246"
   inkscape:window-x="-8"
   inkscape:window-y="-8"
   inkscape:window-maximized="1"
   inkscape:current-layer="Layer_1" />
<style
   type="text/css"
   id="style3724">
	.st0{fill:none;}
</style>
<path
   class="st0"
   d="m 469.7,9931.1 c 4.4,205.2 113.7,377.1 264.2,427.1 91.6,30.4 215.2,21.1 299.2,-61.8 74.9,-74 92,-180.6 97.1,-480.6 5.5,-322.2 -8.8,-515.2 -16,-763.8 -7.9,-273 3,-256.8 -2.2,-640.6 -3.9,-283 -12.3,-390.8 -22.6,-726.3 -14.9,-484.8 -8.0246,-954.6737 -8.1246,-1439.9737 0,-221.4 5.5246,-446.0263 42.4246,-662.2263 37.1,-217.6 44.5926,-413.8623 16.8,-636.5 -20.0737,-201.4131 -33.3703,-358.6491 -29.1703,-561.1491 5,-245.9 -0.1297,-510.4509 28.6703,-753.9509 13.6,-114.5 14.6,-116.3 39.8,-1175.5 7.4,-309 -28.6,-622.7 19.1,-927 37.1,-237.1 93.3,-424.1 1,-601.9 -18.8,-36.2 -98.8,-186 -262.7,-259.3 C 773.5,594.5 539.2,556.7 526.3,461 c -1.7,-12.6 1.3,-125.8 0,-161.3"
   id="path3726"
   style="fill:none"
   inkscape:connector-curvature="0"
   sodipodi:nodetypes="cccccccccccccccccc" />
</svg>