<?xml version="1.0" encoding="utf-8"?>
<!-- Generator: Adobe Illustrator 22.0.0, SVG Export Plug-In . SVG Version: 6.00 Build 0)  -->
<svg version="1.1" id="Layer_1" xmlns="http://www.w3.org/2000/svg" xmlns:xlink="http://www.w3.org/1999/xlink" x="0px" y="0px"
	 viewBox="0 0 260 159.2" style="enable-background:new 0 0 260 159.2;" xml:space="preserve">
<style type="text/css">
	.st0{fill:#FFFFFF;}
</style>
<g>
	<path class="st0" d="M220.6,38.8c-6.8-1.1-13.5-0.4-19.7,1.7C198.4,22.8,184.6,8.1,166,5.3c-10.7-1.6-21.1,0.9-29.4,6.5
		c-4.5-4.6-10.5-7.8-17.4-8.9c-12.3-1.9-24,3.7-30.6,13.3c-0.9-0.2-1.9-0.4-2.9-0.5c-24.3-3.7-47.2,11.2-54,34.2
		C17.5,50.6,5.2,61.3,2.9,76c-2.6,16.9,9,32.6,25.8,35.2c1.3,0.2,2.6,0.3,3.9,0.3c-0.1,0.5-0.2,1.1-0.3,1.6
		c-2.6,16.9,9,32.6,25.8,35.2c12.7,1.9,24.7-4.1,31-14.3c6.2,10.3,16.7,17.8,29.4,19.8c12.2,1.9,23.9-1.7,32.8-9
		c2.3,0.8,4.6,1.3,7,1.7c19.8,3,38.4-8.4,45.3-26.3c1.4,0.4,2.9,0.7,4.3,0.9c22.8,3.5,44-12.1,47.5-34.9
		C259,63.6,243.4,42.3,220.6,38.8z"/>
</g>
</svg>
