<?xml version="1.0" encoding="utf-8"?>
<!-- Generator: Adobe Illustrator 18.0.0, SVG Export Plug-In . SVG Version: 6.00 Build 0)  -->
<!DOCTYPE svg PUBLIC "-//W3C//DTD SVG 1.1//EN" "http://www.w3.org/Graphics/SVG/1.1/DTD/svg11.dtd">
<svg version="1.1" id="Layer_1" xmlns="http://www.w3.org/2000/svg" xmlns:xlink="http://www.w3.org/1999/xlink" x="0px" y="0px"
	 viewBox="0 0 300 300" enable-background="new 0 0 300 300" xml:space="preserve">
<rect x="0" y="0" fill="#1D1D1D" width="300" height="300"/>
<g>
	<path fill="#666666" d="M159,300c-5.6,0-11.2,0-16.8,0c-2.6-0.6-5.3-0.5-8-0.8c-18.1-1.9-35.3-6.9-51.6-15.2
		c-25.6-13-45.9-31.8-60.9-56.3c-12.2-20-19.2-41.7-21.2-65c-0.1-1.3,0.1-2.7-0.5-3.9c0-5.8,0-11.6,0-17.4c0.4-0.3,0.3-0.7,0.3-1.1
		c0.5-7.6,1.5-15.1,3.2-22.5c9-38.8,29.9-69.5,62.7-92c21.5-14.7,45.4-23,71.4-25.2c1.2-0.1,2.4,0.1,3.5-0.5c5.9,0,11.8,0,17.7,0
		c0.4,0.5,0.9,0.3,1.4,0.3c13.9,1,27.5,3.7,40.6,8.5c26.1,9.5,48,25,65.5,46.5c19.5,23.9,30.5,51.3,33.2,82c0.1,1.3-0.1,2.7,0.5,3.9
		c0,5.9,0,11.8,0,17.7c-0.5,0.4-0.3,0.9-0.3,1.4c-0.6,8.6-1.8,17.1-4,25.4c-9.5,37.2-30.2,66.8-61.9,88.5
		c-21.5,14.7-45.4,23-71.4,25.2C161.3,299.6,160.1,299.4,159,300z M150,11.9c-76.1,0-138,61.7-138,137.6
		C11.9,226.1,73.5,288,149.7,288.1c76.4,0.1,138.4-61.6,138.4-137.7C288.1,73.7,226.5,12,150,11.9z"/>
	<path fill="#666666" d="M150.1,105.6c24.4,0,44.3,20,44.3,44.4c0,24.4-20,44.3-44.5,44.3c-24.4,0-44.3-20-44.2-44.5
		C105.7,125.5,125.7,105.6,150.1,105.6z"/>
	<path fill="#999999" d="M169.5,275.5c-4.1,0.7-7.9,1.1-11.7,1.3c-6.9,0.4-13.9,0.3-20.8-0.4c-1-0.1-1.8-0.5-2.6-1.1
		c-14.2-10.6-22.8-24.8-26.4-42c-2.9-13.9-1.5-27.3,4.4-40.3c0.6-1.3,1-1.2,1.9-0.4c2,1.8,4.2,3.4,6.5,4.7c0.8,0.4,1,1,0.9,1.8
		c-1.9,33.7,19.1,61.6,45.2,75.1C167.7,274.6,168.4,275,169.5,275.5z"/>
	<path fill="#999999" d="M106.3,30.7c6.6-2.4,13.2-4.2,19.9-5.5c3.7-0.7,7.4-1.2,11.1-1.6c1.2-0.1,2.2,0.1,3.3,0.6
		c15,7.5,25.7,19.2,32.5,34.4c5.9,13.1,7.3,26.8,4.2,40.9c-0.4,1.8-0.4,1.8-2,1c-2.2-1.1-4.5-2.1-6.9-2.9c-0.7-0.2-1.1-0.6-1.2-1.4
		c-4.4-26.7-19.5-45.5-42.9-58.1c-5.2-2.8-10.7-4.9-16.4-6.5C107.3,31.3,106.7,31.3,106.3,30.7z"/>
	<path fill="#999999" d="M272.9,118.3c0.7,1.3,0.8,2.7,1.1,4c2,9,3,18,3,27.2c0,1.2-0.3,2.1-0.9,3.1c-9.8,15.9-24,26-41.9,30.9
		c-12.5,3.4-25,3-37.3-1.1c-1.2-0.4-1.4-0.7-0.6-1.8c1.5-2.2,2.8-4.5,3.9-6.9c0.4-0.8,0.8-1.1,1.7-1.1c18.6-1,34.6-8,48.2-20.5
		c9.6-8.9,16.9-19.4,21.7-31.6c0.3-0.6,0.5-1.3,0.8-1.9C272.7,118.6,272.8,118.5,272.9,118.3z"/>
	<path fill="#999999" d="M23.1,154c-0.2-6.4,0-12.7,0.8-18.9c0.5-3.9,1.1-7.8,1.9-11.7c0.2-1.1,0.7-2,1.5-2.9
		C37.6,109.6,50.3,103,65,100.3c15.6-2.9,30.4-0.8,44.4,7c3,1.7,3,1.6,0.7,4c-1.3,1.3-2.5,2.7-3.7,4.2c-0.6,0.8-1.3,1.1-2.3,0.9
		c-14.4-2.6-28.3-0.9-41.7,4.7c-15.9,6.6-28.5,17.4-38.2,31.6C24,153.1,23.8,153.6,23.1,154z"/>
	<path fill="#999999" d="M35.8,205.7c-0.8-1.8-1.6-3.4-2.3-5.1c-3.3-7.4-5.7-15.1-7.5-23.1c-0.3-1.2-0.2-2.2,0.2-3.4
		c8.2-24.2,30.7-42.7,56.1-46c5-0.6,10.1-0.6,15.1-0.1c1,0.1,1.5,0.3,1,1.4c-1,2.3-1.7,4.6-2.2,7c-0.2,0.9-0.7,1.2-1.5,1.4
		c-32.1,9.2-50.1,31.4-57.7,63c-0.3,1.4-0.5,2.8-0.8,4.3C36,205.3,36,205.4,35.8,205.7z"/>
	<path fill="#999999" d="M255.4,220.9c-2.5,4.1-5.6,7.9-8.7,11.6c-3.3,3.9-6.9,7.5-10.6,11c-0.6,0.6-1.3,0.9-2.1,1.1
		c-18.6,3.7-35.8,0-51.6-10.1c-10.8-6.8-18.8-16.2-24.1-27.8c-0.5-1.2-0.5-1.6,0.9-1.8c2.3-0.3,4.6-0.9,6.9-1.6
		c0.9-0.3,1.4-0.1,2.1,0.6c12.7,12.9,28.2,20.1,46.1,22.1c13.8,1.5,27.1-0.2,40.1-5c0.3-0.1,0.6-0.2,0.9-0.2
		C255.2,220.7,255.3,220.8,255.4,220.9z"/>
	<path fill="#999999" d="M160.6,23.4c5.3,0.4,10.4,1.2,15.4,2.2c4.7,1,9.4,2.3,14,3.7c0.9,0.3,1.7,0.8,2.3,1.5
		c9.7,11.8,14.8,25.4,15.7,40.5c0.9,15.6-3,29.9-12.2,42.6c-1.6,2.2-1.5,2.2-3.3,0.2c-1.3-1.5-2.7-3-4.1-4.4c-0.5-0.5-0.7-1-0.5-1.7
		c9.5-31.2-3.1-63.2-26.3-83.4C161.3,24.4,160.8,24.2,160.6,23.4z"/>
	<path fill="#999999" d="M67.9,246.8c-2.9-2.3-5.3-4.6-7.6-6.9c-4.6-4.5-8.7-9.4-12.5-14.5c-0.5-0.7-0.8-1.4-0.9-2.2
		c-3.1-29.1,14.6-60.9,44.5-71.1c3-1,2.9-1,3.2,2.1c0.2,1.9,0.4,3.9,0.7,5.8c0.1,0.8,0,1.4-0.7,1.9c-17.2,13.5-26.4,31.3-28.9,52.8
		c-1.2,10.2-0.5,20.4,1.9,30.4C67.6,245.5,67.7,245.9,67.9,246.8z"/>
	<path fill="#999999" d="M217.7,257.3c-2.4,1.8-5,3.3-7.7,4.7c-5.7,3.1-11.7,5.7-17.8,7.9c-1,0.4-2,0.5-3.1,0.3
		c-22.2-4.9-38.1-17.8-48.4-37.8c-4.4-8.5-6.4-17.7-6.5-27.3c0-1.3,0.3-1.7,1.6-1.3c2.2,0.7,4.6,1.1,6.9,1.4c1,0.1,1.5,0.5,1.8,1.4
		c4.1,11.1,10.5,20.5,19.1,28.5c11.7,10.8,25.5,17.4,41,20.5C209,256.5,213.3,257,217.7,257.3z"/>
	<path fill="#999999" d="M210.9,38.7c1.8,0.4,3.2,1.6,4.7,2.5c7.3,4.3,14,9.4,20.3,15.1c0.5,0.5,0.9,1,1.1,1.7
		c7.9,27.8-3.6,61.7-30.8,77.1c-2.2,1.2-2.1,1.2-2.9-1.2c-0.6-1.8-1.2-3.5-1.9-5.2c-0.3-0.8-0.2-1.2,0.3-1.9
		c11.3-13.2,17.1-28.5,18-45.7c0.7-14.4-2.2-28.1-8.2-41.2C211.2,39.6,210.9,39.2,210.9,38.7L210.9,38.7z"/>
	<path fill="#999999" d="M62.9,57.7c1.4-1.6,3.1-3,4.7-4.3c5.6-4.7,11.5-9,17.8-12.7c0.8-0.5,1.7-0.8,2.7-0.7
		c19.7,0.5,36.2,8.3,49.7,22.5c8.2,8.6,13.4,18.8,15.9,30.4c0.3,1.4,0,1.8-1.4,1.6c-2.4-0.2-4.8-0.1-7.2,0.1
		c-0.9,0.1-1.3-0.2-1.8-0.9c-13.4-21.1-32.9-32.4-57.4-35.8c-7.3-1-14.5-1-21.8,0C63.7,57.9,63.3,58,62.9,57.7z"/>
	<path fill="#999999" d="M250.6,72.5c3,3.8,5.4,7.4,7.7,11.1c2.4,3.9,4.4,7.9,6.6,12c1,1.9,0.8,3.6,0.5,5.5
		c-3.4,26.1-23.5,49.4-48.7,56.5c-3.5,1-7,1.7-10.6,2c-1,0.1-1.3-0.2-1.2-1.2c0.4-2.5,0.6-5.1,0.6-7.6c0-0.9,0.4-1.3,1.1-1.7
		c20.2-9.9,33.1-26,39.8-47.1c3-9.2,4.3-18.7,4-28.4C250.5,73.4,250.6,73.2,250.6,72.5z"/>
	<path fill="#999999" d="M114.1,271.8c-2.8-0.8-5.5-1.7-8.2-2.7c-6.8-2.5-13.2-5.6-19.5-9.2c-0.8-0.5-1.4-1.1-1.8-1.9
		c-7-13-9.3-26.8-7.6-41.3c1.5-12.4,5.9-23.6,13.6-33.4c2.5-3.1,5.2-5.9,8.2-8.6c0.8-0.7,1.1-0.6,1.6,0.3c0.9,1.8,2,3.6,3.1,5.3
		c0.5,0.8,0.4,1.3,0,2c-6.2,11.4-9.2,23.6-8.9,36.6c0.4,19.1,6.8,36,18.4,51.1C113.4,270.6,113.9,271,114.1,271.8z"/>
	<path fill="#999999" d="M33,100.8c2.2-5.7,5.1-11.1,8.2-16.3c2-3.4,4.3-6.7,6.7-10c0.6-0.8,1.2-1.3,2.1-1.6
		c19.4-7.1,38.4-5.8,56.8,3.3c9.5,4.7,17.1,11.6,23.2,20.1c0.8,1.2,0.7,1.6-0.6,2.1c-1.7,0.6-3.4,1.5-5,2.3
		c-0.7,0.3-1.1,0.4-1.8-0.1c-14-9.8-29.6-14-46.6-13.3c-14.8,0.6-28.5,5-41.1,12.6c-0.6,0.3-1.1,0.7-1.7,1
		C33.1,100.9,33,100.8,33,100.8z"/>
	<path fill="#999999" d="M274.9,173c-0.4,2.9-1.1,5.6-1.7,8.3c-1.7,6.6-3.9,13-6.6,19.3c-0.4,0.9-0.9,1.5-1.7,2
		c-13,9.1-27.4,13-43.2,12.3c-13.8-0.6-26.3-4.9-37.3-13.4c-1.5-1.1-2.8-2.4-4.2-3.6c-0.6-0.5-0.6-0.8,0.1-1.2
		c1.9-1.3,3.7-2.7,5.5-4.1c0.7-0.6,1.3-0.3,1.9,0c10.4,4.3,21.2,6,32.4,5.4c14.7-0.9,28.1-5.7,40.4-13.6c4.7-3,9.1-6.5,13.1-10.5
		C273.9,173.5,274.2,173.1,274.9,173z"/>
	<path fill="#999999" d="M33.1,101c-0.1,0-0.2,0-0.3,0c0-0.1,0.1-0.1,0.1-0.2C33,100.8,33.1,100.9,33.1,101z"/>
	<polygon fill="#999999" points="210.9,38.7 210.9,38.6 210.9,38.7 	"/>
	<path fill="#999999" d="M255.2,220.7c0.1,0,0.2,0,0.3,0c0,0.1-0.1,0.1-0.1,0.2C255.3,220.8,255.2,220.7,255.2,220.7z"/>
</g>
<g>
	<path d="M150,110.4c17.3,0.2,32.9,12,37.1,28.7c4.3,16.7-0.1,31-13.5,42.1c-13.3,11.1-33.5,11.1-47,0.2c-11.2-9-16.2-20.8-15.1-35
		c1.4-17.7,14.3-31.9,31.2-35.2C145.1,110.8,147.5,110.7,150,110.4z M172.7,150.8c0.1-10.6-5.4-18.3-13.7-21.7
		c-11.5-4.7-23.2,4.1-24.4,14.1c-0.7,6.2,2.7,12.2,8.6,14.1c3.9,1.2,8.7-0.5,10.5-3.8c1.4-2.5,0.8-5.7-1.3-7.3
		c-0.9-0.7-2.5-0.8-3.4-0.2c-1.2,0.8-1.7,2.2-1.2,3.5c0.5,1.4,0.2,1.9-1.3,2c-0.8,0-1.6-0.1-2.3-0.4c-2.4-1-3.9-4.2-3.5-7.3
		c0.7-4.7,3.6-7.7,7.9-9.1c7.1-2.3,14.9,1.9,17.2,9c2.4,7.2,0.6,13.6-4.2,19.2c-3.3,3.8-7.5,6.3-12.3,7.8c-0.7,0.2-1.1,0.6-1.1,1.3
		c-0.1,1-0.2,2.1-0.4,3.1c-0.2,1.1,0.3,1.1,1.1,0.9c5.6-1.4,10.5-3.8,14.9-7.7C169.6,163.4,172.5,156.9,172.7,150.8z"/>
	<path fill="#FFFFFF" d="M172.7,150.8c-0.2,6.1-3,12.6-8.9,17.8c-4.3,3.9-9.3,6.3-14.9,7.7c-0.9,0.2-1.3,0.2-1.1-0.9
		c0.2-1,0.3-2.1,0.4-3.1c0.1-0.7,0.4-1.1,1.1-1.3c4.8-1.5,9-4,12.3-7.8c4.8-5.6,6.6-12,4.2-19.2c-2.3-7.1-10.1-11.3-17.2-9
		c-4.3,1.4-7.2,4.4-7.9,9.1c-0.5,3.1,1,6.2,3.5,7.3c0.7,0.3,1.6,0.4,2.3,0.4c1.5-0.1,1.7-0.5,1.3-2c-0.4-1.3,0-2.6,1.2-3.5
		c0.9-0.6,2.4-0.5,3.4,0.2c2.1,1.6,2.6,4.8,1.3,7.3c-1.8,3.3-6.6,5-10.5,3.8c-5.8-1.9-9.3-7.8-8.6-14.1c1.2-10,12.9-18.8,24.4-14.1
		C167.3,132.5,172.7,140.2,172.7,150.8z"/>
</g>
</svg>
