<?xml version="1.0" encoding="utf-8"?>
<!-- Generator: Adobe Illustrator 18.0.0, SVG Export Plug-In . SVG Version: 6.00 Build 0)  -->
<!DOCTYPE svg PUBLIC "-//W3C//DTD SVG 1.1//EN" "http://www.w3.org/Graphics/SVG/1.1/DTD/svg11.dtd">
<svg version="1.1" id="Layer_1" xmlns="http://www.w3.org/2000/svg" xmlns:xlink="http://www.w3.org/1999/xlink" x="0px" y="0px"
	 viewBox="0 0 1680 3000" enable-background="new 0 0 1680 3000" xml:space="preserve">
<g>
	<g>
		<path fill="#D2AC6B" d="M541,1687.5l-11.9-46.8h6.4l5.6,23.7c1.4,5.8,2.6,11.7,3.5,16.2h0.1c0.8-4.7,2.2-10.2,3.8-16.3l6.2-23.6
			h6.3l5.7,23.8c1.3,5.6,2.6,11.1,3.3,16h0.1c1-5.1,2.3-10.3,3.8-16.2l6.2-23.6h6.2l-13.3,46.8h-6.3l-5.9-24.4
			c-1.5-6-2.4-10.6-3.1-15.3h-0.1c-0.8,4.7-1.9,9.2-3.6,15.3l-6.7,24.4H541z"/>
		<path fill="#D2AC6B" d="M632.2,1663.7c0,16.1-9.8,24.7-21.7,24.7c-12.4,0-21-9.6-21-23.8c0-14.9,9.2-24.6,21.7-24.6
			C623.9,1640,632.2,1649.8,632.2,1663.7z M595.8,1664.4c0,10,5.4,19,14.9,19c9.6,0,15-8.8,15-19.4c0-9.3-4.9-19-14.9-19
			C600.8,1644.9,595.8,1654.1,595.8,1664.4z"/>
		<path fill="#D2AC6B" d="M640,1641.4c3.1-0.6,7.4-1,11.6-1c6.5,0,10.6,1.2,13.5,3.8c2.4,2.1,3.7,5.3,3.7,8.9
			c0,6.2-3.9,10.3-8.8,11.9v0.2c3.6,1.2,5.8,4.6,6.9,9.4c1.5,6.5,2.6,11,3.6,12.8h-6.2c-0.8-1.3-1.8-5.3-3.1-11.2
			c-1.4-6.5-3.9-8.9-9.4-9.1H646v20.3h-6V1641.4z M646,1662.7h6.2c6.5,0,10.6-3.5,10.6-8.9c0-6-4.4-8.7-10.8-8.7c-2.9,0-5,0.3-6,0.6
			V1662.7z"/>
		<path fill="#D2AC6B" d="M677.4,1640.7h6v41.7h20v5.1h-26V1640.7z"/>
		<path fill="#D2AC6B" d="M710.1,1641.4c3.7-0.6,8.1-1,12.8-1c8.7,0,14.9,2,19,5.8c4.2,3.8,6.6,9.2,6.6,16.8
			c0,7.6-2.4,13.9-6.7,18.2c-4.4,4.4-11.6,6.7-20.7,6.7c-4.3,0-7.9-0.2-11-0.6V1641.4z M716.2,1682.8c1.5,0.3,3.8,0.3,6.1,0.3
			c12.9,0,19.9-7.2,19.9-19.9c0.1-11-6.2-18.1-19-18.1c-3.1,0-5.5,0.3-7.1,0.6V1682.8z"/>
		<path fill="#D2AC6B" d="M764,1687.5l-11.9-46.8h6.4l5.6,23.7c1.4,5.8,2.6,11.7,3.5,16.2h0.1c0.8-4.7,2.2-10.2,3.8-16.3l6.2-23.6
			h6.3l5.7,23.8c1.3,5.6,2.6,11.1,3.3,16h0.1c1-5.1,2.3-10.3,3.8-16.2l6.2-23.6h6.2l-13.3,46.8h-6.3l-5.9-24.4
			c-1.5-6-2.4-10.6-3.1-15.3h-0.1c-0.8,4.7-1.9,9.2-3.6,15.3l-6.7,24.4H764z"/>
		<path fill="#D2AC6B" d="M821.2,1640.7v46.8h-6v-46.8H821.2z"/>
		<path fill="#D2AC6B" d="M831.7,1641.4c3.7-0.6,8.1-1,12.8-1c8.7,0,14.9,2,19,5.8c4.2,3.8,6.6,9.2,6.6,16.8
			c0,7.6-2.4,13.9-6.7,18.2c-4.4,4.4-11.6,6.7-20.7,6.7c-4.3,0-7.9-0.2-11-0.6V1641.4z M837.8,1682.8c1.5,0.3,3.8,0.3,6.1,0.3
			c12.9,0,19.9-7.2,19.9-19.9c0.1-11-6.2-18.1-19-18.1c-3.1,0-5.5,0.3-7.1,0.6V1682.8z"/>
		<path fill="#D2AC6B" d="M902.2,1665.6H884v16.9h20.3v5.1H878v-46.8h25.3v5.1H884v14.8h18.2V1665.6z"/>
		<path fill="#D2AC6B" d="M934.4,1672.8l-4.9,14.7h-6.2l15.9-46.8h7.3l16,46.8H956l-5-14.7H934.4z M949.8,1668.1l-4.6-13.5
			c-1-3.1-1.7-5.8-2.4-8.5h-0.1c-0.7,2.8-1.5,5.6-2.4,8.5l-4.6,13.5H949.8z"/>
		<path fill="#D2AC6B" d="M976,1687.5l-15.3-46.8h6.5l7.3,23.1c2,6.3,3.7,12,5,17.5h0.1c1.3-5.4,3.3-11.3,5.3-17.4l7.9-23.1h6.5
			l-16.7,46.8H976z"/>
		<path fill="#D2AC6B" d="M1010.5,1640.7v46.8h-6v-46.8H1010.5z"/>
		<path fill="#D2AC6B" d="M1028.6,1672.8l-4.9,14.7h-6.2l15.9-46.8h7.3l16,46.8h-6.5l-5-14.7H1028.6z M1043.9,1668.1l-4.6-13.5
			c-1-3.1-1.7-5.8-2.4-8.5h-0.1c-0.7,2.8-1.5,5.6-2.4,8.5l-4.6,13.5H1043.9z"/>
		<path fill="#D2AC6B" d="M1067.1,1645.9h-14.2v-5.1h34.7v5.1h-14.3v41.7h-6.1V1645.9z"/>
		<path fill="#D2AC6B" d="M1098.7,1640.7v46.8h-6v-46.8H1098.7z"/>
		<path fill="#D2AC6B" d="M1149.3,1663.7c0,16.1-9.8,24.7-21.7,24.7c-12.4,0-21-9.6-21-23.8c0-14.9,9.2-24.6,21.7-24.6
			C1141,1640,1149.3,1649.8,1149.3,1663.7z M1113,1664.4c0,10,5.4,19,14.9,19c9.6,0,15-8.8,15-19.4c0-9.3-4.9-19-14.9-19
			C1118,1644.9,1113,1654.1,1113,1664.4z"/>
		<path fill="#D2AC6B" d="M1157.1,1687.5v-46.8h6.6l15,23.7c3.5,5.5,6.2,10.4,8.4,15.2l0.1-0.1c-0.6-6.2-0.7-11.9-0.7-19.2v-19.6
			h5.7v46.8h-6.1l-14.9-23.8c-3.3-5.2-6.4-10.6-8.8-15.6l-0.2,0.1c0.3,5.9,0.5,11.5,0.5,19.3v20H1157.1z"/>
		<path fill="#D2AC6B" d="M1216.7,1680.2c2.7,1.7,6.7,3.1,10.8,3.1c6.2,0,9.8-3.3,9.8-8c0-4.4-2.5-6.9-8.8-9.3
			c-7.6-2.7-12.4-6.7-12.4-13.3c0-7.3,6-12.7,15.1-12.7c4.8,0,8.3,1.1,10.3,2.3l-1.7,4.9c-1.5-0.8-4.7-2.2-8.9-2.2
			c-6.4,0-8.8,3.8-8.8,7c0,4.4,2.8,6.5,9.3,9c7.9,3.1,11.9,6.9,11.9,13.7c0,7.2-5.3,13.5-16.4,13.5c-4.5,0-9.4-1.3-11.9-3
			L1216.7,1680.2z"/>
		<path fill="#D2AC6B" d="M1276,1665.6h-18.2v16.9h20.3v5.1h-26.3v-46.8h25.3v5.1h-19.2v14.8h18.2V1665.6z"/>
		<path fill="#D2AC6B" d="M1285.9,1641.4c3.1-0.6,7.4-1,11.6-1c6.5,0,10.6,1.2,13.5,3.8c2.4,2.1,3.7,5.3,3.7,8.9
			c0,6.2-3.9,10.3-8.8,11.9v0.2c3.6,1.2,5.8,4.6,6.9,9.4c1.5,6.5,2.6,11,3.6,12.8h-6.2c-0.8-1.3-1.8-5.3-3.1-11.2
			c-1.4-6.5-3.9-8.9-9.4-9.1h-5.7v20.3h-6V1641.4z M1292,1662.7h6.2c6.5,0,10.6-3.5,10.6-8.9c0-6-4.4-8.7-10.8-8.7
			c-2.9,0-5,0.3-6,0.6V1662.7z"/>
		<path fill="#D2AC6B" d="M1334.7,1687.5l-15.3-46.8h6.5l7.3,23.1c2,6.3,3.7,12,5,17.5h0.1c1.3-5.4,3.3-11.3,5.3-17.4l7.9-23.1h6.5
			l-16.7,46.8H1334.7z"/>
		<path fill="#D2AC6B" d="M1369.2,1640.7v46.8h-6v-46.8H1369.2z"/>
		<path fill="#D2AC6B" d="M1412.5,1686c-2.2,1.1-6.7,2.2-12.4,2.2c-13.2,0-23.1-8.3-23.1-23.7c0-14.7,9.9-24.6,24.4-24.6
			c5.8,0,9.5,1.2,11.1,2.1l-1.5,4.9c-2.3-1.1-5.6-1.9-9.4-1.9c-11,0-18.3,7-18.3,19.3c0,11.5,6.6,18.8,18,18.8
			c3.7,0,7.4-0.8,9.9-1.9L1412.5,1686z"/>
		<path fill="#D2AC6B" d="M1444.3,1665.6h-18.2v16.9h20.3v5.1H1420v-46.8h25.3v5.1h-19.2v14.8h18.2V1665.6z"/>
		<path fill="#D2AC6B" d="M1453.4,1680.2c2.7,1.7,6.7,3.1,10.8,3.1c6.2,0,9.8-3.3,9.8-8c0-4.4-2.5-6.9-8.8-9.3
			c-7.6-2.7-12.4-6.7-12.4-13.3c0-7.3,6-12.7,15.1-12.7c4.8,0,8.3,1.1,10.3,2.3l-1.7,4.9c-1.5-0.8-4.7-2.2-8.9-2.2
			c-6.4,0-8.8,3.8-8.8,7c0,4.4,2.8,6.5,9.3,9c7.9,3.1,11.9,6.9,11.9,13.7c0,7.2-5.3,13.5-16.4,13.5c-4.5,0-9.4-1.3-11.9-3
			L1453.4,1680.2z"/>
	</g>
	<g>
		<path fill="#D2AC6B" d="M596.3,1576.9c-0.5-9.8-1.2-21.6-1.1-30.3h-0.3c-2.4,8.2-5.4,17-9,26.7l-12.6,34.1h-7l-11.6-33.4
			c-3.4-9.9-6.3-19-8.3-27.3h-0.2c-0.2,8.8-0.7,20.5-1.4,31l-1.9,30.1H534l5-70.2h11.8l12.2,34c3,8.6,5.4,16.4,7.2,23.6h0.3
			c1.8-7.1,4.4-14.8,7.5-23.6l12.8-34h11.8l4.5,70.2h-9L596.3,1576.9z"/>
		<path fill="#D2AC6B" d="M630.6,1537.6v70.2h-9.2v-70.2H630.6z"/>
		<path fill="#D2AC6B" d="M686,1607.8l-9.1-15.5c-3.7-5.9-6.1-9.8-8.3-13.9h-0.2c-2,4.1-4,7.8-7.8,14l-8.6,15.4h-10.6l21.9-35.5
			l-21-34.7h10.7l9.5,16.5c2.7,4.6,4.7,8.1,6.6,11.9h0.3c2-4.2,3.8-7.4,6.5-11.9l9.8-16.5h10.6l-21.8,34.2l22.3,36H686z"/>
		<path fill="#D2AC6B" d="M722.5,1537.6h9.2v47c0,18.6-9.4,24.4-21.7,24.4c-3.4,0-7.5-0.7-9.9-1.7l1.4-7.4c1.9,0.7,4.7,1.4,7.8,1.4
			c8.3,0,13.2-3.6,13.2-17.4V1537.6z"/>
		<path fill="#D2AC6B" d="M784.3,1574.9h-27.9v25.3h31v7.6h-40.3v-70.2h38.7v7.6h-29.4v22.2h27.9V1574.9z"/>
		<path fill="#D2AC6B" d="M814.8,1545.3H793v-7.7h53v7.7h-21.9v62.5h-9.4V1545.3z"/>
		<path fill="#D2AC6B" d="M876.5,1537.6h38.6v7.6h-29.3v23.3h27.1v7.5h-27.1v31.8h-9.2V1537.6z"/>
		<path fill="#D2AC6B" d="M928.3,1537.6h9.2v62.6h30.6v7.6h-39.9V1537.6z"/>
		<path fill="#D2AC6B" d="M987.7,1537.6v70.2h-9.2v-70.2H987.7z"/>
		<path fill="#D2AC6B" d="M1058.4,1604.7c-4.1,1.5-12.3,3.9-22,3.9c-10.8,0-19.8-2.7-26.8-9.3c-6.2-5.8-10-15.2-10-26.1
			c0.1-20.9,14.8-36.3,38.8-36.3c8.3,0,14.8,1.8,17.9,3.2l-2.2,7.4c-3.8-1.7-8.6-3-15.8-3c-17.4,0-28.8,10.6-28.8,28.2
			c0,17.8,10.9,28.3,27.6,28.3c6.1,0,10.2-0.8,12.3-1.9v-20.9h-14.6v-7.3h23.6V1604.7z"/>
		<path fill="#D2AC6B" d="M1081.7,1537.6v29.4h34.7v-29.4h9.4v70.2h-9.4v-32.9h-34.7v32.9h-9.2v-70.2H1081.7z"/>
		<path fill="#D2AC6B" d="M1155.4,1545.3h-21.8v-7.7h53v7.7h-21.9v62.5h-9.4V1545.3z"/>
		<path fill="#D2AC6B" d="M1215.9,1596.7c4.1,2.5,10.2,4.6,16.6,4.6c9.5,0,15-4.9,15-12c0-6.6-3.8-10.3-13.5-14
			c-11.7-4.1-18.9-10-18.9-19.9c0-10.9,9.2-19.1,23.2-19.1c7.3,0,12.6,1.7,15.8,3.4l-2.5,7.4c-2.3-1.2-7.1-3.3-13.6-3.3
			c-9.8,0-13.5,5.7-13.5,10.5c0,6.6,4.4,9.8,14.2,13.5c12.1,4.6,18.3,10.3,18.3,20.6c0,10.8-8.2,20.2-25.1,20.2
			c-6.9,0-14.5-2-18.3-4.5L1215.9,1596.7z"/>
		<path fill="#D2AC6B" d="M1278.8,1537.6v41.6c0,15.7,7.1,22.4,16.7,22.4c10.6,0,17.4-6.9,17.4-22.4v-41.6h9.4v40.9
			c0,21.6-11.6,30.4-27.1,30.4c-14.7,0-25.7-8.2-25.7-30v-41.4H1278.8z"/>
		<path fill="#D2AC6B" d="M1338.3,1538.4c4.5-0.7,10.3-1.4,17.8-1.4c9.1,0,15.8,2.1,20.1,5.8c3.9,3.3,6.3,8.4,6.3,14.7
			c0,6.4-1.9,11.4-5.5,15c-4.9,5.1-12.9,7.7-21.9,7.7c-2.8,0-5.3-0.1-7.4-0.6v28.1h-9.2V1538.4z M1347.6,1572.3
			c2,0.5,4.6,0.7,7.7,0.7c11.2,0,18-5.3,18-15c0-9.3-6.7-13.8-16.9-13.8c-4,0-7.1,0.3-8.7,0.7V1572.3z"/>
		<path fill="#D2AC6B" d="M1394.9,1538.4c4.5-0.7,10.3-1.4,17.8-1.4c9.1,0,15.8,2.1,20.1,5.8c3.9,3.3,6.3,8.4,6.3,14.7
			c0,6.4-1.9,11.4-5.5,15c-4.9,5.1-12.9,7.7-21.9,7.7c-2.8,0-5.3-0.1-7.4-0.6v28.1h-9.2V1538.4z M1404.1,1572.3
			c2,0.5,4.6,0.7,7.7,0.7c11.2,0,18-5.3,18-15c0-9.3-6.7-13.8-16.9-13.8c-4,0-7.1,0.3-8.7,0.7V1572.3z"/>
		<path fill="#D2AC6B" d="M1512.6,1571.9c0,24.2-15,37-33.3,37c-18.9,0-32.2-14.4-32.2-35.6c0-22.3,14.1-36.9,33.3-36.9
			C1500,1536.4,1512.6,1551.1,1512.6,1571.9z M1457,1573.1c0,15,8.3,28.4,22.9,28.4c14.7,0,23-13.2,23-29.2c0-14-7.4-28.5-22.9-28.5
			C1464.7,1543.8,1457,1557.7,1457,1573.1z"/>
		<path fill="#D2AC6B" d="M1524.6,1538.5c4.7-0.9,11.4-1.5,17.8-1.5c9.9,0,16.3,1.8,20.7,5.7c3.6,3.1,5.6,7.9,5.6,13.3
			c0,9.3-6,15.4-13.5,17.9v0.3c5.5,1.9,8.8,6.9,10.5,14.2c2.3,9.8,4,16.6,5.5,19.3h-9.6c-1.2-2-2.8-8-4.8-16.8
			c-2.1-9.7-6-13.3-14.4-13.6h-8.7v30.4h-9.2V1538.5z M1533.9,1570.5h9.5c9.9,0,16.2-5.3,16.2-13.3c0-9.1-6.7-13-16.5-13.1
			c-4.5,0-7.7,0.4-9.1,0.8V1570.5z"/>
		<path fill="#D2AC6B" d="M1596.4,1545.3h-21.8v-7.7h53v7.7h-21.9v62.5h-9.4V1545.3z"/>
	</g>
	<g>
		<g>
			<g>
				<g>
					<g>
						<g>
							<path fill="#BB8D41" d="M483.5,1770.2H374.4l-32-200.1l-56.1,200.1h-81l-56.4-201.9l-26.1,201.9H11.9l62-347.6h93.8
								l73.8,185.4l78.1-185.4h94.7L483.5,1770.2z"/>
						</g>
					</g>
					<g>
						
							<image overflow="visible" opacity="0.31" width="342" height="329" xlink:href="52CE87FC63E2F0C9.png"  transform="matrix(0.4907 0 0 0.4907 159.5246 1274.7495)">
						</image>
						<g>
							<g>
								<path fill="#D0AA6A" d="M309.7,1348.2c0,34.2-29.1,61.9-65.1,61.9c-35.9,0-65.1-27.7-65.1-61.9c0-34.2,29.1-61.9,65.1-61.9
									C280.5,1286.3,309.7,1314,309.7,1348.2z"/>
							</g>
							<g>
								<g>
									<path fill="#9C732D" d="M238.3,1289.5c0.1,0,0.3,0,0.3,0C238.6,1289.5,238.5,1289.5,238.3,1289.5
										C238.3,1289.5,238.3,1289.5,238.3,1289.5c0,0-0.1,0-0.2,0C238.2,1289.5,238.2,1289.5,238.3,1289.5z"/>
								</g>
								<g>
									<path fill="#9C732D" d="M241.4,1290.5c-0.2,0-0.4,0.1-0.4,0c-0.1,0-0.1,0-0.1-0.1c-0.4,0.1-0.5,0.1-0.6,0.1
										c-0.1,0-0.1,0-0.2,0c0,0,0,0,0,0c-0.2,0-0.4,0.1-0.6,0.1c0.1,0,0.1-0.1,0.1-0.1c0,0,0,0,0,0c-0.6-0.3-1.4,0.2-1.4,0.3
										c0,0,0,0,0,0c0,0,0.1,0,0.1,0c-0.8,0.2-0.8,0.3-0.7,0.5c1.2-0.3,1.6-0.4,2.2-0.5c-0.3,0.2-0.3,0.2-0.7,0.3
										c0.2,0,0.2,0,0.3,0c0.1,0,0.1,0,0.1,0c0.1,0.1,0.2,0.1,0.7-0.1c-0.2,0-0.2,0,0.1-0.4c0.6,0.1,0.8,0.2,1.6,0c0,0,0,0,0,0
										C241.8,1290.5,241.5,1290.7,241.4,1290.5C241.4,1290.5,241.4,1290.5,241.4,1290.5z"/>
								</g>
								<g>
									<path fill="#9C732D" d="M258,1291.9C258,1291.9,258,1291.9,258,1291.9c0.1,0,0.2,0,0.2,0
										C258.1,1291.9,258.1,1291.9,258,1291.9C258.1,1291.8,258,1291.8,258,1291.9C258,1291.8,258,1291.8,258,1291.9
										c0-0.1-0.1-0.1-0.1-0.1c0,0,0,0,0,0C257.9,1291.8,257.9,1291.9,258,1291.9C258,1291.9,258,1291.9,258,1291.9z"/>
								</g>
								<g>
									<path fill="#9C732D" d="M258.5,1291.9c0,0,0.2,0,0.2,0c0,0,0,0,0,0c-0.1,0-0.2-0.1-0.3-0.1c0,0,0,0,0,0s0,0,0,0
										C258.3,1291.9,258.4,1291.9,258.5,1291.9z"/>
								</g>
								<g>
									<path fill="#9C732D" d="M246.5,1294.4c0.3,0,0.5,0.1,0.8,0.1c0.2,0,0.2-0.1,0.3-0.1c-0.5-0.1-0.7-0.4-0.7-0.7
										c1.4-0.8,1.5-0.8,1.9-1c0.3-0.1,0.5-0.1,1.1-0.2c0.3,0,0.8,0,0.9-0.2c0,0,0.1-0.1,0.1-0.1c-1.4,0-2.4,0.1-3.6,0.4
										c0,0.4-0.8,0.3-0.6,0.6c-0.4,0.1-0.6,0.2-0.7,0.5c-0.1,0.1-0.3,0-0.4,0.2c0.3,0.2,0.6,0.3,0.8,0.5
										C246.4,1294.4,246.4,1294.4,246.5,1294.4z"/>
								</g>
								<g>
									<path fill="#9C732D" d="M257.9,1292.5C257.9,1292.5,257.9,1292.5,257.9,1292.5c0.1,0,0.2,0.1,0.2,0.1
										C258,1292.5,257.9,1292.4,257.9,1292.5c0-0.1-0.2-0.1-0.2-0.1C257.7,1292.4,257.8,1292.4,257.9,1292.5L257.9,1292.5z"/>
								</g>
								<g>
									<path fill="#9C732D" d="M265.3,1292.7C265.3,1292.6,265.2,1292.6,265.3,1292.7C265.2,1292.6,265.2,1292.6,265.3,1292.7
										c-0.1-0.1,0-0.1,0-0.1c0,0,0,0,0,0c0,0,0,0,0,0c0,0-0.1-0.1-0.5-0.2c-0.5-0.1-0.5-0.1-0.5-0.1c0.1,0.1,0.3,0.1,0.4,0.2
										c-0.2-0.1-0.4-0.1-0.6-0.2c0,0-0.2,0-0.2,0c0,0,0.1,0,0.3,0.1c-0.3-0.1-0.4-0.1-0.5-0.1c0,0,0,0,0,0
										C263.8,1292.3,265.2,1292.8,265.3,1292.7z"/>
								</g>
								<g>
									<path fill="#9C732D" d="M264.4,1292.5C264.4,1292.5,264.4,1292.5,264.4,1292.5C264.4,1292.5,264.4,1292.5,264.4,1292.5
										C264.4,1292.5,264.4,1292.5,264.4,1292.5C264.3,1292.5,264.3,1292.5,264.4,1292.5C264.3,1292.5,264.3,1292.5,264.4,1292.5
										C264.3,1292.5,264.3,1292.5,264.4,1292.5C264.3,1292.5,264.3,1292.5,264.4,1292.5C264.3,1292.5,264.3,1292.5,264.4,1292.5
										c-0.1,0-0.1,0-0.1,0c0,0,0,0,0,0c0,0,0,0,0,0c0,0,0,0,0,0c0,0,0,0,0,0c0,0,0,0,0,0c0,0,0,0,0,0c0,0,0,0,0,0c0,0,0,0,0,0
										c0,0,0,0,0,0c0,0,0,0,0,0c0,0,0,0,0,0c0,0,0,0,0,0c0,0,0,0,0,0c0,0,0,0,0,0c0,0,0,0,0,0c0,0,0,0,0,0c0,0,0,0,0,0
										c0,0,0,0,0,0c0,0,0,0,0,0c0,0,0,0,0,0c0,0,0,0,0,0l0,0c0,0,0,0,0,0l0,0v0c0,0,0,0,0,0c0,0,0,0,0,0v0l0,0c0,0,0,0,0,0
										c0,0,0,0,0,0c0,0,0,0,0,0c0,0,0,0,0,0c0,0,0,0,0,0c0,0,0,0,0,0c0,0,0,0,0,0c0,0,0,0,0,0c0,0,0,0,0,0c0,0,0,0,0,0
										c0,0,0,0,0,0c0,0,0,0,0,0c0,0,0,0,0,0c0,0,0,0,0,0c0,0,0,0,0,0c0,0,0,0,0,0c0,0,0,0,0,0c0,0,0,0,0,0c0,0,0,0,0,0
										c0,0,0,0,0,0c0,0,0,0,0,0c0,0,0,0,0,0c0,0,0,0,0,0c0,0,0,0,0,0C264.3,1292.5,264.3,1292.5,264.4,1292.5
										C264.3,1292.5,264.3,1292.5,264.4,1292.5C264.3,1292.5,264.3,1292.5,264.4,1292.5C264.3,1292.5,264.3,1292.5,264.4,1292.5
										C264.3,1292.5,264.3,1292.5,264.4,1292.5C264.3,1292.5,264.3,1292.5,264.4,1292.5C264.4,1292.5,264.4,1292.5,264.4,1292.5
										C264.4,1292.5,264.4,1292.5,264.4,1292.5C264.4,1292.5,264.4,1292.5,264.4,1292.5L264.4,1292.5
										C264.4,1292.5,264.4,1292.5,264.4,1292.5L264.4,1292.5C264.4,1292.5,264.4,1292.5,264.4,1292.5L264.4,1292.5
										C264.4,1292.5,264.4,1292.5,264.4,1292.5L264.4,1292.5C264.4,1292.5,264.4,1292.5,264.4,1292.5L264.4,1292.5
										C264.4,1292.5,264.4,1292.5,264.4,1292.5C264.4,1292.5,264.4,1292.5,264.4,1292.5z"/>
								</g>
								<g>
									<path fill="#9C732D" d="M265.1,1292.4c0,0,0,0,0.2,0c0.2,0,0.2,0,0.2,0c0,0,0,0,0,0
										C265.5,1292.4,265.4,1292.4,265.1,1292.4c-0.1-0.1-0.4-0.2-0.4-0.1C264.7,1292.3,265.1,1292.4,265.1,1292.4
										C265.1,1292.4,265.1,1292.4,265.1,1292.4z"/>
								</g>
								<g>
									<path fill="#9C732D" d="M230.7,1290.8C230.7,1290.8,230.8,1290.8,230.7,1290.8C230.8,1290.8,230.8,1290.8,230.7,1290.8
										C230.8,1290.8,230.8,1290.8,230.7,1290.8C230.8,1290.8,230.8,1290.8,230.7,1290.8C230.7,1290.8,230.7,1290.8,230.7,1290.8
										c0.3,0,0.4,0,0.4-0.1c0,0,0,0,0,0c0,0,0,0,0,0C231,1290.7,230.7,1290.8,230.7,1290.8z"/>
								</g>
								<g>
									<path fill="#9C732D" d="M266.1,1292.9C266.1,1292.9,266.1,1292.9,266.1,1292.9L266.1,1292.9c0.1,0,0,0-0.1-0.1l0,0
										c-0.1,0-0.2-0.1-0.2-0.1C265.8,1292.8,265.9,1292.8,266.1,1292.9C266.1,1292.9,266.1,1292.9,266.1,1292.9z"/>
								</g>
								<g>
									<path fill="#9C732D" d="M266.7,1293.1c0.4,0.1,0.4,0.1,0.4,0.1c0,0,0,0-0.3-0.1c0,0-0.5-0.1-0.5-0.1
										C266.3,1292.9,266.3,1293,266.7,1293.1z"/>
								</g>
								<g>
									<path fill="#9C732D" d="M253.9,1293.8L253.9,1293.8C253.9,1293.8,254,1293.7,253.9,1293.8
										C253.9,1293.7,253.9,1293.7,253.9,1293.8c0-0.1-0.1-0.2-0.2-0.2c0,0,0,0,0,0C253.7,1293.7,253.8,1293.8,253.9,1293.8z"/>
								</g>
								<g>
									<path fill="#9C732D" d="M255.1,1293.9L255.1,1293.9c-0.1,0-0.1-0.1-0.2-0.1c-0.1,0-0.1,0,0,0.1
										C254.9,1293.9,255,1294,255.1,1293.9z"/>
								</g>
								<g>
									<path fill="#9C732D" d="M244.1,1295.2c0.3,0,0.5-0.1,0.5-0.1c0,0,0,0,0,0c-0.1-0.1-0.3-0.2-0.4-0.2c-0.4,0-0.5,0.2-0.5,0.2
										C243.8,1295.1,243.9,1295.2,244.1,1295.2L244.1,1295.2z"/>
								</g>
								<g>
									<path fill="#9C732D" d="M222,1293.6c-0.4,0.1-0.7,0.1-0.8,0.1c0,0,0,0,0,0c0,0,0,0,0-0.1c-0.5,0.2-0.5,0.2-0.6,0.2
										c0,0,0,0,0,0c0.4-0.2,0.7-0.3,0.7-0.3c0,0,0,0,0,0c-0.2,0-1.1,0.3-1.1,0.3c0.1,0,0.2,0,0.2,0c0,0,0,0,0,0
										c0,0-0.4,0.2-0.5,0.2c0,0,0,0,0,0c-0.2,0-0.3,0.1-0.4,0.2c-0.2,0.2-0.5,0.2-0.8,0.3c0,0,0,0,0,0.1c0,0.1-0.1,0.2,0.1,0.2
										c0,0,0.1,0,0.1,0c0.1,0,0.2,0,0.4-0.1c0.2-0.1,0.4,0,0.6,0c0.2,0,0.5-0.1,1-0.3c0.2-0.1,0.4-0.1,0.5-0.2c0,0,0,0,0,0
										C221.6,1293.8,221.8,1293.7,222,1293.6C222,1293.6,222,1293.6,222,1293.6z"/>
								</g>
								<g>
									<path fill="#9C732D" d="M219.6,1297C219.6,1297,219.6,1297,219.6,1297L219.6,1297C219.6,1297,219.6,1297,219.6,1297
										C219.6,1297,219.6,1297,219.6,1297L219.6,1297L219.6,1297L219.6,1297L219.6,1297C219.6,1297,219.6,1297,219.6,1297
										C219.6,1297,219.6,1297,219.6,1297L219.6,1297L219.6,1297L219.6,1297C219.6,1297,219.6,1297,219.6,1297
										C219.6,1297,219.6,1297,219.6,1297L219.6,1297C219.6,1297,219.6,1297,219.6,1297L219.6,1297L219.6,1297L219.6,1297
										C219.6,1297,219.6,1297,219.6,1297C219.6,1297,219.6,1297,219.6,1297C219.6,1297,219.6,1297,219.6,1297L219.6,1297
										L219.6,1297C219.5,1297,219.5,1297,219.6,1297C219.5,1297,219.5,1297,219.6,1297C219.5,1297,219.5,1297,219.6,1297l-0.1,0
										l0,0c0,0,0,0,0,0c0,0,0,0,0,0c0,0,0,0,0,0c0,0,0,0,0,0c0,0,0,0,0,0c0,0,0,0,0,0c0,0,0,0,0,0c0,0,0,0,0,0c0,0,0,0,0,0
										c0,0,0,0,0,0c0,0,0,0,0,0c0,0,0,0,0,0c0,0,0,0,0,0c0,0,0,0,0,0c0,0,0,0,0,0c0,0,0,0,0,0h0c0,0,0,0,0,0c0,0,0,0,0,0s0,0,0,0
										h0h0h0c0,0,0,0,0,0c0,0,0,0,0,0l0,0h0c0,0,0,0,0,0c0,0,0,0,0,0s0,0,0,0c0,0,0,0,0,0c0,0,0,0,0,0c0,0,0,0,0,0c0,0,0,0,0,0
										c0,0,0,0,0,0s0,0,0,0c0,0,0,0,0,0v0h0h0c0,0,0,0,0,0c0,0,0,0,0,0l0,0c0,0,0,0,0,0h0c0,0,0,0,0,0c0,0,0,0,0,0c0,0,0,0,0,0
										c0,0,0,0,0,0c0,0,0,0,0,0c0,0,0,0,0,0c0,0,0,0,0,0c0,0,0,0,0,0c0,0,0,0,0,0c0,0,0,0,0,0c0,0,0,0,0,0c0,0,0,0,0,0
										C219.5,1297.1,219.5,1297.1,219.6,1297C219.6,1297.1,219.6,1297,219.6,1297C219.6,1297,219.6,1297,219.6,1297
										C219.6,1297,219.6,1297,219.6,1297C219.6,1297,219.6,1297,219.6,1297C219.6,1297,219.6,1297,219.6,1297L219.6,1297
										L219.6,1297z"/>
								</g>
								<g>
									<path fill="#9C732D" d="M228.1,1298.2C228.1,1298.2,228.2,1298.2,228.1,1298.2C228.1,1298.2,228.1,1298.2,228.1,1298.2
										c-0.2,0-0.2-0.1-0.3-0.1c-0.1,0-0.2,0-0.3,0.1h0l0,0c0,0-0.1,0.1-0.1,0.1C227.7,1298.4,227.9,1298.3,228.1,1298.2z"/>
								</g>
								<g>
									<path fill="#9C732D" d="M216.3,1297.8C216.2,1297.8,216.2,1297.8,216.3,1297.8c-0.1,0-0.3,0-0.7,0.2c0.1,0.1,0.3,0,0.5-0.2
										C216.2,1297.8,216.2,1297.8,216.3,1297.8z"/>
								</g>
								<g>
									<path fill="#9C732D" d="M225.7,1299.6C225.7,1299.6,225.7,1299.6,225.7,1299.6C225.7,1299.6,225.7,1299.6,225.7,1299.6
										c0,0-0.1,0-0.2,0c-0.1,0-0.1,0-0.2,0c0,0,0,0,0,0c0,0,0,0,0,0c0,0,0,0,0,0c0,0,0,0,0,0c0,0,0,0,0,0c0,0,0,0,0,0
										c0,0,0,0,0,0c0,0,0,0,0,0c0,0,0,0,0,0c0,0,0,0,0,0c0,0,0,0,0,0c0,0,0,0,0,0c0,0,0,0,0,0c0,0,0,0,0,0c0,0,0,0,0,0
										c0,0,0,0,0,0c0,0,0,0.1,0,0.1C225,1300.1,225.5,1299.8,225.7,1299.6z"/>
								</g>
								<g>
									<path fill="#9C732D" d="M215,1298.3C215,1298.3,215.1,1298.3,215,1298.3C215.1,1298.3,215.1,1298.3,215,1298.3L215,1298.3
										C215.1,1298.3,215.1,1298.3,215,1298.3C215.1,1298.3,215.1,1298.3,215,1298.3C215.1,1298.3,215.1,1298.3,215,1298.3
										C215.1,1298.3,215.1,1298.3,215,1298.3C215.1,1298.3,215.1,1298.3,215,1298.3L215,1298.3
										C215.1,1298.3,215.1,1298.3,215,1298.3L215,1298.3L215,1298.3C215.1,1298.3,215.1,1298.3,215,1298.3
										C215.1,1298.3,215.1,1298.3,215,1298.3C215.1,1298.3,215.1,1298.3,215,1298.3C215.1,1298.3,215.1,1298.3,215,1298.3
										c0.1,0,0.1,0,0.1,0c0,0,0,0,0,0c0,0,0,0,0,0c0,0,0,0,0,0c0,0,0,0,0,0c0,0,0,0,0,0c0,0,0,0,0,0c0,0,0,0,0,0c0,0,0,0,0,0
										c0,0,0,0,0,0c0,0,0,0,0,0c0,0,0,0,0,0c0,0,0,0,0,0c0,0,0,0,0,0c0,0,0,0,0,0c0,0,0,0,0,0c0,0,0,0,0,0c0,0,0,0,0,0
										c0,0,0,0,0,0c0,0,0,0,0,0c0,0,0,0,0,0c0,0,0,0,0,0c0,0,0,0,0,0c0,0,0,0,0,0c0,0,0,0,0,0c0,0,0,0,0,0c0,0,0,0,0,0
										c0,0,0,0,0,0c0,0,0,0,0,0c0,0,0,0,0,0c0,0,0,0,0,0s0,0,0,0c0,0,0,0,0,0s0,0,0,0c0,0,0,0,0,0c0,0,0,0,0,0c0,0,0,0,0,0
										c0,0,0,0,0,0c0,0,0,0,0,0c0,0,0,0,0,0c0,0,0,0,0,0l0,0c0,0,0,0,0,0c0,0,0,0,0,0l0,0c0,0,0,0,0,0c0,0,0,0,0,0c0,0,0,0,0,0
										c0,0,0,0,0,0c0,0,0,0,0,0c0,0,0,0,0,0c0,0,0,0,0,0c0,0,0,0,0,0c0,0,0,0,0,0c0,0,0,0,0,0c0,0,0,0,0,0c0,0,0,0,0,0
										c0,0,0,0,0,0c0,0,0,0,0,0c0,0,0,0,0,0c0,0,0,0,0,0c0,0,0,0,0,0c0,0,0,0,0,0c0,0,0,0,0,0c0,0,0,0,0,0c0,0,0,0,0,0
										C215.1,1298.2,215.1,1298.2,215,1298.3C215.1,1298.2,215.1,1298.2,215,1298.3C215.1,1298.2,215.1,1298.2,215,1298.3
										C215.1,1298.2,215.1,1298.3,215,1298.3C215.1,1298.3,215.1,1298.3,215,1298.3C215.1,1298.3,215.1,1298.3,215,1298.3
										C215.1,1298.3,215.1,1298.3,215,1298.3C215.1,1298.3,215.1,1298.3,215,1298.3C215.1,1298.3,215.1,1298.3,215,1298.3
										C215.1,1298.3,215.1,1298.3,215,1298.3C215.1,1298.3,215,1298.3,215,1298.3C215,1298.3,215,1298.3,215,1298.3
										C215,1298.3,215,1298.3,215,1298.3C215,1298.3,215,1298.3,215,1298.3z"/>
								</g>
								<g>
									<path fill="#9C732D" d="M210.1,1301.5c0.4-0.1,0.5-0.1,0.6-0.1c0,0,0,0,0,0c0,0,0,0,0,0.1c1.1-0.7,1.2-0.7,1.6-1.1
										c0.2-0.1,0.5-0.2,0.7-0.3c0,0,0.8-0.5,0.1-0.6c0,0-0.1,0-0.1,0c-0.1,0-0.2,0-0.3,0c-0.3,0.1-0.5,0.4-0.8,0.5c0,0,0,0,0,0
										c0,0,0,0,0,0c0,0,0,0,0,0c0,0,0,0,0,0c0,0,0,0,0,0c0,0,0,0,0,0c0,0,0,0,0,0c0,0,0,0,0,0c-0.2,0.1-0.5,0.3-0.7,0.4
										c-0.1,0.1-0.2,0.3-0.4,0.4c-0.8,0.4-0.8,0.4-1.2,0.7C209.4,1301.4,209,1301.8,210.1,1301.5z"/>
								</g>
								<g>
									<path fill="#9C732D" d="M284.3,1302.9c-0.1-0.1-0.2-0.1-0.3-0.2c0.1,0.1,0.1,0.1,0.2,0.1c0.1,0.1,0.3,0.2,0.3,0.2l0,0
										C284.5,1303.1,284.3,1302.9,284.3,1302.9z"/>
								</g>
								<g>
									<path fill="#9C732D" d="M285.5,1303.3C285.5,1303.3,285.5,1303.3,285.5,1303.3C285.5,1303.3,285.5,1303.3,285.5,1303.3
										C285.4,1303.3,285.4,1303.3,285.5,1303.3C285.4,1303.3,285.4,1303.3,285.5,1303.3c-0.1-0.1-0.1-0.1-0.1-0.1c0,0,0,0,0,0
										c0,0,0,0,0,0c0,0,0,0,0,0c0,0,0,0,0,0c0,0,0,0,0,0c0,0,0,0,0,0c0,0,0,0,0,0c0,0,0,0,0,0c0,0,0,0,0,0v0c0,0,0,0,0,0l0,0l0,0
										c0,0,0,0,0,0v0c0,0,0,0,0,0l0,0v0h0l0,0v0h0l0,0v0v0l0,0c0,0,0,0,0,0c0,0,0,0,0,0c0,0,0,0,0,0c0,0,0,0,0,0c0,0,0,0,0,0
										c0,0,0,0,0,0c0,0,0,0,0,0c0,0,0,0,0,0c0,0,0,0,0,0c0,0,0,0,0,0C285.4,1303.3,285.4,1303.3,285.5,1303.3
										C285.4,1303.3,285.4,1303.3,285.5,1303.3C285.4,1303.3,285.4,1303.3,285.5,1303.3C285.5,1303.3,285.5,1303.3,285.5,1303.3
										C285.5,1303.3,285.5,1303.3,285.5,1303.3C285.5,1303.3,285.5,1303.4,285.5,1303.3C285.5,1303.4,285.5,1303.4,285.5,1303.3
										L285.5,1303.3C285.5,1303.4,285.5,1303.4,285.5,1303.3C285.5,1303.4,285.5,1303.4,285.5,1303.3L285.5,1303.3L285.5,1303.3
										L285.5,1303.3C285.5,1303.3,285.5,1303.3,285.5,1303.3L285.5,1303.3L285.5,1303.3C285.5,1303.3,285.5,1303.3,285.5,1303.3
										L285.5,1303.3L285.5,1303.3C285.5,1303.3,285.5,1303.3,285.5,1303.3L285.5,1303.3L285.5,1303.3
										C285.5,1303.3,285.5,1303.3,285.5,1303.3C285.5,1303.3,285.5,1303.3,285.5,1303.3z"/>
								</g>
								<g>
									<path fill="#9C732D" d="M294.2,1311.8C294.2,1311.8,294.2,1311.8,294.2,1311.8c0.2,0,0.3,0.2,0.5,0.2
										c-0.3-0.4-0.5-0.8-0.8-1.1c-0.2-0.2-0.2-0.3-0.5-0.5c0.1,0.1,0.1,0.1,0.1,0.1c-0.1,0-0.1-0.1-0.6-0.5
										c-0.3-0.2-0.5-0.4-0.7-0.6c0.1,0.1,0.2,0.2,0.5,0.6c0.6,0.7,1,1,1,1.2c0,0,0,0,0,0c0,0,0,0,0.6,0.9c0,0,0,0,0,0
										c0,0,0.1,0.1,0.4,0.5c0,0,0,0,0,0c0,0,0,0,0.1,0.1c0-0.1-0.2-0.5-0.4-0.6C294.5,1312.2,294.1,1311.9,294.2,1311.8z"/>
								</g>
								<g>
									<path fill="#9C732D" d="M211,1309.5c0.3-0.3,0.1-0.4,0-0.4c0,0,0,0,0,0l0,0c0,0,0,0,0,0c0,0,0,0,0,0l0,0c0,0,0,0,0,0l0,0
										c0,0,0,0,0,0c-0.7,0.4-0.8,0.9-0.6,1.1C210.6,1309.9,210.8,1309.7,211,1309.5z"/>
								</g>
								<g>
									<path fill="#9C732D" d="M208.9,1312l0.6-0.2c0,0,0,0,0,0c0.1-0.2,0.2-0.3,0.3-0.4c0.1-0.2,0.3-0.3,0.4-0.5
										c0.2-0.3,0.2-0.4,0.2-0.5h0l0,0l0,0h0c0,0,0,0,0,0l0,0c-0.3,0-0.7,0.1-1,0.3c0,0.1-0.1,0.3-0.4,0.7
										c-0.2,0.2-0.3,0.4-0.4,0.5C208.6,1311.9,208.7,1312,208.9,1312z"/>
								</g>
								<g>
									<path fill="#9C732D" d="M298.4,1321.1c0.1,0.1,0.1,0.1,0.7,1.2c0,0,0-0.1,0.1-0.1c0,0,0,0,0,0c0.1,0.1,0.1,0.2,0.2,0.2
										c-0.1-0.5-0.5-1.9-1.4-2.6c0,0,0.1,0,0.1,0h0c0,0,0,0,0,0c0.1,0,0.1-0.1,0.1-0.2c0.2,0.4,0.4,0.8,0.7,1.1c0,0,0,0,0,0
										c0.1-0.1-0.1-1-0.1-1c-0.1-0.3-0.4-0.5-0.5-0.7c0,0,0,0,0.1,0c0,0,0,0,0.1-0.1c0,0,0,0,0,0c0.1,0,0.1,0,0.2,0.2
										c0.3,0.6,0.3,0.6,0.5,0.8c0,0,0,0,0,0c-0.2-0.4-0.3-0.8-0.5-1.2c0.2,0.2,0.2,0.2,0.3,0.2c0-0.2-0.2-0.4-0.2-0.6
										c0.1,0.1,0.1,0.2,0.2,0.3c-0.1-0.2-0.2-0.4-0.3-0.7c0.3,0.4,0.3,0.4,0.3,0.5c0,0-1.9-3-2-3.2c0,0-0.2-0.3-0.4-0.6
										c-0.5-0.6-0.9-1.1-1.1-1.4c0,0-0.1,0-0.1,0c0,0,0,0.1,0.1,0.3c1.7,2,2,2.9,2.2,3.5c-0.2-0.2-0.3-0.4-0.5-0.6
										c0.4,0.7,0.8,1.3,0.9,1.7c0,0-0.1-0.1-0.2-0.1c-0.6-0.1,0.1,2.6,0.1,2.6C298,1320.9,298.2,1320.9,298.4,1321.1z"/>
								</g>
								<g>
									<path fill="#9C732D" d="M205.8,1311.2C205.9,1311.2,205.9,1311.2,205.8,1311.2C205.9,1311.1,205.9,1311.1,205.8,1311.2
										c0.2-0.3,0.2-0.4,0.1-0.4c0,0-0.2,0-0.5,0.2C205.5,1311.1,205.6,1311.2,205.8,1311.2z"/>
								</g>
								<g>
									<path fill="#9C732D" d="M219,1316.7C219,1316.7,219,1316.6,219,1316.7c-0.3-0.1-0.3-0.1-1.9-0.5
										C217.2,1316.7,218.5,1316.8,219,1316.7z"/>
								</g>
								<g>
									<path fill="#9C732D" d="M225.6,1317.2c0.1-0.1-0.1-0.2-0.1-0.2c-0.4,0.3-1.3-0.2-1.5,0.5
										C224.2,1318,225.4,1317.5,225.6,1317.2z"/>
								</g>
								<g>
									<path fill="#9C732D" d="M191.4,1319.1c0.1,0,0.3-0.2,0.3-0.3c0,0,0.2-0.3,0.1-0.4C191.7,1318.7,191.5,1318.9,191.4,1319.1
										C191.3,1319.1,191.3,1319.1,191.4,1319.1L191.4,1319.1z"/>
								</g>
								<g>
									<path fill="#9C732D" d="M190.7,1319.3C190.7,1319.3,190.7,1319.3,190.7,1319.3C190.7,1319.3,190.7,1319.3,190.7,1319.3
										C190.7,1319.3,190.7,1319.3,190.7,1319.3L190.7,1319.3C190.7,1319.3,190.7,1319.3,190.7,1319.3
										C190.7,1319.3,190.7,1319.3,190.7,1319.3L190.7,1319.3L190.7,1319.3L190.7,1319.3L190.7,1319.3
										C190.7,1319.3,190.7,1319.3,190.7,1319.3C190.7,1319.3,190.7,1319.3,190.7,1319.3C190.7,1319.3,190.7,1319.3,190.7,1319.3
										C190.7,1319.3,190.7,1319.3,190.7,1319.3C190.7,1319.3,190.7,1319.3,190.7,1319.3L190.7,1319.3
										C190.7,1319.3,190.7,1319.3,190.7,1319.3L190.7,1319.3L190.7,1319.3L190.7,1319.3C190.7,1319.3,190.7,1319.3,190.7,1319.3
										C190.7,1319.3,190.7,1319.3,190.7,1319.3C190.7,1319.3,190.7,1319.3,190.7,1319.3C190.7,1319.3,190.7,1319.3,190.7,1319.3
										L190.7,1319.3C190.7,1319.3,190.7,1319.3,190.7,1319.3C190.7,1319.3,190.7,1319.3,190.7,1319.3
										C190.7,1319.3,190.7,1319.3,190.7,1319.3C190.8,1319.3,190.8,1319.3,190.7,1319.3C190.8,1319.3,190.8,1319.3,190.7,1319.3
										c0.1,0,0.1,0,0.1,0c0,0,0,0,0,0c0,0,0,0,0,0c0,0,0,0,0,0c0,0,0,0,0,0c0,0,0,0,0,0c0,0,0,0,0,0c0,0,0,0,0,0c0,0,0,0,0,0
										c0,0,0,0,0,0c0,0,0,0,0,0c0,0,0,0,0,0c0,0,0,0,0,0c0,0,0,0,0,0c0,0,0,0,0,0c0,0,0,0,0,0c0,0,0,0,0,0h0c0,0,0,0,0,0
										c0,0,0,0,0,0c0,0,0,0,0,0l0,0c0,0,0,0,0,0c0,0,0,0,0,0l0,0c0,0,0,0,0,0h0h0c0,0,0,0,0,0l0,0c0,0,0,0,0,0c0,0,0,0,0,0
										c0,0,0,0,0,0c0,0,0,0,0,0c0,0,0,0,0,0h0c0,0,0,0,0,0c0,0,0,0,0,0h0c0,0,0,0,0,0h0h0h0c0,0,0,0,0,0c0,0,0,0,0,0c0,0,0,0,0,0
										c0,0,0,0,0,0l0,0c0,0,0,0,0,0c0,0,0,0,0,0c0,0,0,0,0,0c0,0,0,0,0,0c0,0,0,0,0,0c0,0,0,0,0,0c0,0,0,0,0,0c0,0,0,0,0,0
										c0,0,0,0,0,0c0,0,0,0,0,0c0,0,0,0,0,0C190.7,1319.2,190.7,1319.2,190.7,1319.3C190.7,1319.2,190.7,1319.2,190.7,1319.3
										C190.7,1319.2,190.7,1319.2,190.7,1319.3C190.7,1319.2,190.7,1319.2,190.7,1319.3C190.7,1319.2,190.7,1319.3,190.7,1319.3
										C190.7,1319.3,190.7,1319.3,190.7,1319.3C190.7,1319.3,190.7,1319.3,190.7,1319.3z"/>
								</g>
								<g>
									<path fill="#9C732D" d="M298.6,1328.4c-0.4,0.5,0,2.7,0.9,3.3c-0.2-0.8-0.2-1.6-0.4-2.4
										C298.9,1328.8,298.7,1328.5,298.6,1328.4z"/>
								</g>
								<g>
									<path fill="#9C732D" d="M303,1339.7C303,1339.7,303,1339.7,303,1339.7C303,1339.7,303,1339.7,303,1339.7
										C303,1339.8,303,1339.8,303,1339.7C303,1339.8,303,1339.8,303,1339.7c0,0.1,0,0.1,0,0.1c0,0,0,0,0,0c0,0,0,0,0,0
										c0,0,0,0,0,0c0,0,0,0,0,0c0,0,0,0,0,0c0,0,0,0,0,0c0,0,0,0,0,0c0,0,0,0,0,0c0,0,0,0,0,0c0,0,0,0,0,0s0,0,0,0h0c0,0,0,0,0,0
										c0,0,0,0,0,0l0,0c0,0,0,0,0,0v0c0,0,0,0,0,0c0,0,0,0,0,0v0h0c0,0,0,0,0,0h0c0,0,0,0,0,0h0c0,0,0,0,0,0h0c0,0,0,0,0,0h0
										c0,0,0,0,0,0c0,0,0,0,0,0s0,0,0,0h0c0,0,0,0,0,0c0,0,0,0,0,0c0,0,0,0,0,0c0,0,0,0,0,0v0c0,0,0,0,0,0h0c0,0,0,0,0,0
										c0,0,0,0,0,0c0,0,0,0,0,0c0,0,0,0,0,0c0,0,0,0,0,0c0,0,0,0,0,0c0,0,0,0,0,0c0,0,0,0,0,0c0,0,0,0,0,0c0,0,0,0,0,0
										c0,0,0,0,0,0c0,0,0,0,0,0c0,0,0,0,0,0c0,0,0,0,0,0c0,0,0,0,0,0c0,0,0,0,0,0c0,0,0,0,0,0h0c0,0,0,0,0,0l0,0c0,0,0,0,0,0l0,0
										c0,0,0,0,0,0c0,0,0,0,0,0C303.1,1339.6,303.1,1339.6,303,1339.7C303.1,1339.6,303.1,1339.6,303,1339.7
										C303,1339.6,303,1339.6,303,1339.7L303,1339.7C303,1339.6,303,1339.6,303,1339.7C303,1339.6,303,1339.6,303,1339.7
										C303,1339.6,303,1339.6,303,1339.7L303,1339.7C303,1339.6,303,1339.6,303,1339.7C303,1339.6,303,1339.6,303,1339.7
										L303,1339.7C303,1339.6,303,1339.6,303,1339.7L303,1339.7C303,1339.6,303,1339.6,303,1339.7L303,1339.7
										C303,1339.6,303,1339.6,303,1339.7L303,1339.7C303,1339.6,303,1339.6,303,1339.7L303,1339.7
										C303,1339.7,303,1339.7,303,1339.7L303,1339.7C303,1339.7,303,1339.7,303,1339.7L303,1339.7
										C303,1339.7,303,1339.7,303,1339.7C303,1339.7,303,1339.7,303,1339.7C303,1339.7,303,1339.7,303,1339.7
										C303,1339.7,303,1339.7,303,1339.7z"/>
								</g>
								<g>
									<path fill="#9C732D" d="M281.7,1341.9c-0.1,0.6-0.1,0.9,0.2,1.2c0-0.4,0.1-0.9,0.1-1.3c0-0.5-0.2-0.6-0.3-0.7
										C281.8,1341.3,281.8,1341.6,281.7,1341.9z"/>
								</g>
								<g>
									<path fill="#9C732D" d="M302,1341.2c-0.1-0.4-0.2-0.9-0.5-0.9c0,0-0.1,0-0.1,0c0.1,0.7,0.3,1.2,0.6,1.4
										C302,1341.8,302.1,1341.6,302,1341.2z"/>
								</g>
								<g>
									<path fill="#9C732D" d="M240.9,1340.6c-0.2,0-0.2,0-0.3,0c-0.1,0-0.2,0-0.3,0c0,0,0,0,0,0s0,0,0,0
										c-0.1,0.1-0.1,0.2-0.1,0.3c0.1,0,0.2,0,0.3,0c0.5,0,0.8,0,0.9-0.3c0,0,0,0,0-0.1C241.4,1340.6,241.2,1340.6,240.9,1340.6z"
										/>
								</g>
								<g>
									<path fill="#9C732D" d="M303.7,1342.4C303.7,1342.4,303.6,1342.4,303.7,1342.4c-0.1-0.1-0.2-0.1-0.2-0.1c0,0,0,0.2,0,0.2
										c0,0.1,0.1,0.1,0.1,0.2c0.1,0.1,0.1,0.2,0.1,0.5c0.1,0.4,0.2,0.5,0.3,0.6c0-0.5,0-1.1-0.1-1.6c-0.1-0.9-0.3-1-0.5-1
										c0,0,0,0,0,0c0,0-0.1,0-0.1,0c0,0.3,0.1,0.4,0.2,0.6C303.6,1341.9,303.7,1342,303.7,1342.4z"/>
								</g>
								<g>
									<path fill="#9C732D" d="M302.9,1341.4c0,0.1,0.1,0.5,0.2,0.6c0.1,0.1,0.2-0.1,0.1-0.2
										C303.2,1341.6,303.2,1341.4,302.9,1341.4z"/>
								</g>
								<g>
									<path fill="#9C732D" d="M301.6,1342.2C301.6,1342.2,301.6,1342.2,301.6,1342.2C301.6,1342.2,301.6,1342.2,301.6,1342.2
										C301.6,1342.1,301.6,1342.1,301.6,1342.2C301.6,1342.1,301.6,1342.1,301.6,1342.2c0-0.1,0-0.1,0-0.1c0,0,0,0,0,0
										c0,0,0,0,0,0c0,0,0,0,0,0c0,0,0,0,0,0s0,0,0,0c0,0,0,0,0,0c0,0,0,0,0,0c0,0,0,0,0,0c0,0,0,0,0,0c0,0,0,0,0,0c0,0,0,0,0,0
										c0,0,0,0,0,0c0,0,0,0,0,0c0,0,0,0,0,0c0,0,0,0,0,0c0,0,0,0,0,0c0,0,0,0,0,0c0,0,0,0,0,0c0,0,0,0,0,0c0,0,0,0,0,0
										c0,0,0,0,0,0c0,0,0,0,0,0c0,0,0,0,0,0c0,0,0,0,0,0c0,0,0,0,0,0c0,0,0,0,0,0c0,0,0,0,0,0c0,0,0,0,0,0c0,0,0,0,0,0
										c0,0,0,0,0,0c0,0,0,0,0,0c0,0,0,0,0,0c0,0,0,0,0,0c0,0,0,0,0,0c0,0,0,0,0,0c0,0,0,0,0,0c0,0,0,0,0,0c0,0,0,0,0,0
										c0,0,0,0,0,0s0,0,0,0c0,0,0,0,0,0c0,0,0,0,0,0c0,0,0,0,0,0c0,0,0,0,0,0c0,0,0,0,0,0
										C301.5,1342.3,301.5,1342.3,301.6,1342.2C301.5,1342.3,301.5,1342.3,301.6,1342.2C301.5,1342.3,301.5,1342.3,301.6,1342.2
										C301.5,1342.3,301.5,1342.3,301.6,1342.2C301.5,1342.3,301.5,1342.3,301.6,1342.2C301.5,1342.3,301.5,1342.3,301.6,1342.2
										L301.6,1342.2C301.5,1342.3,301.5,1342.3,301.6,1342.2C301.5,1342.3,301.6,1342.3,301.6,1342.2
										C301.6,1342.3,301.6,1342.3,301.6,1342.2C301.6,1342.3,301.6,1342.3,301.6,1342.2C301.6,1342.3,301.6,1342.3,301.6,1342.2
										C301.6,1342.2,301.6,1342.2,301.6,1342.2C301.6,1342.2,301.6,1342.2,301.6,1342.2z"/>
								</g>
								<g>
									<path fill="#9C732D" d="M303.7,1345.7c0,0-0.2,0-0.3-0.2c0,0.2-0.1,0.2-0.2,0.5c-0.2,0.3-0.3,0.5-0.3,1.3
										c0.1-0.4,0.2-0.4,0.4-0.5c0.2-0.1,0.2-0.1,0.3-0.3c0.2,0.1,0.2,0.3,0.2,1.1c0,0.1,0,0.1,0,0.2c0,0,0.5,0.9,0.7,0.7
										c0,0,0.1-0.1,0-0.7c-0.1-0.4-0.1-0.5,0-0.7c0,0,0,0,0.1-0.1c0.2,0.1,0,0.3,0.2,0.4c0.1,0,0.1,0,0.1-0.9
										c0-0.3-0.1-2-0.6-2.3C304.3,1345.6,303.8,1345.7,303.7,1345.7z"/>
								</g>
								<g>
									<path fill="#9C732D" d="M296.2,1359.3c0.3-0.1,0.1-0.4,0.3-0.6c0.2,0.6,0.2,0.6,1.3,0.1c0.1,0.2,0.1,0.2,0.3,0.3
										c0.3,0.1,0.5,0.2,0.3,0.8c0.3-0.2,0.4-0.5,0.8-0.6c0.1,0,0.2,0.1,0.3,0.2c0-0.8,0.5-1.6,0.4-2.5c0.2-0.3,0.4-0.6,0.7-0.8
										c0-0.9,0-0.9,0.1-1.8c0.3,0.1,0.4-0.2,0.6-0.3c0,0,0.1,0,0.1,0c0,0-1.1-3.3,0.1-3.9c-0.3-0.5-0.3-0.5-0.4-0.5c0,0,0,0,0,0
										c0,0,0,0,0,0c0,0,0,0,0,0c0,0,0,0,0,0c0,0,0,0,0,0c0,0,0,0,0,0c0,0,0,0,0,0c0,0,0,0,0,0c0.3,0,0.5-0.1,0.5-0.6c0,0,0,0,0,0
										c0,0,0,0,0,0l0,0c0,0,0,0,0,0c0,0,0,0,0,0c0,0,0,0,0,0v0h0h0c-1,0-0.6-1.3-1.3-1.6c-0.4,1.2-0.9,2.4-0.9,2.4
										c-0.1,0.2-0.4,0.3-0.5,0.5c-0.3,0.4-0.4,0.8-0.6,1.2c-0.1,0.1-0.2,0.3-0.2,0.3c-0.1,0.1-0.4,0.4-0.8,0.4c0,0-0.1,0-0.1,0
										c-0.3,0.3,0,0.8-0.3,1.2c-0.1,0-0.1,0-0.3,0c-0.3,0-0.5,0-0.8-0.2c-0.4,0.8-0.4,0.8-0.2,3.7
										C296.6,1357.1,295.1,1358.8,296.2,1359.3z"/>
								</g>
								<g>
									<path fill="#9C732D" d="M195.6,1346.6c0,0,0.1-0.1,0.1-0.3c0,0,0-0.3-0.1-0.3c0,0,0,0,0,0c0,0.1,0,0.2-0.1,0.2c0,0,0,0,0,0
										c0,0,0,0,0,0c0,0,0,0,0,0c0,0,0,0,0,0c0,0,0,0,0,0c0,0,0,0,0,0c0,0,0,0,0,0c0,0,0,0,0,0c0,0,0,0,0,0c0,0,0,0,0,0
										c0,0,0,0,0,0c0,0,0,0,0,0c0,0,0,0,0,0c0,0,0,0,0,0c0,0,0,0,0,0c0,0,0,0,0,0c0,0,0,0,0,0
										C195.4,1346.6,195.5,1346.7,195.6,1346.6z"/>
								</g>
								<g>
									<path fill="#9C732D" d="M305.5,1352.3C305.5,1352.3,305.6,1352.3,305.5,1352.3C305.6,1352.3,305.6,1352.3,305.5,1352.3
										C305.6,1352.3,305.6,1352.3,305.5,1352.3C305.6,1352.3,305.6,1352.3,305.5,1352.3C305.6,1352.3,305.6,1352.3,305.5,1352.3
										C305.6,1352.3,305.6,1352.3,305.5,1352.3C305.6,1352.3,305.6,1352.3,305.5,1352.3C305.6,1352.3,305.6,1352.3,305.5,1352.3
										c0.1,0,0.1,0,0.1,0c0,0,0,0,0,0c0,0,0,0,0,0c0,0,0,0,0,0c0,0,0,0,0,0c0,0,0,0,0,0c0,0,0,0,0,0c0,0,0,0,0,0c0,0,0,0,0,0
										c0,0,0,0,0,0c0,0,0,0,0,0c0,0,0,0,0,0c0,0,0,0,0,0c0,0,0,0,0,0c0,0,0,0,0,0c0,0,0,0,0,0c0,0,0,0,0,0c0,0,0,0,0,0
										c0,0,0,0,0,0c0,0,0,0,0,0c0,0,0,0,0,0c0,0,0,0,0,0c0,0,0,0,0,0c0,0,0,0,0,0c0,0,0,0,0,0c0,0,0,0,0,0c0,0,0,0,0,0
										c0,0,0,0,0,0c0,0,0,0,0,0c0,0,0,0,0,0c0,0,0,0,0,0c0,0,0,0,0,0c0,0,0,0,0,0c0,0,0,0,0,0c0,0,0,0,0,0c0,0,0,0,0,0
										c0,0,0,0,0,0c0,0,0,0,0,0c0,0,0,0,0,0c0,0,0,0,0,0c0,0,0,0,0,0c0,0,0,0,0,0c0,0,0,0,0,0c0,0,0,0,0,0s0,0,0,0c0,0,0,0,0,0
										c0,0,0,0,0,0c0,0,0,0,0,0c0,0,0,0,0,0C305.5,1352.2,305.5,1352.2,305.5,1352.3C305.5,1352.2,305.5,1352.2,305.5,1352.3
										C305.5,1352.2,305.5,1352.2,305.5,1352.3C305.5,1352.3,305.5,1352.3,305.5,1352.3C305.5,1352.3,305.5,1352.3,305.5,1352.3
										C305.5,1352.3,305.5,1352.3,305.5,1352.3C305.5,1352.3,305.5,1352.3,305.5,1352.3z"/>
								</g>
								<g>
									<path fill="#9C732D" d="M305.1,1355.4c0,0,0.1,0,0.1-0.1c0.1-0.1,0.1-0.1,0.1-0.1c0-0.7,0-1.1,0.2-1.1c0,0,0,0,0,0
										c0.1,0,0.1,0,0.1,0.1c0-0.1,0.1-0.3,0.1-0.6c0-0.3,0-0.5,0-0.8c-0.1,0.3-0.1,0.3-0.1,0.3c0,0,0-0.1-0.1-0.4
										c0-0.2,0-0.2,0-0.3c0,0.1-0.1,0.3-0.1,0.6c0,0.6,0,1.1,0,1.7c0,0.1-0.2,0.2-0.3,0.3
										C304.9,1355.4,305.1,1355.4,305.1,1355.4z"/>
								</g>
								<g>
									<path fill="#9C732D" d="M286.2,1354.2c-0.1,0-0.1,0-0.2,0c0,0.2,0,0.7,0.5,0.8c0,0,0,0,0,0
										C286.6,1354.5,286.5,1354.2,286.2,1354.2z"/>
								</g>
								<g>
									<path fill="#9C732D" d="M306.4,1354.8c0,0,0-0.1,0-0.1c0-0.1,0-0.3-0.1-0.3c-0.1,0-0.1,0.1-0.1,0.3c0,0,0.1,0.1,0.1,0.2
										C306.3,1354.9,306.4,1354.8,306.4,1354.8z"/>
								</g>
								<g>
									<path fill="#9C732D" d="M287.6,1357.4c0-0.2,0-0.6-0.3-0.7c-0.4,0.4-0.1,0.8,0.2,1C287.5,1357.6,287.6,1357.5,287.6,1357.4
										z"/>
								</g>
								<g>
									<path fill="#9C732D" d="M305.2,1356.2C305.2,1356.2,305.2,1356.2,305.2,1356.2C305.2,1356.2,305.2,1356.2,305.2,1356.2
										C305.2,1356.2,305.2,1356.2,305.2,1356.2C305.2,1356.2,305.2,1356.2,305.2,1356.2C305.2,1356.2,305.2,1356.2,305.2,1356.2
										C305.1,1356.2,305.1,1356.2,305.2,1356.2L305.2,1356.2C305.1,1356.2,305.1,1356.2,305.2,1356.2
										C305.1,1356.2,305.1,1356.2,305.2,1356.2C305.1,1356.2,305.1,1356.2,305.2,1356.2C305.1,1356.2,305.1,1356.2,305.2,1356.2
										C305.1,1356.2,305.1,1356.2,305.2,1356.2l-0.1,0c0,0,0,0,0,0c0,0,0,0,0,0c0,0,0,0,0,0c0,0,0,0,0,0c0,0,0,0,0,0c0,0,0,0,0,0
										c0,0,0,0,0,0c0,0,0,0,0,0c0,0,0,0,0,0c0,0,0,0,0,0c0,0,0,0,0,0c0,0,0,0,0,0c0,0,0,0,0,0c0,0,0,0,0,0c0,0,0,0,0,0
										c0,0,0,0,0,0c0,0,0,0,0,0c0,0,0,0,0,0c0,0,0,0,0,0c0,0,0,0,0,0c0,0,0,0,0,0c0,0,0,0,0,0c0,0,0,0,0,0c0,0,0,0,0,0
										c0,0,0,0,0,0c0,0,0,0,0,0c0,0,0,0,0,0c0,0,0,0,0,0c0,0,0,0,0,0c0,0,0,0,0,0c0,0,0,0,0,0c0,0,0,0,0,0c0,0,0,0,0,0
										c0,0,0,0,0,0c0,0,0,0,0,0c0,0,0,0,0,0c0,0,0,0,0,0c0,0,0,0,0,0c0,0,0,0,0,0c0,0,0,0,0,0c0,0,0,0,0,0c0,0,0,0,0,0
										c0,0,0,0,0,0c0,0,0,0,0,0c0,0,0,0,0,0c0,0,0,0,0,0c0,0,0,0,0,0c0,0,0,0,0,0c0,0,0,0,0,0c0,0,0,0,0,0c0,0,0,0,0,0
										c0,0,0,0,0,0c0,0,0,0,0,0c0,0,0,0,0,0c0,0,0,0,0,0c0,0,0,0,0,0c0,0,0,0,0,0c0,0,0,0,0,0c0,0,0,0,0,0c0,0,0,0,0,0
										c0,0,0,0,0,0c0,0,0,0,0,0c0,0,0,0,0,0c0,0,0,0,0,0c0,0,0,0,0,0c0,0,0,0,0,0c0,0,0,0,0,0c0,0,0,0,0,0c0,0,0,0,0,0
										c0,0,0,0,0,0c0,0,0,0,0,0C305.2,1356.3,305.2,1356.3,305.2,1356.2C305.2,1356.3,305.2,1356.3,305.2,1356.2
										C305.2,1356.3,305.2,1356.3,305.2,1356.2C305.2,1356.3,305.2,1356.3,305.2,1356.2C305.2,1356.2,305.2,1356.2,305.2,1356.2
										C305.2,1356.2,305.2,1356.2,305.2,1356.2C305.2,1356.2,305.2,1356.2,305.2,1356.2C305.2,1356.2,305.2,1356.2,305.2,1356.2
										C305.2,1356.2,305.2,1356.2,305.2,1356.2C305.2,1356.2,305.2,1356.2,305.2,1356.2C305.2,1356.2,305.2,1356.2,305.2,1356.2
										C305.2,1356.2,305.2,1356.2,305.2,1356.2z"/>
								</g>
								<g>
									<path fill="#9C732D" d="M303.8,1356.9c0,0.1,0.1,0.1,0.2-0.2c0,0,0,0,0,0c-0.1,0-0.1,0-0.1,0
										C303.8,1356.7,303.8,1356.9,303.8,1356.9z"/>
								</g>
								<g>
									<path fill="#9C732D" d="M306,1356.5C306,1356.4,306,1356.4,306,1356.5c-0.1,0-0.2,0-0.2,0.3c0,0,0,0,0,0c0,0,0,0.1,0,0.1
										c0,0,0,0,0,0C305.9,1356.8,305.9,1356.8,306,1356.5z"/>
								</g>
								<g>
									<path fill="#9C732D" d="M294.5,1358.7c0-0.1,0-0.2,0-0.3c-0.1,0-0.1,0-0.2,0c-0.4,0-0.5,0.2-0.4,0.8
										C294.2,1359.1,294.5,1359.1,294.5,1358.7z"/>
								</g>
								<g>
									<path fill="#9C732D" d="M304.5,1358.2C304.5,1358.2,304.4,1358.2,304.5,1358.2c-0.1,0-0.2,0-0.2,0c0,0,0,0,0,0c0,0,0,0,0,0
										c0,0,0,0,0,0c0,0.2,0,0.4,0.1,0.6c0.1,0.1,0.1,0.1,0.2,0c0.1-0.1,0.1-0.1,0.1-0.3c0,0,0,0,0,0
										C304.8,1358.2,304.6,1358.2,304.5,1358.2z"/>
								</g>
								<g>
									<path fill="#9C732D" d="M306.2,1361.8C306.2,1361.8,306.2,1361.8,306.2,1361.8C306.2,1361.8,306.2,1361.8,306.2,1361.8
										C306.3,1361.8,306.3,1361.8,306.2,1361.8C306.3,1361.8,306.3,1361.8,306.2,1361.8C306.3,1361.8,306.3,1361.8,306.2,1361.8
										C306.3,1361.8,306.3,1361.8,306.2,1361.8C306.3,1361.8,306.3,1361.8,306.2,1361.8c0.1,0,0.1,0,0.1,0c0,0,0,0,0,0
										c0,0,0,0,0,0l0,0c0,0,0,0,0,0c0,0,0,0,0,0c0,0,0,0,0,0c0,0,0-0.1,0-0.1c0,0,0,0,0,0c0,0,0,0,0,0c0,0,0,0,0,0
										c0.2-0.9,0.2-1.3,0.2-1.5C306.5,1360.6,306.3,1361.1,306.2,1361.8C306.2,1361.9,306.2,1361.9,306.2,1361.8
										C306.2,1361.9,306.2,1361.9,306.2,1361.8z"/>
								</g>
								<g>
									<path fill="#9C732D" d="M223.5,1359.5c-0.1,0.2,0,0.5,0,0.5c0.1,0.1,0.3,0.2,0.3-0.1c0,0,0,0,0,0
										C223.6,1359.8,223.7,1359.5,223.5,1359.5z"/>
								</g>
								<g>
									<path fill="#9C732D" d="M292.4,1363.3c0.1,0.3,0.2,0.5,0.6,0.5c0.1,0,0.1,0,1,0c0.3,0,0.4,0,0.6,0c0.3,0.1,0.5,0.4,0.8,0.5
										c0,0,0.4,0.1,1.3,0.2c1.2,0.1,1.4,0.1,1.6-0.4c0,0,0,0,0,0c-0.8-0.2-1.1-0.4-1.5-0.8c0.1-0.2,0.2-0.2,0.4-0.2
										c0.2,0,0.4,0,0.4-0.3c0,0,0,0,0,0c0,0,0,0,0,0c-0.2,0.1-0.3,0.1-0.4,0.1c0,0,0,0,0,0c-0.3,0-0.4,0-0.7-0.2
										c-0.6-0.2-0.9-0.3-1.3,0.4c-0.9-0.1-1.4-0.9-2.3-1c-0.4,0-0.8,0.3-1.1,1c0.1-0.1,0.1-0.1,0.2-0.1
										C292.3,1362.9,292.3,1363.1,292.4,1363.3z"/>
								</g>
								<g>
									<path fill="#9C732D" d="M303.7,1362.9L303.7,1362.9C303.7,1362.9,303.7,1362.9,303.7,1362.9
										C303.7,1362.9,303.7,1362.9,303.7,1362.9C303.7,1362.9,303.6,1362.9,303.7,1362.9C303.6,1362.9,303.6,1362.9,303.7,1362.9
										C303.6,1362.9,303.6,1362.9,303.7,1362.9C303.6,1362.9,303.6,1362.9,303.7,1362.9C303.6,1362.9,303.6,1362.9,303.7,1362.9
										C303.6,1362.9,303.6,1362.9,303.7,1362.9C303.6,1362.9,303.6,1362.9,303.7,1362.9C303.6,1362.9,303.6,1362.9,303.7,1362.9
										C303.6,1362.9,303.6,1362.9,303.7,1362.9c-0.1,0-0.1,0-0.1,0c0,0,0,0,0,0c0,0.1-0.1,0.3-0.1,0.4c0.1,0,0.2-0.1,0.2-0.3
										C303.7,1363,303.7,1362.9,303.7,1362.9C303.7,1362.9,303.7,1362.9,303.7,1362.9C303.7,1362.9,303.7,1362.9,303.7,1362.9z"
										/>
								</g>
								<g>
									<path fill="#9C732D" d="M300.2,1364.3C300.2,1364.3,300.2,1364.2,300.2,1364.3c-0.1-0.2-0.2-0.3-0.3-0.2
										c-0.4,0-0.6,0.4-1,0.5c0,0,0-0.1-0.1-0.2c-0.1-0.1-0.3-0.1-0.3,0.4c0.3,0.1,0.5,0.1,0.9,0.1h0c0,0,0,0,0,0c0,0,0,0,0,0
										c0,0,0,0,0,0h0c0,0,0,0,0,0c0,0,0,0,0,0c0,0,0,0,0,0c0,0,0,0,0,0c0,0,0,0,0,0c0-0.1,0-0.3,0-0.4c0-0.1,0-0.1,0.1-0.2
										c0,0.1,0,0.1,0,0.2C299.7,1364.7,300,1364.7,300.2,1364.3z"/>
								</g>
								<g>
									<path fill="#9C732D" d="M302.9,1363.9c0,0,0.1-0.1,0.1-0.2v0c0,0,0,0,0,0c0,0,0,0-0.1,0c0,0,0,0,0,0c-0.1,0-0.1,0-0.2,0
										c-0.1,0-0.1,0.1-0.1,0.2c0,0,0,0,0,0c0,0,0,0,0,0c0,0,0,0,0.1,0c0,0,0,0,0.1,0C302.8,1363.9,302.8,1363.9,302.9,1363.9z"/>
								</g>
								<g>
									<path fill="#9C732D" d="M303.7,1363.8C303.7,1363.8,303.7,1363.8,303.7,1363.8C303.7,1363.8,303.7,1363.8,303.7,1363.8
										c-0.6,0.1-1.6,0.8-1.8,2.2C302.4,1365.3,303.1,1364.6,303.7,1363.8C303.7,1363.8,303.7,1363.8,303.7,1363.8
										C303.7,1363.8,303.7,1363.8,303.7,1363.8C303.7,1363.8,303.7,1363.8,303.7,1363.8z"/>
								</g>
								<g>
									<path fill="#9C732D" d="M300.6,1365.4c-0.2-0.3-0.3-0.3-0.4-0.3c-0.2,0-0.3,0.3-0.4,0.4c0.1,0,0.2,0.1,0.3,0.2
										c0.2,0.2,0.3,0.4,0.6-0.1c0,0,0-0.1,0-0.1C300.7,1365.5,300.7,1365.5,300.6,1365.4z"/>
								</g>
								<g>
									<path fill="#9C732D" d="M232.6,1368.4C232.5,1368.4,232.5,1368.4,232.6,1368.4c-0.4,1.6-1.1,1.7-3.8,2.2
										c-0.6,1.1-0.3,2.3,0.2,3.8c-0.3,0.5-0.7,0.9-1,1.3c-0.6,1.1,0.8,3.5,0.8,3.5c0.2,0.2,0.9,0.5,2.9-0.1
										c0.8-3,2.7-5.7,2.5-8.9c0,0,0.1,0,0.1,0c0,0,0,0,0.1,0c0.3,0.1,0.5,0.5,0.8,0.2c0,0,0,0,0,0c-0.3-2.1-0.5-2.8-1.2-3.6
										C233.5,1367.4,233.6,1368.4,232.6,1368.4z"/>
								</g>
								<g>
									<path fill="#9C732D" d="M293.5,1388.4C293.5,1388.4,293.5,1388.4,293.5,1388.4C293.5,1388.4,293.5,1388.4,293.5,1388.4
										C293.5,1388.4,293.5,1388.4,293.5,1388.4C293.5,1388.4,293.5,1388.4,293.5,1388.4L293.5,1388.4
										C293.4,1388.4,293.4,1388.4,293.5,1388.4C293.4,1388.4,293.4,1388.4,293.5,1388.4C293.4,1388.4,293.4,1388.4,293.5,1388.4
										C293.4,1388.4,293.4,1388.4,293.5,1388.4C293.4,1388.4,293.4,1388.4,293.5,1388.4C293.4,1388.4,293.4,1388.4,293.5,1388.4
										L293.5,1388.4C293.4,1388.4,293.4,1388.4,293.5,1388.4C293.4,1388.4,293.4,1388.4,293.5,1388.4
										C293.4,1388.4,293.4,1388.4,293.5,1388.4C293.4,1388.4,293.4,1388.4,293.5,1388.4C293.4,1388.4,293.4,1388.4,293.5,1388.4
										C293.4,1388.4,293.4,1388.4,293.5,1388.4C293.4,1388.4,293.4,1388.4,293.5,1388.4c-0.1,0-0.1,0-0.1,0c0,0,0,0,0,0
										c0,0,0,0,0,0l0,0c0,0,0,0,0,0c0,0,0,0,0,0c0,0,0,0,0,0c0,0,0,0,0,0c0,0,0,0,0,0h0c0,0,0,0,0,0c0,0,0,0,0,0c0,0,0,0,0,0
										c0,0,0,0,0,0c0,0,0,0,0,0c0,0,0,0,0,0c0,0,0,0,0,0c0,0,0,0,0,0c0,0,0,0,0,0c0,0,0,0,0,0c0,0,0,0,0,0c0,0,0,0,0,0
										c0,0,0,0,0,0c0,0,0,0,0,0c0,0,0,0,0,0l0,0c0,0,0,0,0,0c0,0,0,0,0,0c0,0,0,0,0,0l0,0c0,0,0,0,0,0c0,0,0,0,0,0c0,0,0,0,0,0
										c0,0,0,0,0,0h0c0,0,0,0,0,0c0,0,0,0,0,0c0,0,0,0,0,0c0,0,0,0,0,0l0,0c0,0,0,0,0,0c0,0,0,0,0,0c0,0,0,0,0,0c0,0,0,0,0,0
										c0,0,0,0,0,0l0,0c0,0,0,0,0,0c0,0,0,0,0,0l0,0c0,0,0,0,0,0c0,0,0,0,0,0c0,0,0,0,0,0c0,0,0,0,0,0c0,0,0,0,0,0c0,0,0,0,0,0
										C293.4,1388.5,293.4,1388.5,293.5,1388.4C293.4,1388.5,293.4,1388.4,293.5,1388.4C293.4,1388.4,293.4,1388.4,293.5,1388.4
										C293.5,1388.4,293.5,1388.4,293.5,1388.4C293.5,1388.4,293.5,1388.4,293.5,1388.4L293.5,1388.4z"/>
								</g>
								<g>
									<path fill="#9C732D" d="M262.9,1406.9c-0.1,0-0.2-0.1-0.3-0.1c0.1,0,0.1-0.1,0.2-0.2c-1.5,0-3.1,0.2-4.6,0.1
										c0.1-0.3,0.1-0.3,0.6-0.5c-0.6,0.1-1.1,0.2-2,0.7c-0.5,0.1-0.6,0.1-1,0.1c0,0,0,0-0.1,0c-0.5,0-0.6,0-1,0c0,0,0,0-0.1,0
										c-0.1,0-0.2,0-0.2,0c-0.1-0.1-0.2-0.2-0.3-0.3c-1.1,0.2-1.6,0.3-2.3,0.3c-0.1,0-0.3,0-0.4,0c-0.3,0.1-0.7,0.2-1,0.4
										c-0.1,0-0.3,0-0.5,0c-0.1,0-0.2,0-0.3,0c-0.2,0-0.4,0.1-0.5,0.1c0,0-3.2,0.3-3.6-0.4c-0.3,0-0.5,0-0.8,0c0,0,0,0,0,0
										c0,0,0,0,0,0c0,0,0,0,0,0c0,0,0,0,0,0c0,0,0,0,0,0c0,0,0,0,0,0c0,0,0,0,0,0c0,0,0,0,0,0c-2.2-0.1-3.5-0.3-4.5-0.5
										c0.1,0,0.2-0.1,0.2-0.1c-0.6-0.2-1.7-0.5-3.1-0.3c0,0,0,0-0.1,0.1c0,0.1,0,0.2,0,0.2c-0.7-0.2-0.7-0.2-0.8-0.2
										c0,0,0,0,0,0.1c0,0.1,0.1,0.2,0.1,0.2c-0.5-0.1-0.7-0.2-0.9-0.2c0,0.1-0.1,0.1-0.2,0.2c-1.4,0-1.6,0-2.2,0.2
										c0,0.1,0.1,0.1,0.1,0.2c-0.1,0-0.2,0-0.2,0c-0.1,0-0.3-0.1-0.4-0.1c-1.6-0.4-1.6-0.4-3.7-0.3c-0.5-0.1-0.5-0.1-0.6-0.1
										l-0.2,0.1c0,0,0,0,0,0l0,0h0c-0.7-0.1-1.4-0.3-2.2-0.4c-0.1,0-0.3,0-0.4,0c-0.3,0-0.6-0.2-0.9-0.2l-0.2,0.1l-0.2,0
										c-0.6-0.1-1.3-0.1-1.9-0.2c-0.5-0.1-1-0.3-1.6-0.3c-0.2,0-0.4,0.1-0.6,0.1c0.1,0,0.2,0.1,0.2,0.1c0,0,0,0,0.2,0.1
										c0.1,0,0.1,0.1,0.2,0.1l0.2,0.1c4.5,1.6,7.2,2.1,10.8,2.8c0.8,0.1,0.9,0.2,2.3,0.4c0.6,0.1,0.6,0.1,1.6,0.2
										c0.4,0.1,0.8,0.1,1.2,0.1c0.3,0,0.7,0.1,1,0.1c0.2,0,0.3,0,0.5,0c0.2,0,0.4,0,0.6,0c0.5,0,1,0.1,1.5,0.1c0.1,0,0.2,0,0.4,0
										c0.9,0,1.9,0.1,2.8,0.1c0.2,0,0.4,0,0.6,0c0.7,0,1.5,0,2.2-0.1c0.4,0,0.8,0,1.1,0c0.9,0,1.8-0.1,2.7-0.2c0.1,0,0.2,0,0.4,0
										c5.3-0.5,10.3-1.6,15.1-3.2c0.1-0.1,0.2-0.1,0.3-0.2C264.9,1406.4,264,1406.8,262.9,1406.9z"/>
								</g>
								<g>
									<path fill="#9C732D" d="M260.4,1406.4c-0.2,0.1-0.3,0.1-0.3,0.2c0,0,0,0,0.1,0C260.3,1406.5,260.5,1406.5,260.4,1406.4
										C260.5,1406.4,260.5,1406.4,260.4,1406.4C260.4,1406.4,260.4,1406.4,260.4,1406.4z"/>
								</g>
								<g>
									<path fill="#9C732D" d="M267.3,1293.3c0.2,0.1,0.4,0.2,0.5,0.2c0,0,0,0,0.1,0.1c0.2,0.1,0.4,0.1,0.5,0.2l-0.1,0.1l-0.1,0
										c0,0.1,0.1,0.1,0.1,0.2c-0.2-0.1-0.4-0.1-0.5-0.2c0.2,0.1,0.4,0.3,0.6,0.4c-0.7-0.2-0.7-0.2-1.7-0.7c-1-0.3-1-0.3-1.9-0.3
										c0.2,0.1,0.4,0.2,0.6,0.2c0,0,0,0.1,0,0.1c-0.2,0-0.4,0-0.6,0l-0.2-0.1l0.1,0c0,0,0,0-0.2-0.1l-0.4-0.1l-0.1,0l-0.4,0.1
										c-0.3,0-0.7-0.2-0.9-0.3l-0.3-0.1l-0.1,0c0,0,0,0-0.1,0c-0.2-0.2-0.6-0.6-2.2-0.8l-0.4,0.1l-0.3-0.2l-0.2-0.1
										c-0.2,0-0.6-0.1-0.8-0.1l0.2,0.4l-0.4,0.1c-0.2,0-0.4-0.1-0.6-0.2l-0.2-0.2l-0.1,0l0.1,0.2l0,0l0.1,0.1l0,0l0,0
										c0,0,0,0,0,0v0c0,0,0,0,0.1,0c-0.3,0.1-0.8,0.3-1.1,0.4c0,0.2-0.1,0.4-0.1,0.6c-0.4,0-0.9,0.1-1.3,0.1
										c0.1,0.1,0.3,0.2,0.4,0.3c0.3,0.1,0.7,0.2,1,0.3l-0.2,0c-0.1,0-1.8-0.1-3.1-0.6h0c0,0.2,0.3,0.3,0.4,0.5
										c-0.2,0.1-0.4,0.2-0.6,0.3c0-0.2-0.1-0.4-0.1-0.5c-0.3-0.1-0.7-0.3-1-0.4c-0.5,0.2-0.6,0.8-1,1.1c0.1,0.1,0.2,0.3,0.3,0.5
										c0.3,0.1,0.7,0.3,1,0.5l-0.2,0.2c-1.4-0.2-2.7-0.8-4.1-1.1c0.3,0.2,0.7,0.5,0.9,0.7l-0.4,0l-0.4,0
										c-3.1-0.2-4.1,0.2-5.2,0.5l-0.1,0c0,0,0,0-0.3,0c0,0,0,0-0.3-0.1l0.3-0.1c0.1,0,0.2,0,0.3,0.1c-0.1-0.1-0.2-0.3-0.3-0.5
										c-0.2,0-0.4,0-0.6,0c-0.1,0.1-0.2,0.3-0.4,0.4l0,0c0,0,0,0,0,0l0,0c0,0.1,0.1,0.2,0.1,0.3c-0.1,0.1-0.3,0.2-0.5,0.3
										c0,0-1.4-0.5-2.1,0.6l-0.3,0l-0.5-0.1c-0.2-0.1-0.5-0.1-0.8-0.1l0.2,0.2c0,0,0,0,0,0c0,0,0,0,0,0c0,0,0,0,0,0h0
										c0,0,0,0,0,0c0,0,0,0,0.2,0.2c0,0,0,0,0,0l0,0c0,0,0,0,0,0l-0.5,0.2c-0.2-0.1-0.5-0.3-0.7-0.4c0.1-0.3,0.2-0.6,0.3-0.9
										c-0.1-0.1-0.3-0.3-0.4-0.4l-0.3,0l0.5-0.2c0.3,0.1,0.7,0.3,1,0.4l0.2,0l0.2,0c0.3,0.1,0.7,0.2,1,0.3c0.5,0,0.5,0,1.3-0.4
										c-0.3-0.4-0.6-0.9-2.1-1.2c0,0,0,0,0,0l-0.2-0.3c0,0-0.1,0-0.1,0c0,0-0.1,0-0.2,0s-0.1,0-0.1,0c0,0-0.1,0-0.2,0
										c0,0-0.1,0-0.1,0c0,0-0.1,0-0.1,0c-0.1,0-0.1,0-0.2,0c0,0-0.1,0-0.1,0v0h0v0l0,0c0,0,0,0,0.4-0.1c0,0,0,0,0,0c0,0,0,0,0,0
										s0,0,0,0l0,0c0,0,0,0,0,0h0l0,0c0,0,0,0,0,0c0,0,0,0,0.3,0c-0.2-0.2-0.5-0.3-0.7-0.3c-0.3,0-0.6,0-0.9,0
										c0.1-0.1,0.3-0.1,0.4-0.2c-1.8,0.3-2,0.3-2.7,0.2c-0.4,0-0.8,0.1-1.2,0.2l0,0l-0.1,0.2l-0.3,0c0,0,0,0-0.3-0.1
										c-0.3,0-0.6,0.1-0.8,0.2l-0.1,0.1l0,0c0,0,0,0,0.2,0l0.2,0l-0.1,0.1c-3.4,1.4-7.3,1.6-10.4,3.8l-0.1,0.1
										c-0.1,0.2-0.2,0.4-0.3,0.6c0.8,0,1.6-0.3,2.4-0.3l0.1,0c-0.3,0.2-0.3,0.2-1.2,1.6c-0.3,0.1-0.8,0.2-1.1,0.2
										c-0.2,0.2-0.5,0.5-0.7,0.6c0,0,0,0,0,0s0,0,0,0l0,0h0c0,0,0,0,0,0h0l0.1,0.2c0.5,0,0.9-0.3,1.4-0.3l0.2,0l0.1,0
										c0.2-0.1,0.5-0.3,0.8-0.4c0.3,0,0.3,0,1.4-0.2l0-0.2c1.1-0.8,1.1-0.8,1.4-1l0,0c1-0.1,1.1-0.2,1.7-0.6
										c0-0.2-0.1-0.4-0.1-0.6c1.3-0.9,3-0.9,4.3-1.9c0.5-0.2,0.5-0.2,1.4-0.2l0.4,0.2c-3,1.3-3,1.3-4.8,2.4
										c0.2,0.2,0.5,0.2,0.7,0.3c0,0,0,0,0.2,0c0.8,0,1.6-0.1,2.5-0.1c0.2,0,0.4,0.2,0.6,0.2l0.2,0c-0.4,0.1-1,0.3-1.4,0.4
										c-0.3-0.1-0.8-0.1-1.1-0.2c0,0,0,0,0,0c-0.5,0-0.6,0-1.6,0.3l-0.1,0l-0.1-0.1c-0.1,0.2-0.4,0.3-0.7,0.4l0.1,0.1l0.4,0
										l0.4-0.1c0,0.1,0.1,0.2,0.2,0.2c-0.2,0.3-0.6,0.6-1,0.7c0,0-0.1,0-0.1,0c-0.1-0.1-0.2-0.3-0.3-0.5c-0.6,0.2-1,0.2-2,1.4
										l0,0h0c-0.2,0-0.2,0-1.5,0.4c-0.1-0.1-0.3-0.3-0.5-0.4c-0.9,0.1-1.7,0.3-2.5,0.4c0.1-0.1,0.2-0.4,0.2-0.6
										c-1.2,0.2-1.2,0.2-1.7,0.3c0,0,0.1,0,0.1-0.1c0-0.2,0-0.4,0-0.5l0.5,0.1h0c0.2-0.2,0.4-0.5,0.5-0.8l0.4-0.1
										c0.1-0.3,0.4-0.5,0.8-0.8l-9.7,4.1c-0.3,0-0.8,0.2-1,0.4c-0.1-0.1-0.3-0.3-0.4-0.4c-0.3,0.2-0.6,0.5-1,0.6c0,0,0,0-0.4-0.2
										c-0.2,0-0.4,0-0.6,0.1c-0.1,0.1-0.1,0.1-0.2,0.2c0.3,1.3-1.4,3.4-2.8,3.6c-0.2-0.1-0.5-0.2-0.8-0.3l-0.5-0.2l-0.3-0.1
										c-0.3,0-0.7,0-1,0.1c-1.6,2-2.4,2.6-3.2,3.2c-0.6,1-0.6,1-1.1,1.6l0.2,0c0,0,0,0,0,0c0.5,0.1,0.5,0.5,0.4,1.1
										c0.7-0.3,0.9-0.4,1.7-0.3c0.2,0,0.2,0,2.6-1.3c0.9-1.8,3.2-2,4.5-3.3l0.7-0.1c1.2,0.6,2.3-0.6,3.5,0l0.1,0
										c-0.4,0.8-0.4,0.8,1.1,3.9c-0.2,0.4-0.5,0.9-0.9,1.1c-0.8,0.2-1.5,0-2.3,0c0.1,0.6,0.3,0.8,1.2,1.2c0.6-1,1.8-1.2,2.6-1.9
										c0-0.2,0-0.4,0-0.6c0.2-0.1,0.4-0.2,0.6-0.2c0.2,0.1,0.4,0.4,0.6,0.5v0l0,0c0,0,0,0,0,0h0c0,0,0,0,0,0h0
										c0-0.4-0.3-1-0.6-1.3c0-0.2,0.1-0.4,0.1-0.6l-0.3,0.1c-0.2,0-0.4-0.2-0.6-0.3c0.2-0.7,0.2-0.8,0-1.9
										c0.3-0.3,0.7-0.6,1.1-0.7c0,0,0.1,0,0.1,0c0,0.2,0.1,0.4,0.2,0.5l0.5,0c-0.1,0.3-0.2,0.7-0.2,1c0.4,0.6,1.1,1.2,1.4,1.9
										c-0.2,0.3-0.5,0.6-0.7,0.9c0,0,0,1.7,0.2,3.3c0.2,0.1,0.4,0.2,0.5,0.3c0-0.2,0.2-0.5,0.4-0.7l0.2,0.2c0-0.2,0-0.4,0-0.6
										c-0.2-0.1-0.4-0.2-0.5-0.2l0.4-0.2l0.4,0.3c0.1,0.1,0.2,0.2,0.3,0.3c0.2-0.1,0.4-0.1,0.5-0.2c0-0.2-0.1-0.4-0.1-0.5
										c-0.2-0.1-0.4-0.2-0.6-0.2l0,0c0.3-0.2,0.3-0.6,0.4-1.2l0.3-0.1c0.6,0.1,1.2-0.2,1.8-0.2c0,0,0,0,0,0
										c0.3,0.1,0.8,0.2,1.1,0.3c-0.5,0.2-0.5,0.2-1.2,1.2l0.2,0.1c0.2,0,0.4-0.2,0.5-0.2c-0.2,0.3-0.5,0.6-0.8,0.8
										c0.7,0.6,1,1.5,1.8,2.1c0.3,0,0.8-0.3,1.2-0.5c0.4,0.2,0.8,0.5,1,0.9c0.8,0,1.6-0.3,2.4-0.4c-0.2,0.5-0.3,0.8-0.5,1.3
										c0,0,0,0,0,0c0,0,0,0-0.2,0.5c-1,2.8-1.3,2.8-2.5,2.8l-0.3,0c-0.2,0-0.5-0.1-0.8-0.2c-0.3-0.1-0.7-0.1-1-0.2
										c-0.8,0-0.9,0.1-1.5,0.4c-4.1-1.7-4.1-1.7-5.2-2.4c-1.2-0.1-1.2-0.1-2.7,1.9l-0.6,0.1c-0.3-0.1-0.6-0.3-0.8-0.5
										c-0.2-0.2-0.6-0.4-0.9-0.5c0,0,0,0-0.1,0c-0.1-0.1-0.2-0.3-0.3-0.5c0.1-0.2,0.1-0.4,0.2-0.5c0,0,0,0-2.3-0.9
										c-0.1-0.4-0.2-0.8-0.2-1.2l0,0c0.2-0.1,0.5-0.2,0.7-0.3l0.1,0.1c0.5-1.6,0.5-1.6,0.8-1.9c-0.2-0.1-0.2-0.3-0.3-0.5
										c0,0,0,0,0,0c0,0,0,0,0,0l0,0c0,0,0,0,0,0c-0.4,0.1-0.9,0.1-1.2,0.2c-0.2,0-0.5-0.1-0.7-0.2c-0.3,0-0.8,0.1-1.1,0.2
										c0,0,0,0,0,0l0,0h0h0c-0.2-0.1-0.3-0.3-0.5-0.4l-0.1,0c-1.8-0.1-2.5,0.1-4.2,0.9c-0.2-0.1-0.5-0.2-0.8-0.2l-0.6,0l0,0
										c-0.1-0.1-0.3-0.3-0.4-0.4c-4.6,4-4.6,4-4.8,4.3c-4.6,4.1-4.6,4.1-4.8,4.4c0,0-2.3,1.8-3.2,5.6c-1.2,2.6-1.3,2.8-1.9,3.7
										c-0.8,7.9-1,9.8,1.1,11.9c0.3,0,0.7-0.2,0.9-0.3c0.3-0.1,0.7-0.2,1.1-0.3c0,0,0,0,0.4,0.2c0.2,0.1,0.4,0.3,0.5,0.5
										c1.6-0.2,3-1.4,4.8-0.8c0.9,2.3,0.9,2.3,2.2,2.4c0,0,0,0,0,0c0.8,0.1,1.1,0.7,1.3,1.3c-0.5,3.4-0.5,3.4-1.2,4.7
										c0.8,3,2.5,5.6,3.6,8.5c0,0.1-1.4,8,0.4,10.7l8.1,13.6c0.6,0.7,0.7,0.8,2,1.6c1.7-0.5,1.9-0.5,2.6-0.3l0.5,0.1
										c2.3,0.2,6.4-3,5.7-6.7c1.6-0.5,1.6-0.5,2.3-1.1c-0.1-1.6-0.4-2.4-1.1-3.7c1-2,3.7-1.8,5.1-3.4c0.2-0.2,0.2-0.2,0.4-5.4
										c-1-1.5-1-1.5-1.3-2.6c0,0,0,0,0,0c0.1-0.1,0.2-0.3,0.4-0.5c-0.1-0.2-0.2-0.4-0.3-0.5l0.4-0.3l0,0
										c-0.2-0.5-0.6-0.8-0.9-1.2c2.3-7.4,13.6-8.4,14.3-17c0,0,0,0,0.1,0c0,0,0,0,0.1,0c0,0,0,0,0.1,0c0,0,0.1,0,0.1,0
										c0,0,0,0,0.1,0c0,0,0,0,0.1,0c0,0,0,0,0.1,0c0,0,0,0,0.1,0c-0.4-0.7-0.4-0.7,0-1.7c0,0-5.1,0.8-7.6,1
										c-1.1-0.9-1.2-1.3-0.8-2c-1-1.6-1.7-2.4-3.1-3.4c0.2-0.1,0.4-0.4,0.6-0.5c-0.1-0.1-0.2-0.3-0.3-0.5c0,0,0,0,0,0
										c-0.2,0.2-0.4,0.5-0.6,0.8c0,0-0.1,0-0.1,0c-0.2-2.5-0.6-2.9-1.5-3.8c0.4-3,0-3.5-0.9-4.5c0.1-0.2,0.2-0.3,0.2-0.5
										c-0.7-1.8-0.9-3.6-1.5-5.4l0.1,0c0.7,0.3,0.5,1.1,0.9,1.6c0,0,0,0,0.4-0.1l0.4-0.1c0.1,0,0.1,0,0.2,0
										c0.8,1.8,1.8,3.5,2.4,5.4c-0.8,1.7,0.6,2.7,1.2,3.1c0,0.3,0,0.3,1.1,3l-0.6-0.2l-0.3,0.1l0.2,0.4l0.4-0.1l0.3-0.1
										c0,0,0.3,3,0.4,4.3c0.2,0.1,0.4,0.1,0.6,0.1c0.1,0,8.8-1.8,9.3-3.3c1.8-0.4,1.8-0.4,2.3-0.4c0.7,0.1,0.8-0.3,1-0.8l0.4,0.1
										c0.8-0.2,1.2-0.9,2-1c0.1,0,0.2-0.1,0.3-0.1c0-0.3,0.1-0.8,0.2-1.1l0.1-0.3l0.5,0.2c0.1,0,0.1,0,0.2,0
										c0.3-0.8,0.3-0.8,1.4-1.9c-0.7-1.7-3.8-1.8-3.3-4.2c-0.9,0.5-1.6,1.1-2.4,1.6l-0.5-0.1c0,0,0,0-1.5,0.3
										c-0.2,0-0.4-0.2-0.5-0.3c0.1-0.1,0.2-0.1,0.3-0.2c-0.1-0.3-0.1-0.8-0.1-1.2c-0.8-1.2-2.5-1.8-2.8-3.3c0,0,0,0,0.2-0.1
										c0.4-0.2,0.8-0.4,1.2-0.6c0.6,0.4,0.9,0.7,1.2,2c4.1,1.9,4.1,1.9,5.1,1.2h0c0.2,0,0.5,0.3,0.5,0.5c0.1,0.8,0.2,1.4,5.6,1.7
										c0,0,0,0,0,0c0,0,0,0,0.4,0c1.1,0,2,0,3.5,0c0,0.1,0,0.1,3.9,4.7l0.3,0h0.1c0.3,0,0.3,0,2,0.8c0,0.1,3.3,12.1,5.6,12.6
										c1-0.9,1-0.9,1.5-1.1c0.2,0,0.5,0.2,0.7,0.3c-0.1,1.8,0,2,0.2,3c1.9,0.5,2-0.5,2-0.9c0-0.6-0.5-1.4-1.2-2.4
										c-0.1-0.2-0.8-5.8-0.9-6.6c2.2-1.1,2.2-1.1,2.4-2c0,0,2.5-1.2,4.4-3.7c1.2-0.1,2.3-0.5,3.4-0.7c0.7,0.5,3.2,3.3,3.6,4.1
										c0,0.6-0.1,1.2-0.1,1.8c0.2,0.1,0.5,0.2,0.7,0.3c0.8-0.2,1.2-0.8,1.8-1.2c1.2,2.9,1.4,3.7,1.2,5c0.7,1.4,0.3,2.9,0.7,4.3
										c1,0.4,1,1.5,1.7,2.1c-0.5,1.3,1.1,2.5,0.2,3.9c-0.4-0.2-1.9-1.4-2.5-2.7c-0.7-0.1-0.7-0.1-2.2-0.5
										c0,0.1,6.8,11.9,6.9,12.1c0.3,0,0.7,0.1,0.9,0.1c0.1,0,0.3-0.1,0.4-0.1c0.4-1.3,0.4-1.3,0.4-1.9l0.1-0.2l0,0
										c0.1,0,0.2,0,0.3-0.1c0.1-1.7-0.2-1.9-0.8-2.3c-0.1,0.1-0.3,0.3-0.4,0.5l-0.2-0.2c0.4-0.6,0.3-1,0.2-2.1l-0.1,0
										c0,0,0,0-0.1,0c-0.1,0.3-0.3,0.7-0.5,1v0c0,0,0,0-0.1,0c0.1-0.4,0-0.9,0.1-1.4l0-0.1c0,0,0,0,0.1-0.2l0.4,0.2l0.2-0.1
										c-0.3-1.1-0.3-1.4-0.9-2.3c0.2-2.3,0.2-3.3-2.4-4.7c0-0.9-0.5-1.7-0.6-2.6l-0.1-0.1l-0.4,0.3h0c0,0,0,0,0,0c0,0,0,0,0,0
										l0,0c0,0,0,0-0.2-0.2c0,0,0.3-2.8,0.9-4c0.2,0.2,0.3,0.5,0.3,0.8c1-0.1,1.3,0.4,1.8,1.3c0.5,0.9,0.5,0.9,1.2,1.3l0.2,0
										c0,0.1,0,0.1,0.3,1.9c4.1-3,4.1-3-0.8-11.3c0.7-2,0.7-2,1.5-2.4c0.2,0,0.4,0.1,0.6,0.1c0.4,0.9,0,1.8,0.1,2.7
										c0.1,0.2,0.3,0.3,0.5,0.4c1.3-0.8,0.8-1.6,0.1-2.7c0.1-0.3,0.5-0.6,0.8-0.8c0.1,0,0.2,0.1,0.3,0.1c2.3-3.3,2.3-3.3,2.6-4.1
										c-1-2.6-1.7-5.3-2.7-7.9c-0.6-0.3-1.1-0.7-1.6-1c-0.3-1-0.3-1,0-2.1c-0.3-0.3-0.8-0.4-1.2-0.7l-0.1,0l0,0.4
										c-0.4-0.3-0.4-0.3-0.7-1.1l0,0c0,0,0,0,0,0l-0.2,0.2c-0.5-0.5-0.5-0.7-0.3-1.4c0.2,0.1,0.4,0.5,0.4,0.7
										c0.2,0,0.4,0.1,0.6,0.1c0.1-0.1,0.2-0.3,0.3-0.5c0.6,0.1,0.6,0.2,1.3,1.4c0.7,0.4,1.4,0.9,2.1,2.7c0.1,0.2,0.4,0.4,0.6,0.5
										c0.2-1.1,0.3-1.7-2.7-4.6c-0.4-1.1-0.9-2.2-1.3-3.3c0.2,0.1,0.4,0.2,0.5,0.3c-0.1-1-0.1-1-5.7-7.2c0,0,1.5,1,4.4,4l0-0.2
										c-0.2-0.2-0.3-0.2-1.1-1c-0.8-0.8-0.8-0.8-1.1-1.1l0.1,0c-2.5-2.1-2.7-2.3-3.5-2.8c-0.2-0.1-0.6-0.2-0.8-0.3l0.3,0.4
										c0,0,0,0-0.2-0.1c-0.2-0.1-0.4-0.3-0.5-0.4h0c0,0,0,0,0.2,0.2l0.2,0.2l0,0l-0.2-0.2v0c0,0,0,0,0,0c0,0,0,0,0,0l0,0h0v0
										c0,0,0,0,0,0c0,0,0,0,0,0l0,0h0c0,0,0,0,0,0l0,0v0c0,0,0,0,0,0v0c0,0,0,0-0.1-0.1c-0.2-0.1-0.4-0.2-0.5-0.2
										c-1.9-1.9-1.9-1.9-2.7-2.6c-0.3-0.2-0.6-0.6-0.9-0.8l0.2-0.1c0,0,0,0-0.1-0.1l-0.2-0.1c-2.6-1.6-5.3-3.1-8.1-4.4
										c-0.3-0.1-0.6-0.3-0.9-0.4c-0.8-0.4-1.6-0.7-2.5-1l0.4,0.2C268,1293.4,268,1293.4,267.3,1293.3z"/>
								</g>
								<g>
									<path fill="#9C732D" d="M219.6,1293.3c-0.4,0.2-0.8,0.3-1.3,0.5c-0.1,0-0.2,0.1-0.3,0.1c0.8-0.3,1.5-0.6,2.1-0.8
										C219.9,1293.1,219.8,1293.2,219.6,1293.3z"/>
								</g>
								<g>
									<path fill="#9C732D" d="M225.4,1291.8c0.1,0,0.2,0,0.3,0c0.3-0.1,0.5-0.2,0.8-0.2c-0.8,0.3-0.8,0.3-0.9,0.4c0,0,0,0,0,0
										s0,0,0,0c0.4-0.1,0.8-0.2,1.1-0.3c0.3-0.1,0.6-0.2,0.9-0.3c0,0-0.1,0-0.2,0.1c0.1,0,0.2,0,1-0.2c0.1-0.1,0.1-0.1,0.4-0.2
										c0,0-0.1,0-0.1,0.1l0,0c0.3,0,0.3,0,0.4,0c0.3,0,0.5-0.1,0.8-0.2c0.1,0,0.2,0,0.7-0.1l0,0l-0.1,0c0,0,0,0,0,0
										c0.1,0,0.2,0,0.5-0.1c0,0-0.1,0-0.1,0c0.1,0,0.1,0,0.2,0c0.7-0.2,0.7-0.2,1.6-0.4l0.1,0c0,0-0.1,0-0.1,0.1c0,0,0,0,0,0
										c0,0,0.1,0,0.1,0c-0.4,0.1-0.4,0.1-0.9,0.2c0.3-0.1,0.3-0.1,1.6-0.3l0,0l-0.1,0c0,0,0,0,0.1,0c0,0,0.1,0,0.1,0
										c0.1,0,0.1,0,0.2,0c0,0-0.1,0-0.1,0c0.1,0,0.2,0,0.3,0c0,0,0,0,0.1,0c0,0,0.1,0,0.1,0c0,0,0.1,0,0.1,0c0,0,0,0-0.1,0
										c0.2,0,0.3-0.1,0.5-0.1c0.1,0,0.5-0.1,0.9-0.1c-0.4,0-0.7,0.1-1,0.1c0.1,0,0.1,0,0.3-0.1l-0.1,0c0.2,0,0.9-0.1,1.1-0.2
										c0.1,0,0.1,0,0.2,0c-0.1,0-0.1,0-0.2,0c0.7,0,1.5-0.1,2.2-0.2c0.1,0,0.2,0,0.3,0c0.1,0,0.1,0,0.2-0.1c0,0,0,0,0,0
										c-0.1,0-0.1,0-0.7,0c0.1,0,0.3,0,0.4-0.1c-0.5,0-0.5,0-0.9,0c0.5,0,0.9-0.1,1.4-0.1l0,0c0,0,0.2,0,0.4,0
										c0.5-0.1,0.6-0.1,0.9-0.2l0.1,0c0,0,0,0,0,0c-0.1-0.1-0.1-0.1-0.8,0l0,0c-0.2,0-0.4,0-0.6,0c0.2,0,0.4,0,0.6-0.1
										c0,0-0.1,0-0.1,0c1.4-0.1,1.7-0.1,3-0.2c0,0,0.1,0,0.1,0c-0.2,0-0.4,0-0.7,0c0,0,0,0,0,0h0c-0.7,0-1.4,0.1-2.1,0.1
										c-0.2,0-0.3,0-0.4,0c-0.1,0-0.2,0-0.3,0c-0.2,0-0.5,0-0.7,0.1l-0.1,0l0,0h0c-0.2,0-0.4,0-0.7,0.1c0,0-0.1,0-0.1,0
										c0,0,0.1,0,0.1,0l0.1,0c-1.6,0.2-1.7,0.2-4.1,0.5c-0.2,0-0.5,0.1-0.7,0.1l-0.1,0c-2.2,0.4-2.6,0.4-4.7,0.9
										c-3.4,0.8-4.3,1.1-7.7,2.3c0.5-0.1,1.5-0.3,5.2-1.1C225.3,1291.9,225.3,1291.9,225.4,1291.8z"/>
								</g>
								<g>
									<path fill="#9C732D" d="M239.3,1289.1L239.3,1289.1c0.1,0,0.3,0,0.5,0C239.6,1289.1,239.4,1289.1,239.3,1289.1z"/>
								</g>
								<g>
									<path fill="#9C732D" d="M218,1293.9l-0.4,0.2C217.7,1294,217.9,1293.9,218,1293.9C218,1293.9,218,1293.9,218,1293.9z"/>
								</g>
								<g>
									<path fill="#9C732D" d="M238.5,1289.1c0.1,0,0.1,0,0.2,0c0,0,0,0,0.1,0C238.7,1289.1,238.6,1289.1,238.5,1289.1z"/>
								</g>
								<g>
									<path fill="#9C732D" d="M238.2,1290.6c0.1,0,0.1,0,0.1,0v0C238.3,1290.6,238.3,1290.6,238.2,1290.6L238.2,1290.6
										c-0.1,0-0.1,0-0.1,0c-0.1,0-0.1,0-0.1,0.1c0,0,0,0,0,0C238.1,1290.7,238.1,1290.7,238.2,1290.6
										C238.2,1290.7,238.2,1290.7,238.2,1290.6C238.2,1290.7,238.2,1290.7,238.2,1290.6C238.2,1290.7,238.2,1290.7,238.2,1290.6
										C238.2,1290.7,238.2,1290.7,238.2,1290.6z"/>
								</g>
								<g>
									<path fill="#9C732D" d="M213.6,1299.8c0,0.1,0.1,0.2,0.4,0.1c-1.1,1-1.1,1-1.3,1c-0.1,0-0.1-0.1-0.1-0.2
										c-0.3,0.2-0.4,0.5-0.7,0.7c-0.3,0.2-0.7,0.1-1,0.4c0,0,0,0,0,0c0,0,0.1,0,0.1,0s0.1,0,0.1,0c0,0,0,0,0,0
										c0,0.1,0,0.1-0.1,0.1c-0.5,0.4-1.1,0.5-1.6,0.8c0.2,0,0.5,0,0.7,0c0.2,0,0.3-0.1,0.5-0.2c0.1,0,0.2,0,0.4,0
										c0.1,0,0.2,0.1,0.3,0.1l0,0c0,0,0,0,0,0c0.8,0.1,1.1,0.1,1.9-0.3c-0.1,0-0.1,0-0.1-0.1c0,0,0-0.1,0.1-0.1
										c0.1,0,0.3,0,0.8-0.4c0.1-0.1,0.3-0.2,0.3-0.3c0,0,0-0.1,0-0.1c0-0.1-0.1-0.1-0.2-0.1c0,0,0,0,0,0c0,0,0,0,0,0h0
										c0,0,0,0,0,0c0,0,0,0,0,0c0,0,0,0,0,0l0,0c0,0,0,0,0,0c0,0,0,0,0,0c0,0,0,0,0,0c0.6-0.7,1-1.6,1.7-2.3
										c0.6-0.3,0.8-0.3,1.3-0.6c0,0,0,0-0.1,0c-0.1,0-0.3,0-0.4,0c0,0,0,0,0,0c0,0,0,0,0,0c0,0,0,0,0,0c0-0.1,0.3-0.3,0.4-0.3
										c0,0,0.1,0,0.1,0c0.1,0,0.2,0,0.4-0.2c0,0,0,0-0.1,0c0,0,0,0-0.1,0c0,0,0,0-0.1,0c0,0,0,0-0.1,0c0,0,0,0-0.1,0
										c0,0,0,0-0.1,0c0,0,0,0-0.1,0c0,0,0,0-0.1,0c-0.4,0.2-0.9,0.4-1.3,0.6c0.1-0.1,0.1-0.1,0.2-0.2c0,0,0,0,0,0
										c-0.1,0-0.1,0-0.4,0.2c0,0,0,0,0,0.1c-0.2,0.3-0.5,0.4-0.7,0.6c0,0,0,0,0,0c0,0,0,0,0,0c0,0,0,0,0.1,0
										c-0.3,0.1-0.6,0.2-0.8,0.3c0,0,0,0,0,0c0.2,0,0.3-0.2,0.5-0.2c0,0,0,0,0,0c-0.2,0.1-0.3,0.2-0.5,0.3l0,0
										c0.2,0,0.3-0.2,0.5-0.2c0,0,0,0,0,0c-0.1,0.1-0.2,0.1-0.2,0.2C214,1299.7,213.8,1299.7,213.6,1299.8z"/>
								</g>
								<g>
									<path fill="#9C732D" d="M300.7,1337.6C300.7,1337.6,300.7,1337.6,300.7,1337.6c-0.1,0-0.1,0-0.1,0c0,0-0.1,0.1,0,0.3
										c0.2,0.7,0.2,0.8,0.6,1.3c0.2,0.3,0.3,0.5,0.3,0.9c0.2,0.3,0.3,0.2,0.4,0.1c0.1-0.1,0.2-0.2,0.3,0.4c0-0.3,0-0.3,0-0.3
										c0.2,0.1,0.1,0.4,0.3,0.5c0-0.3-0.4-0.5-0.1-0.7c0.6,1.1,0.6,1.1,0.8,1.2c0,0,0-0.1,0-0.1c-0.1-0.4-0.4-0.7-0.4-1.2
										c-0.3,0-0.4-0.3-0.6-0.3c-0.1,0-0.1,0-0.3,0.2c-0.1-0.6-0.3-1.1-0.5-1.6c0-0.4,0.3-0.7,0.2-1.1c0,0,0,0,0,0
										c-0.1-0.5-0.4-1.1-0.5-1.6c-0.3,0-0.4-0.3-0.7-0.3c0,0,0,0,0,0c-0.1,0.3,0,0.6,0.2,1.6
										C300.8,1337.5,300.8,1337.5,300.7,1337.6z"/>
								</g>
								<g>
									<path fill="#9C732D" d="M303.2,1342.8c-0.4-0.1-0.3-0.7-0.8-0.7c0,0,0,0,0,0c0,0,0,0,0,0l0,0l0,0c0,0,0,0,0,0h0
										c0,0,0,0,0,0c0.1,0.4,0.1,0.9,0.2,1.3c0,0,0.1,0,0.1,0c0.2,0,0.3,0,0.3,0.4c-0.3,0.3-0.1,1,0.3,1.1c0-0.7,0-0.9,0.2-1.2
										c0,0.1,0,0.2,0,0.4c0,0.2,0,0.3,0.1,0.3c0-0.2,0-0.2,0.1-0.2c0.1-0.1,0.1-0.1,0.1-0.3c0,0,0-0.1,0-0.1
										c-0.1-0.1-0.3-0.2-0.3-0.9c0,0,0,0,0,0c0,0,0,0,0,0l0,0c-0.1,0-0.1,0.1-0.1,0.5c0,0.4,0,0.6-0.1,0.6
										C303.3,1343.2,303.3,1343.2,303.2,1342.8z"/>
								</g>
								<g>
									<path fill="#9C732D" d="M300.5,1346c0.2-0.5,0.5-1,0.7-1.5c0-0.2,0.2-0.5,0.1-1c0-0.3-0.1-0.5-0.1-0.6
										c0.1,0.9-0.1,1.5-0.4,1.9C300.6,1345.2,300.4,1345.5,300.5,1346z"/>
								</g>
								<g>
									<path fill="#9C732D" d="M303.7,1354.1c-0.1,0-0.1,0-0.2,0h0c-0.3-0.1-0.5-0.5-0.8-0.5c-0.2,0-0.5,0.3-0.5,0.4l-1.1,4.1
										c-0.1,0.2-0.1,0.5-0.2,0.9c0.1,0,0.1,0,0.1-0.1c0.4,0,0.1,1.2-0.2,2.3c0,0,0,0,0.1,0c0,0,0,0,0.1,0c0,0,0,0,0.1,0
										c0,0,0,0,0.1,0c0,0,0,0,0.1,0c0,0,0,0,0.1,0c0,0,0,0,0.1,0c0,0,0,0,0.1,0c0.1-0.4,0.2-0.8,0.2-1.5c0.1-1,0.2-1.3,0.4-1.6
										c0,0.7,0.2,1.5,0.1,2.2l0,0c0.1,0,0.1-0.1,0.3-0.3c0.1-0.3,0.2-0.3,0.3-0.3c0,0,0,0,0,0c0,0,0,0,0,0
										c-0.3,0.3-0.5,1.2-0.3,1.3c0,0,0.1,0,0.2-0.2c0-0.1,0-0.1,0.2-0.8c0.1-0.4-0.2-0.7-0.2-1.1c0,0,0,0,0-0.2
										c0-0.2,0.1-0.5,0.1-0.7c0-0.3-0.4-0.6-0.3-1c0.1-0.2,0.3-0.4,0.5-0.6c0.1-0.1,0.1-0.1,0.6-0.9c0,0,0,0-0.1,0
										c-0.4,0.1-1.1,0.8-1.2,0.9c-0.3-0.4-0.4-1.6,0.1-2.1c0.4,0,0.8,0,1.2,0c0,0,0,0,0,0c0.3-0.1,0.6-0.1,0.7-0.9
										c0-0.1,0-0.2,0-0.5C304,1353.4,304,1353.8,303.7,1354.1z"/>
								</g>
								<g>
									<path fill="#9C732D" d="M304.4,1371.1L304.4,1371.1c-0.1,0.1-0.1,0.1-0.1,0.1c-0.1-0.5,0-1,0-1.5c0.3-0.6,0.3-0.6,0.4-0.7
										c0,0,0.1,0.1,0.1,0.1c0.3-1,0.7-1.9,0.9-2.9c-0.4,0.9-0.4,0.9-0.5,1c-0.1-0.3-0.4-0.6-0.5-0.9c-0.9,0.8-0.9,0.8-0.7,1.4
										c-0.6,0.7-0.4,1.8-1.4,2.3c-0.3,0-0.3-0.4-0.3-0.7c-0.1,0.1-0.1,0.1-0.2,0.1c-0.1,0-0.1-0.1-0.2-0.1
										c-0.1,0.4-0.1,0.4-0.3,0.7h-0.1l-0.1,0c-0.8,0.4-0.8,1.3-1.2,1.9l-0.1-0.1l-0.2-0.1c-0.3,0.3-0.4,0.7-0.7,0.9h0
										c0,0,0,0.1-0.1,0.1c0,0.1,0,0.1-0.1,0.2c0,0.1,0,0.1-0.1,0.2c0,0.1,0,0.1-0.1,0.1c0,0,0,0.1-0.1,0.2c0,0.1,0,0.1-0.1,0.1
										c0,0,0,0.1-0.1,0.1c0,0.1,0,0.1-0.1,0.1c-1.1,1.5-1.3,1.7-1.9,1.8c0,0,0,0,0,0c-0.1,0-0.1,0-0.2,0c-0.7,0.7-1,0.7-1.3,0.8
										c-0.1,0-0.2,0-0.3-0.1c-1.7,1.3-1.7,1.3-1.8,1.3c-0.1,0-0.1,0-0.2-0.1c-1.5,2.5-1.7,3.2-1.8,3.7l0,0c0,0,0,0,0,0
										c0-0.1,0-0.3,0-0.4l-0.1,0.1c0,0.6,0,0.6-0.3,0.8c0.1-0.4,0.1-0.4,0.1-0.7l-0.1,0.1c-0.3,2.4-0.9,3.8-2.6,6.4
										c-0.2,0.1-0.3,0.2-0.5,0.3c0,0,0,0-0.1,0c-0.2,0.7,0,0.8,0.6,1c1-0.9,1.5-1,2.3-1.2c0.2,0,0.3,0,0.7,0
										c1.6-1.8,3.8-2.3,3.8-2.3c0,0.1,0.1,0.3,0.1,0.5c-0.4,0.6-0.8,1.3-1.3,1.9c1.1-1.1,1.2-1.2,1.4-1.4c-0.6,0.7-0.9,1-1.6,1.7
										l0,0c0.4-0.2,0.5-0.5,0.8-0.7c-0.3,0.3-0.4,0.4-0.8,0.9c0,0,0,0,0,0c0,0,0,0,0,0c0,0,0,0,0,0c0,0,0,0,0,0
										c5.6-6.2,9.9-13.5,12.5-21.5c-1.1,3.1-1.4,3.9-2,5C304.2,1371.6,304.3,1371.4,304.4,1371.1z"/>
								</g>
								<g>
									<path fill="#9C732D" d="M307.8,1355.8c-0.2,0.2-0.1,0.4-0.1,0.6c0,0,0,0,0,0c0,0,0,0,0,0c0,0,0,0,0,0c0,0,0,0,0,0
										c0,0,0,0,0,0c0,0,0,0,0,0c0,0,0,0,0,0c0,0,0,0,0,0c-0.2,0.9-0.2,1.2-0.5,1.6c0-1.1,0-1.7,0.1-3c-0.2-0.1-0.2-0.1-0.4-0.1
										c-0.2,0.1-0.3,0.2-0.5,0.9c0.3,0.9,0.4,1,0.7,1.2l0,0c0,0,0,0-0.3,0.3c0,0,0,0-0.1,0c0.1,0.5,0,1.1,0.1,1.6
										c0.2-0.7,0.2-0.7,0.2-0.8c0.4,2.6,0.4,2.6-0.2,4.7c0,0.2,0,0.2,0.1,0.4c0.2-0.1,0.3-0.3,0.4-0.6c-0.1,0.9-0.2,1.6-0.5,2.6
										c0.7-2.5,1.3-5.1,1.7-7.8c-0.1-0.4-0.2-1-0.4-1.9C307.9,1355.6,307.8,1355.7,307.8,1355.8z"/>
								</g>
								<g>
									<path fill="#9C732D" d="M305.8,1358.6C305.8,1358.6,305.9,1358.7,305.8,1358.6c0.1-0.9-0.1-1-0.3-1
										c-0.2,0.1-0.5,0.4-0.5,0.7c0,0,0.1,0,0.2-0.1C305.7,1358.2,305.8,1358.4,305.8,1358.6z"/>
								</g>
								<g>
									<path fill="#9C732D" d="M305.4,1362.4c-0.1,0.2-0.2,0.3-0.3,0.7c0,0,0,0,0,0c0.1,0,0.3-0.6,0.4-0.9c0-0.2,0-0.2,0-0.2
										C305.5,1362.2,305.4,1362.3,305.4,1362.4z"/>
								</g>
								<g>
									<path fill="#9C732D" d="M302.3,1363.9C302.3,1363.8,302.3,1363.8,302.3,1363.9c-0.2,0.1-0.3,0.2-0.5,0.3
										c-0.3,0-0.5-0.1-0.8-0.1c-0.2,0-0.4,0.2-0.6,0.5c0.1,0,0.1,0,0.2,0c0.2,0,0.4,0,0.5,0.1c0.1-0.1,0.2-0.2,0.6-0.4
										C302,1364.1,302.2,1364,302.3,1363.9z"/>
								</g>
							</g>
						</g>
					</g>
				</g>
				<g>
					<path fill="#D0AA6A" d="M483.5,1770.2H368.7l-122.9-113.1l-120,113.1l-113.9-0.1l177-185.2L72,1422.7h116.8l57.5,90.1
						l53.5-90.1h116l-112.4,162.2L483.5,1770.2z"/>
				</g>
				<g>
					<polygon fill="#A27835" points="72,1422.7 69.5,1446.1 188.9,1584.9 					"/>
				</g>
				<g>
					<polygon fill="#A27835" points="415.9,1422.7 418.4,1446.1 303.7,1584.5 					"/>
				</g>
				<g>
					<polygon fill="#A27835" points="483.4,1770 478.4,1743.7 303.7,1585 					"/>
				</g>
				<g>
					<polygon fill="#A27835" points="11.9,1770.1 16.4,1744 188.7,1585.2 					"/>
				</g>
			</g>
		</g>
		<g>
			<polygon fill="#D0AA6A" points="246.6,1500.8 197.3,1422.7 291.9,1422.7 			"/>
		</g>
		<g>
			<path fill-rule="evenodd" clip-rule="evenodd" fill="#D0AA6A" d="M245.1,1268.2c0,0,104.1,33.7,62.8,83.8
				c0,0,53.8-41.3-57.4-88.4L245.1,1268.2z"/>
		</g>
		<g>
			<path fill-rule="evenodd" clip-rule="evenodd" fill="#D0AA6A" d="M191.8,1260.5c0,0-27.6-8.1-32.5-9.6c-4.9-1.4-8.6-5.1-9.4-7.3
				c0,0,2.8-7,11.3-7.2c8.5-0.2,59.6,15.3,59.6,15.3s-1.4-5.9,3.6-5.5c5,0.4,9.6,3.2,9.6,3.2s5.6-6.9,5.1-7.5
				c-0.5-0.6-5.6-3.4-5.6-3.4s7.5,1.3,9.8,2.4l32.2-5.3l2.7,1l-28.1,6.4c0,0,4.1,1.8-1.7,2.5l-0.4,2.7l53.5-9.7l2.5,0.8l-54.3,18.3
				c0,0,5.1,3.7,0.9,5.5c0,0,2.1,5.7-5.2,6.2c-7.2,0.6-23.9-0.9-29.3-2.2c0,0-34.7,15.6-44.7,22.5l-4.9-0.7c0,0,18.2-16.9,20.5-21
				C187.1,1267.8,190.4,1261.5,191.8,1260.5z"/>
		</g>
		<g>
			<path fill-rule="evenodd" clip-rule="evenodd" fill="#D0AA6A" d="M206.9,1254.6c0,0-31.7-11.2-39.4-12.3
				c-12.2-1.7-15.7-0.2-17.5,1.2c0,0.1-0.1,0.1-0.1,0.1c0.8,2.2,4.5,5.8,9.4,7.3c4.9,1.4,32.5,9.6,32.5,9.6c-1.4,1-4.8,7.4-4.8,7.4
				c-2.3,4.2-20.5,21-20.5,21l4.9,0.7c10-6.9,44.7-22.5,44.7-22.5c5.5,1.3,22.1,2.8,29.3,2.2c7.2-0.6,5.2-6.2,5.2-6.2
				c4.2-1.8-0.9-5.5-0.9-5.5l54.3-18.3l-2.5-0.8c0,0-38.7,8.9-59.3,12.2C223.5,1253.7,206.9,1254.6,206.9,1254.6z"/>
		</g>
		<g>
			<path fill-rule="evenodd" clip-rule="evenodd" fill="#D0AA6A" d="M222.2,1251.5l3.1-0.5c0,0,0.7-4.3-2.1-4
				C220.5,1247.4,221.8,1250.5,222.2,1251.5z"/>
		</g>
		<g>
			<path fill-rule="evenodd" clip-rule="evenodd" fill="#D0AA6A" d="M248.4,1245.3c5.8-0.7,1.7-2.5,1.7-2.5l28.1-6.4l-2.7-1
				l-32.8,6.2L248.4,1245.3z"/>
		</g>
		<g>
			<path fill-rule="evenodd" clip-rule="evenodd" fill="#D0AA6A" d="M191.8,1260.5c-1.4,1-4.8,7.4-4.8,7.4c-2.3,4.2-20.5,21-20.5,21
				l4.9,0.7c10-6.9,44.7-22.5,44.7-22.5L191.8,1260.5z"/>
		</g>
	</g>
</g>
</svg>
