<?xml version="1.0" encoding="utf-8"?>
<!-- Generator: Adobe Illustrator 22.0.0, SVG Export Plug-In . SVG Version: 6.00 Build 0)  -->
<svg version="1.1" id="Layer_1" xmlns="http://www.w3.org/2000/svg" xmlns:xlink="http://www.w3.org/1999/xlink" x="0px" y="0px"
	 viewBox="0 0 1644 563.4" style="enable-background:new 0 0 1644 563.4;" xml:space="preserve">
<style type="text/css">
	.st0{fill:#D2AC6B;}
	.st1{fill:#BB8D41;}
	.st2{fill:#D0AA6A;}
	.st3{fill:#9C732D;}
	.st4{fill:#A27835;}
</style>
<g>
	<g>
		<path class="st0" d="M541,463l-11.9-46.8h6.4l5.6,23.7c1.4,5.8,2.6,11.7,3.5,16.2h0.1c0.8-4.7,2.2-10.2,3.8-16.3l6.2-23.6h6.3
			l5.7,23.8c1.3,5.6,2.6,11.1,3.3,16h0.1c1-5.1,2.3-10.3,3.8-16.2l6.2-23.6h6.2L573,463h-6.3l-5.9-24.4c-1.5-6-2.4-10.6-3.1-15.3
			h-0.1c-0.8,4.7-1.9,9.2-3.6,15.3l-6.7,24.4H541z"/>
		<path class="st0" d="M632.2,439.2c0,16.1-9.8,24.7-21.7,24.7c-12.4,0-21-9.6-21-23.8c0-14.9,9.2-24.6,21.7-24.6
			C623.9,415.5,632.2,425.3,632.2,439.2z M595.8,439.9c0,10,5.4,19,14.9,19c9.6,0,15-8.8,15-19.4c0-9.3-4.9-19-14.9-19
			C600.8,420.4,595.8,429.6,595.8,439.9z"/>
		<path class="st0" d="M640,416.9c3.1-0.6,7.4-1,11.6-1c6.5,0,10.6,1.2,13.5,3.8c2.4,2.1,3.7,5.3,3.7,8.9c0,6.2-3.9,10.3-8.8,11.9
			v0.2c3.6,1.2,5.8,4.6,6.9,9.4c1.5,6.5,2.6,11,3.6,12.8h-6.2c-0.8-1.3-1.8-5.3-3.1-11.2c-1.4-6.5-3.9-8.9-9.4-9.1H646v20.3h-6
			V416.9z M646,438.2h6.2c6.5,0,10.6-3.5,10.6-8.9c0-6-4.4-8.7-10.8-8.7c-2.9,0-5,0.3-6,0.6V438.2z"/>
		<path class="st0" d="M677.4,416.2h6v41.7h20v5.1h-26V416.2z"/>
		<path class="st0" d="M710.1,416.9c3.7-0.6,8.1-1,12.8-1c8.7,0,14.9,2,19,5.8c4.2,3.8,6.6,9.2,6.6,16.8c0,7.6-2.4,13.9-6.7,18.2
			c-4.4,4.4-11.6,6.7-20.7,6.7c-4.3,0-7.9-0.2-11-0.6L710.1,416.9L710.1,416.9z M716.2,458.3c1.5,0.3,3.8,0.3,6.1,0.3
			c12.9,0,19.9-7.2,19.9-19.9c0.1-11-6.2-18.1-19-18.1c-3.1,0-5.5,0.3-7.1,0.6L716.2,458.3L716.2,458.3z"/>
		<path class="st0" d="M764,463l-11.9-46.8h6.4l5.6,23.7c1.4,5.8,2.6,11.7,3.5,16.2h0.1c0.8-4.7,2.2-10.2,3.8-16.3l6.2-23.6h6.3
			l5.7,23.8c1.3,5.6,2.6,11.1,3.3,16h0.1c1-5.1,2.3-10.3,3.8-16.2l6.2-23.6h6.2L796,463h-6.3l-5.9-24.4c-1.5-6-2.4-10.6-3.1-15.3
			h-0.1c-0.8,4.7-1.9,9.2-3.6,15.3l-6.7,24.4H764z"/>
		<path class="st0" d="M821.2,416.2V463h-6v-46.8H821.2z"/>
		<path class="st0" d="M831.7,416.9c3.7-0.6,8.1-1,12.8-1c8.7,0,14.9,2,19,5.8c4.2,3.8,6.6,9.2,6.6,16.8c0,7.6-2.4,13.9-6.7,18.2
			c-4.4,4.4-11.6,6.7-20.7,6.7c-4.3,0-7.9-0.2-11-0.6L831.7,416.9L831.7,416.9z M837.8,458.3c1.5,0.3,3.8,0.3,6.1,0.3
			c12.9,0,19.9-7.2,19.9-19.9c0.1-11-6.2-18.1-19-18.1c-3.1,0-5.5,0.3-7.1,0.6L837.8,458.3L837.8,458.3z"/>
		<path class="st0" d="M902.2,441.1H884V458h20.3v5.1H878v-46.8h25.3v5.1H884v14.8h18.2V441.1z"/>
		<path class="st0" d="M934.4,448.3l-4.9,14.7h-6.2l15.9-46.8h7.3l16,46.8H956l-5-14.7H934.4z M949.8,443.6l-4.6-13.5
			c-1-3.1-1.7-5.8-2.4-8.5h-0.1c-0.7,2.8-1.5,5.6-2.4,8.5l-4.6,13.5H949.8z"/>
		<path class="st0" d="M976,463l-15.3-46.8h6.5l7.3,23.1c2,6.3,3.7,12,5,17.5h0.1c1.3-5.4,3.3-11.3,5.3-17.4l7.9-23.1h6.5
			l-16.7,46.8L976,463L976,463z"/>
		<path class="st0" d="M1010.5,416.2V463h-6v-46.8H1010.5z"/>
		<path class="st0" d="M1028.6,448.3l-4.9,14.7h-6.2l15.9-46.8h7.3l16,46.8h-6.5l-5-14.7H1028.6z M1043.9,443.6l-4.6-13.5
			c-1-3.1-1.7-5.8-2.4-8.5h-0.1c-0.7,2.8-1.5,5.6-2.4,8.5l-4.6,13.5H1043.9z"/>
		<path class="st0" d="M1067.1,421.4h-14.2v-5.1h34.7v5.1h-14.3v41.7h-6.1L1067.1,421.4L1067.1,421.4z"/>
		<path class="st0" d="M1098.7,416.2V463h-6v-46.8H1098.7z"/>
		<path class="st0" d="M1149.3,439.2c0,16.1-9.8,24.7-21.7,24.7c-12.4,0-21-9.6-21-23.8c0-14.9,9.2-24.6,21.7-24.6
			C1141,415.5,1149.3,425.3,1149.3,439.2z M1113,439.9c0,10,5.4,19,14.9,19c9.6,0,15-8.8,15-19.4c0-9.3-4.9-19-14.9-19
			C1118,420.4,1113,429.6,1113,439.9z"/>
		<path class="st0" d="M1157.1,463v-46.8h6.6l15,23.7c3.5,5.5,6.2,10.4,8.4,15.2l0.1-0.1c-0.6-6.2-0.7-11.9-0.7-19.2v-19.6h5.7V463
			h-6.1l-14.9-23.8c-3.3-5.2-6.4-10.6-8.8-15.6l-0.2,0.1c0.3,5.9,0.5,11.5,0.5,19.3v20H1157.1z"/>
		<path class="st0" d="M1216.7,455.7c2.7,1.7,6.7,3.1,10.8,3.1c6.2,0,9.8-3.3,9.8-8c0-4.4-2.5-6.9-8.8-9.3
			c-7.6-2.7-12.4-6.7-12.4-13.3c0-7.3,6-12.7,15.1-12.7c4.8,0,8.3,1.1,10.3,2.3l-1.7,4.9c-1.5-0.8-4.7-2.2-8.9-2.2
			c-6.4,0-8.8,3.8-8.8,7c0,4.4,2.8,6.5,9.3,9c7.9,3.1,11.9,6.9,11.9,13.7c0,7.2-5.3,13.5-16.4,13.5c-4.5,0-9.4-1.3-11.9-3
			L1216.7,455.7z"/>
		<path class="st0" d="M1276,441.1h-18.2V458h20.3v5.1h-26.3v-46.8h25.3v5.1h-19.2v14.8h18.2v4.9H1276z"/>
		<path class="st0" d="M1285.9,416.9c3.1-0.6,7.4-1,11.6-1c6.5,0,10.6,1.2,13.5,3.8c2.4,2.1,3.7,5.3,3.7,8.9
			c0,6.2-3.9,10.3-8.8,11.9v0.2c3.6,1.2,5.8,4.6,6.9,9.4c1.5,6.5,2.6,11,3.6,12.8h-6.2c-0.8-1.3-1.8-5.3-3.1-11.2
			c-1.4-6.5-3.9-8.9-9.4-9.1h-5.7v20.3h-6L1285.9,416.9L1285.9,416.9z M1292,438.2h6.2c6.5,0,10.6-3.5,10.6-8.9
			c0-6-4.4-8.7-10.8-8.7c-2.9,0-5,0.3-6,0.6L1292,438.2L1292,438.2z"/>
		<path class="st0" d="M1334.7,463l-15.3-46.8h6.5l7.3,23.1c2,6.3,3.7,12,5,17.5h0.1c1.3-5.4,3.3-11.3,5.3-17.4l7.9-23.1h6.5
			l-16.7,46.8L1334.7,463L1334.7,463z"/>
		<path class="st0" d="M1369.2,416.2V463h-6v-46.8H1369.2z"/>
		<path class="st0" d="M1412.5,461.5c-2.2,1.1-6.7,2.2-12.4,2.2c-13.2,0-23.1-8.3-23.1-23.7c0-14.7,9.9-24.6,24.4-24.6
			c5.8,0,9.5,1.2,11.1,2.1l-1.5,4.9c-2.3-1.1-5.6-1.9-9.4-1.9c-11,0-18.3,7-18.3,19.3c0,11.5,6.6,18.8,18,18.8
			c3.7,0,7.4-0.8,9.9-1.9L1412.5,461.5z"/>
		<path class="st0" d="M1444.3,441.1h-18.2V458h20.3v5.1H1420v-46.8h25.3v5.1h-19.2v14.8h18.2V441.1z"/>
		<path class="st0" d="M1453.4,455.7c2.7,1.7,6.7,3.1,10.8,3.1c6.2,0,9.8-3.3,9.8-8c0-4.4-2.5-6.9-8.8-9.3
			c-7.6-2.7-12.4-6.7-12.4-13.3c0-7.3,6-12.7,15.1-12.7c4.8,0,8.3,1.1,10.3,2.3l-1.7,4.9c-1.5-0.8-4.7-2.2-8.9-2.2
			c-6.4,0-8.8,3.8-8.8,7c0,4.4,2.8,6.5,9.3,9c7.9,3.1,11.9,6.9,11.9,13.7c0,7.2-5.3,13.5-16.4,13.5c-4.5,0-9.4-1.3-11.9-3
			L1453.4,455.7z"/>
	</g>
	<g>
		<path class="st0" d="M596.3,352.4c-0.5-9.8-1.2-21.6-1.1-30.3h-0.3c-2.4,8.2-5.4,17-9,26.7l-12.6,34.1h-7l-11.6-33.4
			c-3.4-9.9-6.3-19-8.3-27.3h-0.2c-0.2,8.8-0.7,20.5-1.4,31l-1.9,30.1H534l5-70.2h11.8l12.2,34c3,8.6,5.4,16.4,7.2,23.6h0.3
			c1.8-7.1,4.4-14.8,7.5-23.6l12.8-34h11.8l4.5,70.2h-9L596.3,352.4z"/>
		<path class="st0" d="M630.6,313.1v70.2h-9.2v-70.2H630.6z"/>
		<path class="st0" d="M686,383.3l-9.1-15.5c-3.7-5.9-6.1-9.8-8.3-13.9h-0.2c-2,4.1-4,7.8-7.8,14l-8.6,15.4h-10.6l21.9-35.5
			l-21-34.7H653l9.5,16.5c2.7,4.6,4.7,8.1,6.6,11.9h0.3c2-4.2,3.8-7.4,6.5-11.9l9.8-16.5h10.6l-21.8,34.2l22.3,36H686z"/>
		<path class="st0" d="M722.5,313.1h9.2v47c0,18.6-9.4,24.4-21.7,24.4c-3.4,0-7.5-0.7-9.9-1.7l1.4-7.4c1.9,0.7,4.7,1.4,7.8,1.4
			c8.3,0,13.2-3.6,13.2-17.4V313.1z"/>
		<path class="st0" d="M784.3,350.4h-27.9v25.3h31v7.6h-40.3v-70.2h38.7v7.6h-29.4v22.2h27.9V350.4z"/>
		<path class="st0" d="M814.8,320.8H793v-7.7h53v7.7h-21.9v62.5h-9.4v-62.5H814.8z"/>
		<path class="st0" d="M876.5,313.1h38.6v7.6h-29.3V344h27.1v7.5h-27.1v31.8h-9.2L876.5,313.1L876.5,313.1z"/>
		<path class="st0" d="M928.3,313.1h9.2v62.6h30.6v7.6h-39.9v-70.2H928.3z"/>
		<path class="st0" d="M987.7,313.1v70.2h-9.2v-70.2H987.7z"/>
		<path class="st0" d="M1058.4,380.2c-4.1,1.5-12.3,3.9-22,3.9c-10.8,0-19.8-2.7-26.8-9.3c-6.2-5.8-10-15.2-10-26.1
			c0.1-20.9,14.8-36.3,38.8-36.3c8.3,0,14.8,1.8,17.9,3.2l-2.2,7.4c-3.8-1.7-8.6-3-15.8-3c-17.4,0-28.8,10.6-28.8,28.2
			c0,17.8,10.9,28.3,27.6,28.3c6.1,0,10.2-0.8,12.3-1.9v-20.9h-14.6v-7.3h23.6L1058.4,380.2L1058.4,380.2z"/>
		<path class="st0" d="M1081.7,313.1v29.4h34.7v-29.4h9.4v70.2h-9.4v-32.9h-34.7v32.9h-9.2v-70.2H1081.7z"/>
		<path class="st0" d="M1155.4,320.8h-21.8v-7.7h53v7.7h-21.9v62.5h-9.4v-62.5H1155.4z"/>
		<path class="st0" d="M1215.9,372.2c4.1,2.5,10.2,4.6,16.6,4.6c9.5,0,15-4.9,15-12c0-6.6-3.8-10.3-13.5-14
			c-11.7-4.1-18.9-10-18.9-19.9c0-10.9,9.2-19.1,23.2-19.1c7.3,0,12.6,1.7,15.8,3.4l-2.5,7.4c-2.3-1.2-7.1-3.3-13.6-3.3
			c-9.8,0-13.5,5.7-13.5,10.5c0,6.6,4.4,9.8,14.2,13.5c12.1,4.6,18.3,10.3,18.3,20.6c0,10.8-8.2,20.2-25.1,20.2
			c-6.9,0-14.5-2-18.3-4.5L1215.9,372.2z"/>
		<path class="st0" d="M1278.8,313.1v41.6c0,15.7,7.1,22.4,16.7,22.4c10.6,0,17.4-6.9,17.4-22.4v-41.6h9.4V354
			c0,21.6-11.6,30.4-27.1,30.4c-14.7,0-25.7-8.2-25.7-30V313L1278.8,313.1L1278.8,313.1z"/>
		<path class="st0" d="M1338.3,313.9c4.5-0.7,10.3-1.4,17.8-1.4c9.1,0,15.8,2.1,20.1,5.8c3.9,3.3,6.3,8.4,6.3,14.7
			c0,6.4-1.9,11.4-5.5,15c-4.9,5.1-12.9,7.7-21.9,7.7c-2.8,0-5.3-0.1-7.4-0.6v28.1h-9.2v-69.3H1338.3z M1347.6,347.8
			c2,0.5,4.6,0.7,7.7,0.7c11.2,0,18-5.3,18-15c0-9.3-6.7-13.8-16.9-13.8c-4,0-7.1,0.3-8.7,0.7L1347.6,347.8L1347.6,347.8z"/>
		<path class="st0" d="M1394.9,313.9c4.5-0.7,10.3-1.4,17.8-1.4c9.1,0,15.8,2.1,20.1,5.8c3.9,3.3,6.3,8.4,6.3,14.7
			c0,6.4-1.9,11.4-5.5,15c-4.9,5.1-12.9,7.7-21.9,7.7c-2.8,0-5.3-0.1-7.4-0.6v28.1h-9.2v-69.3H1394.9z M1404.1,347.8
			c2,0.5,4.6,0.7,7.7,0.7c11.2,0,18-5.3,18-15c0-9.3-6.7-13.8-16.9-13.8c-4,0-7.1,0.3-8.7,0.7L1404.1,347.8L1404.1,347.8z"/>
		<path class="st0" d="M1512.6,347.4c0,24.2-15,37-33.3,37c-18.9,0-32.2-14.4-32.2-35.6c0-22.3,14.1-36.9,33.3-36.9
			C1500,311.9,1512.6,326.6,1512.6,347.4z M1457,348.6c0,15,8.3,28.4,22.9,28.4c14.7,0,23-13.2,23-29.2c0-14-7.4-28.5-22.9-28.5
			C1464.7,319.3,1457,333.2,1457,348.6z"/>
		<path class="st0" d="M1524.6,314c4.7-0.9,11.4-1.5,17.8-1.5c9.9,0,16.3,1.8,20.7,5.7c3.6,3.1,5.6,7.9,5.6,13.3
			c0,9.3-6,15.4-13.5,17.9v0.3c5.5,1.9,8.8,6.9,10.5,14.2c2.3,9.8,4,16.6,5.5,19.3h-9.6c-1.2-2-2.8-8-4.8-16.8
			c-2.1-9.7-6-13.3-14.4-13.6h-8.7v30.4h-9.2L1524.6,314L1524.6,314z M1533.9,346h9.5c9.9,0,16.2-5.3,16.2-13.3
			c0-9.1-6.7-13-16.5-13.1c-4.5,0-7.7,0.4-9.1,0.8L1533.9,346L1533.9,346z"/>
		<path class="st0" d="M1596.4,320.8h-21.8v-7.7h53v7.7h-21.9v62.5h-9.4v-62.5H1596.4z"/>
	</g>
	<g>
		<g>
			<g>
				<g>
					<g>
						<g>
							<path class="st1" d="M483.5,545.7H374.4l-32-200.1l-56.1,200.1h-81l-56.4-201.9l-26.1,201.9H11.9l62-347.6h93.8l73.8,185.4
								l78.1-185.4h94.7L483.5,545.7z"/>
						</g>
					</g>
					<g>
						<g>
							<g>
								<path class="st2" d="M309.7,123.7c0,34.2-29.1,61.9-65.1,61.9c-35.9,0-65.1-27.7-65.1-61.9c0-34.2,29.1-61.9,65.1-61.9
									C280.5,61.8,309.7,89.5,309.7,123.7z"/>
							</g>
							<g>
								<g>
									<path class="st3" d="M238.3,65c0.1,0,0.3,0,0.3,0S238.5,65,238.3,65L238.3,65c0,0-0.1,0-0.2,0C238.2,65,238.2,65,238.3,65z
										"/>
								</g>
								<g>
									<path class="st3" d="M241.4,66c-0.2,0-0.4,0.1-0.4,0c-0.1,0-0.1,0-0.1-0.1c-0.4,0.1-0.5,0.1-0.6,0.1s-0.1,0-0.2,0l0,0
										c-0.2,0-0.4,0.1-0.6,0.1c0.1,0,0.1-0.1,0.1-0.1l0,0c-0.6-0.3-1.4,0.2-1.4,0.3l0,0h0.1c-0.8,0.2-0.8,0.3-0.7,0.5
										c1.2-0.3,1.6-0.4,2.2-0.5c-0.3,0.2-0.3,0.2-0.7,0.3c0.2,0,0.2,0,0.3,0s0.1,0,0.1,0c0.1,0.1,0.2,0.1,0.7-0.1
										c-0.2,0-0.2,0,0.1-0.4c0.6,0.1,0.8,0.2,1.6,0l0,0C241.8,66,241.5,66.2,241.4,66L241.4,66z"/>
								</g>
								<g>
									<path class="st3" d="M258,67.4L258,67.4c0.1,0,0.2,0,0.2,0C258.1,67.4,258.1,67.4,258,67.4C258.1,67.3,258,67.3,258,67.4
										C258,67.3,258,67.3,258,67.4c0-0.1-0.1-0.1-0.1-0.1l0,0C257.9,67.3,257.9,67.4,258,67.4L258,67.4z"/>
								</g>
								<g>
									<path class="st3" d="M258.5,67.4h0.2l0,0C258.6,67.4,258.5,67.3,258.5,67.4L258.5,67.4L258.5,67.4
										C258.3,67.4,258.4,67.4,258.5,67.4z"/>
								</g>
								<g>
									<path class="st3" d="M246.5,69.9c0.3,0,0.5,0.1,0.8,0.1c0.2,0,0.2-0.1,0.3-0.1c-0.5-0.1-0.7-0.4-0.7-0.7
										c1.4-0.8,1.5-0.8,1.9-1c0.3-0.1,0.5-0.1,1.1-0.2c0.3,0,0.8,0,0.9-0.2l0.1-0.1c-1.4,0-2.4,0.1-3.6,0.4
										c0,0.4-0.8,0.3-0.6,0.6c-0.4,0.1-0.6,0.2-0.7,0.5c-0.1,0.1-0.3,0-0.4,0.2C245.9,69.6,246.2,69.7,246.5,69.9
										C246.4,69.9,246.4,69.9,246.5,69.9z"/>
								</g>
								<g>
									<path class="st3" d="M257.9,68L257.9,68c0.1,0,0.2,0.1,0.2,0.1C258,68,257.9,67.9,257.9,68c0-0.1-0.2-0.1-0.2-0.1
										C257.7,67.9,257.8,67.9,257.9,68L257.9,68z"/>
								</g>
								<g>
									<path class="st3" d="M265.3,68.2C265.3,68.1,265.2,68.1,265.3,68.2C265.2,68.1,265.2,68.1,265.3,68.2
										C265.2,68.1,265.3,68.1,265.3,68.2L265.3,68.2L265.3,68.2c0-0.1-0.1-0.2-0.5-0.3c-0.5-0.1-0.5-0.1-0.5-0.1
										c0.1,0.1,0.3,0.1,0.4,0.2c-0.2-0.1-0.4-0.1-0.6-0.2h-0.2c0,0,0.1,0,0.3,0.1c-0.3-0.1-0.4-0.1-0.5-0.1l0,0
										C263.8,67.8,265.2,68.3,265.3,68.2z"/>
								</g>
								<g>
									<path class="st3" d="M264.4,68L264.4,68L264.4,68L264.4,68C264.3,68,264.3,68,264.4,68C264.3,68,264.3,68,264.4,68
										C264.3,68,264.3,68,264.4,68C264.3,68,264.3,68,264.4,68C264.3,68,264.3,68,264.4,68c-0.1,0-0.1,0-0.1,0l0,0l0,0l0,0l0,0
										l0,0l0,0l0,0l0,0l0,0l0,0l0,0l0,0l0,0l0,0l0,0l0,0l0,0l0,0l0,0l0,0l0,0l0,0l0,0l0,0l0,0l0,0l0,0l0,0l0,0l0,0l0,0l0,0l0,0
										l0,0l0,0l0,0l0,0l0,0l0,0l0,0l0,0l0,0l0,0l0,0l0,0l0,0l0,0l0,0l0,0l0,0l0,0l0,0l0,0C264.3,68,264.3,68,264.4,68
										C264.3,68,264.3,68,264.4,68C264.3,68,264.3,68,264.4,68C264.3,68,264.3,68,264.4,68C264.3,68,264.3,68,264.4,68
										C264.3,68,264.3,68,264.4,68L264.4,68L264.4,68L264.4,68L264.4,68L264.4,68L264.4,68L264.4,68L264.4,68L264.4,68L264.4,68
										L264.4,68L264.4,68L264.4,68L264.4,68z"/>
								</g>
								<g>
									<path class="st3" d="M265.1,67.9c0,0,0,0,0.2,0s0.2,0,0.2,0l0,0C265.5,67.9,265.4,67.9,265.1,67.9
										c-0.1-0.1-0.4-0.2-0.4-0.1L265.1,67.9L265.1,67.9z"/>
								</g>
								<g>
									<path class="st3" d="M230.7,66.3C230.7,66.3,230.8,66.3,230.7,66.3C230.8,66.3,230.8,66.3,230.7,66.3
										C230.8,66.3,230.8,66.3,230.7,66.3C230.8,66.3,230.8,66.3,230.7,66.3L230.7,66.3c0.3,0,0.4,0,0.4-0.1l0,0l0,0
										C231,66.2,230.7,66.3,230.7,66.3z"/>
								</g>
								<g>
									<path class="st3" d="M266.1,68.4L266.1,68.4L266.1,68.4c0.1,0,0,0-0.1-0.1l0,0c-0.1,0-0.2-0.1-0.2-0.1
										C265.8,68.3,265.9,68.3,266.1,68.4L266.1,68.4z"/>
								</g>
								<g>
									<path class="st3" d="M266.7,68.6c0.4,0.1,0.4,0.1,0.4,0.1s0,0-0.3-0.1l-0.5-0.1C266.3,68.4,266.3,68.5,266.7,68.6z"/>
								</g>
								<g>
									<path class="st3" d="M253.9,69.3L253.9,69.3C253.9,69.3,254,69.2,253.9,69.3C253.9,69.2,253.9,69.2,253.9,69.3
										c0-0.1-0.1-0.2-0.2-0.2l0,0C253.7,69.2,253.8,69.3,253.9,69.3z"/>
								</g>
								<g>
									<path class="st3" d="M255.1,69.4L255.1,69.4c-0.1,0-0.1-0.1-0.2-0.1c-0.1,0-0.1,0,0,0.1C254.9,69.4,255,69.5,255.1,69.4z"
										/>
								</g>
								<g>
									<path class="st3" d="M244.1,70.7c0.3,0,0.5-0.1,0.5-0.1l0,0c-0.1-0.1-0.3-0.2-0.4-0.2c-0.4,0-0.5,0.2-0.5,0.2
										C243.8,70.6,243.9,70.7,244.1,70.7L244.1,70.7z"/>
								</g>
								<g>
									<path class="st3" d="M222,69.1c-0.4,0.1-0.7,0.1-0.8,0.1l0,0c0,0,0,0,0-0.1c-0.5,0.2-0.5,0.2-0.6,0.2l0,0
										c0.4-0.2,0.7-0.3,0.7-0.3l0,0c-0.2,0-1.1,0.3-1.1,0.3c0.1,0,0.2,0,0.2,0l0,0c0,0-0.4,0.2-0.5,0.2l0,0
										c-0.2,0-0.3,0.1-0.4,0.2c-0.2,0.2-0.5,0.2-0.8,0.3c0,0,0,0,0,0.1s-0.1,0.2,0.1,0.2h0.1c0.1,0,0.2,0,0.4-0.1s0.4,0,0.6,0
										c0.2,0,0.5-0.1,1-0.3c0.2-0.1,0.4-0.1,0.5-0.2l0,0C221.6,69.3,221.8,69.2,222,69.1L222,69.1z"/>
								</g>
								<g>
									<path class="st3" d="M219.6,72.5L219.6,72.5L219.6,72.5L219.6,72.5L219.6,72.5L219.6,72.5L219.6,72.5L219.6,72.5
										L219.6,72.5L219.6,72.5L219.6,72.5L219.6,72.5L219.6,72.5L219.6,72.5L219.6,72.5L219.6,72.5L219.6,72.5L219.6,72.5
										L219.6,72.5L219.6,72.5L219.6,72.5L219.6,72.5L219.6,72.5L219.6,72.5L219.6,72.5L219.6,72.5
										C219.5,72.5,219.5,72.5,219.6,72.5C219.5,72.5,219.5,72.5,219.6,72.5C219.5,72.5,219.5,72.5,219.6,72.5h-0.1l0,0l0,0l0,0
										l0,0l0,0l0,0l0,0l0,0l0,0l0,0l0,0l0,0l0,0l0,0l0,0l0,0l0,0l0,0l0,0l0,0l0,0l0,0l0,0l0,0l0,0l0,0l0,0l0,0l0,0l0,0l0,0l0,0
										l0,0l0,0l0,0l0,0l0,0l0,0l0,0l0,0l0,0l0,0l0,0l0,0l0,0l0,0l0,0l0,0l0,0l0,0l0,0l0,0l0,0l0,0l0,0l0,0l0,0l0,0
										C219.5,72.6,219.5,72.6,219.6,72.5C219.6,72.6,219.6,72.5,219.6,72.5L219.6,72.5L219.6,72.5L219.6,72.5L219.6,72.5
										L219.6,72.5L219.6,72.5z"/>
								</g>
								<g>
									<path class="st3" d="M228.1,73.7C228.1,73.7,228.2,73.7,228.1,73.7L228.1,73.7c-0.2,0-0.2-0.1-0.3-0.1s-0.2,0-0.3,0.1l0,0
										l0,0l-0.1,0.1C227.7,73.9,227.9,73.8,228.1,73.7z"/>
								</g>
								<g>
									<path class="st3" d="M216.3,73.3C216.2,73.3,216.2,73.3,216.3,73.3c-0.1,0-0.3,0-0.7,0.2c0.1,0.1,0.3,0,0.5-0.2
										C216.2,73.3,216.2,73.3,216.3,73.3z"/>
								</g>
								<g>
									<path class="st3" d="M225.7,75.1L225.7,75.1L225.7,75.1c0,0-0.1,0-0.2,0c-0.1,0-0.1,0-0.2,0l0,0l0,0l0,0l0,0l0,0l0,0l0,0
										l0,0l0,0l0,0l0,0l0,0l0,0l0,0l0,0l0,0v0.1C225,75.6,225.5,75.3,225.7,75.1z"/>
								</g>
								<g>
									<path class="st3" d="M215,73.8C215,73.8,215.1,73.8,215,73.8C215.1,73.8,215.1,73.8,215,73.8L215,73.8
										C215.1,73.8,215.1,73.8,215,73.8C215.1,73.8,215.1,73.8,215,73.8C215.1,73.8,215.1,73.8,215,73.8
										C215.1,73.8,215.1,73.8,215,73.8C215.1,73.8,215.1,73.8,215,73.8L215,73.8C215.1,73.8,215.1,73.8,215,73.8L215,73.8
										L215,73.8C215.1,73.8,215.1,73.8,215,73.8C215.1,73.8,215.1,73.8,215,73.8C215.1,73.8,215.1,73.8,215,73.8
										C215.1,73.8,215.1,73.8,215,73.8c0.1,0,0.1,0,0.1,0l0,0l0,0l0,0l0,0l0,0l0,0l0,0l0,0l0,0l0,0l0,0l0,0l0,0l0,0l0,0l0,0l0,0
										l0,0l0,0l0,0l0,0l0,0l0,0l0,0l0,0l0,0l0,0l0,0l0,0l0,0l0,0l0,0l0,0l0,0l0,0l0,0l0,0l0,0l0,0l0,0l0,0l0,0l0,0l0,0l0,0l0,0
										l0,0l0,0l0,0l0,0l0,0l0,0l0,0l0,0l0,0l0,0l0,0l0,0l0,0l0,0l0,0l0,0l0,0l0,0l0,0C215.1,73.7,215.1,73.7,215,73.8
										C215.1,73.7,215.1,73.7,215,73.8C215.1,73.7,215.1,73.7,215,73.8C215.1,73.7,215.1,73.8,215,73.8
										C215.1,73.8,215.1,73.8,215,73.8C215.1,73.8,215.1,73.8,215,73.8C215.1,73.8,215.1,73.8,215,73.8
										C215.1,73.8,215.1,73.8,215,73.8C215.1,73.8,215.1,73.8,215,73.8C215.1,73.8,215.1,73.8,215,73.8
										C215.1,73.8,215,73.8,215,73.8L215,73.8L215,73.8L215,73.8z"/>
								</g>
								<g>
									<path class="st3" d="M210.1,77c0.4-0.1,0.5-0.1,0.6-0.1l0,0c0,0,0,0,0,0.1c1.1-0.7,1.2-0.7,1.6-1.1
										c0.2-0.1,0.5-0.2,0.7-0.3c0,0,0.8-0.5,0.1-0.6H213c-0.1,0-0.2,0-0.3,0c-0.3,0.1-0.5,0.4-0.8,0.5l0,0l0,0l0,0l0,0l0,0l0,0
										l0,0l0,0c-0.2,0.1-0.5,0.3-0.7,0.4c-0.1,0.1-0.2,0.3-0.4,0.4c-0.8,0.4-0.8,0.4-1.2,0.7C209.4,76.9,209,77.3,210.1,77z"/>
								</g>
								<g>
									<path class="st3" d="M284.3,78.4c-0.1-0.1-0.2-0.1-0.3-0.2C284.1,78.3,284.1,78.3,284.3,78.4c0,0,0.2,0.1,0.2,0.1l0,0
										C284.5,78.6,284.3,78.4,284.3,78.4z"/>
								</g>
								<g>
									<path class="st3" d="M285.5,78.8L285.5,78.8L285.5,78.8C285.4,78.8,285.4,78.8,285.5,78.8
										C285.4,78.8,285.4,78.8,285.5,78.8c-0.1-0.1-0.1-0.1-0.1-0.1l0,0l0,0l0,0l0,0l0,0l0,0l0,0l0,0l0,0l0,0l0,0l0,0l0,0l0,0l0,0
										l0,0l0,0l0,0l0,0l0,0l0,0l0,0l0,0l0,0l0,0l0,0l0,0l0,0l0,0l0,0l0,0l0,0l0,0l0,0l0,0l0,0C285.4,78.8,285.4,78.8,285.5,78.8
										C285.4,78.8,285.4,78.8,285.5,78.8C285.4,78.8,285.4,78.8,285.5,78.8L285.5,78.8L285.5,78.8
										C285.5,78.8,285.5,78.9,285.5,78.8C285.5,78.9,285.5,78.9,285.5,78.8L285.5,78.8C285.5,78.9,285.5,78.9,285.5,78.8
										C285.5,78.9,285.5,78.9,285.5,78.8L285.5,78.8L285.5,78.8L285.5,78.8L285.5,78.8L285.5,78.8L285.5,78.8L285.5,78.8
										L285.5,78.8L285.5,78.8L285.5,78.8L285.5,78.8L285.5,78.8L285.5,78.8L285.5,78.8z"/>
								</g>
								<g>
									<path class="st3" d="M294.2,87.3L294.2,87.3c0.2,0,0.3,0.2,0.5,0.2c-0.3-0.4-0.5-0.8-0.8-1.1c-0.2-0.2-0.2-0.3-0.5-0.5
										c0.1,0.1,0.1,0.1,0.1,0.1c-0.1,0-0.1-0.1-0.6-0.5c-0.3-0.2-0.5-0.4-0.7-0.6c0.1,0.1,0.2,0.2,0.5,0.6c0.6,0.7,1,1,1,1.2l0,0
										c0,0,0,0,0.6,0.9l0,0c0,0,0.1,0.1,0.4,0.5l0,0c0,0,0,0,0.1,0.1c0-0.1-0.2-0.5-0.4-0.6C294.5,87.7,294.1,87.4,294.2,87.3z"
										/>
								</g>
								<g>
									<path class="st3" d="M211,85c0.3-0.3,0.1-0.4,0-0.4l0,0l0,0l0,0l0,0l0,0l0,0l0,0l0,0c-0.7,0.4-0.8,0.9-0.6,1.1
										C210.6,85.4,210.8,85.2,211,85z"/>
								</g>
								<g>
									<path class="st3" d="M208.9,87.5l0.6-0.2l0,0c0.1-0.2,0.2-0.3,0.3-0.4c0.1-0.2,0.3-0.3,0.4-0.5c0.2-0.3,0.2-0.4,0.2-0.5
										l0,0l0,0l0,0l0,0l0,0l0,0c-0.3,0-0.7,0.1-1,0.3c0,0.1-0.1,0.3-0.4,0.7c-0.2,0.2-0.3,0.4-0.4,0.5
										C208.6,87.4,208.7,87.5,208.9,87.5z"/>
								</g>
								<g>
									<path class="st3" d="M298.4,96.6c0.1,0.1,0.1,0.1,0.7,1.2c0,0,0-0.1,0.1-0.1l0,0c0.1,0.1,0.1,0.2,0.2,0.2
										c-0.1-0.5-0.5-1.9-1.4-2.6h0.1l0,0l0,0c0.1,0,0.1-0.1,0.1-0.2c0.2,0.4,0.4,0.8,0.7,1.1l0,0c0.1-0.1-0.1-1-0.1-1
										c-0.1-0.3-0.4-0.5-0.5-0.7c0,0,0,0,0.1,0c0,0,0,0,0.1-0.1l0,0c0.1,0,0.1,0,0.2,0.2c0.3,0.6,0.3,0.6,0.5,0.8l0,0
										c-0.2-0.4-0.3-0.8-0.5-1.2c0.2,0.2,0.2,0.2,0.3,0.2c0-0.2-0.2-0.4-0.2-0.6c0.1,0.1,0.1,0.2,0.2,0.3
										c-0.1-0.2-0.2-0.4-0.3-0.7c0.3,0.4,0.3,0.4,0.3,0.5c0,0-1.9-3-2-3.2c0,0-0.2-0.3-0.4-0.6c-0.5-0.6-0.9-1.1-1.1-1.4h-0.1
										c0,0,0,0.1,0.1,0.3c1.7,2,2,2.9,2.2,3.5c-0.2-0.2-0.3-0.4-0.5-0.6c0.4,0.7,0.8,1.3,0.9,1.7c0,0-0.1-0.1-0.2-0.1
										c-0.6-0.1,0.1,2.6,0.1,2.6C298,96.4,298.2,96.4,298.4,96.6z"/>
								</g>
								<g>
									<path class="st3" d="M205.8,86.7C205.9,86.7,205.9,86.7,205.8,86.7C205.9,86.6,205.9,86.6,205.8,86.7
										c0.2-0.3,0.2-0.4,0.1-0.4c0,0-0.2,0-0.5,0.2C205.5,86.6,205.6,86.7,205.8,86.7z"/>
								</g>
								<g>
									<path class="st3" d="M219,92.2C219,92.2,219,92.1,219,92.2c-0.3-0.1-0.3-0.1-1.9-0.5C217.2,92.2,218.5,92.3,219,92.2z"/>
								</g>
								<g>
									<path class="st3" d="M225.6,92.7c0.1-0.1-0.1-0.2-0.1-0.2c-0.4,0.3-1.3-0.2-1.5,0.5C224.2,93.5,225.4,93,225.6,92.7z"/>
								</g>
								<g>
									<path class="st3" d="M191.4,94.6c0.1,0,0.3-0.2,0.3-0.3c0,0,0.2-0.3,0.1-0.4C191.7,94.2,191.5,94.4,191.4,94.6
										C191.3,94.6,191.3,94.6,191.4,94.6L191.4,94.6z"/>
								</g>
								<g>
									<path class="st3" d="M190.7,94.8L190.7,94.8L190.7,94.8L190.7,94.8L190.7,94.8L190.7,94.8L190.7,94.8L190.7,94.8
										L190.7,94.8L190.7,94.8L190.7,94.8L190.7,94.8L190.7,94.8L190.7,94.8L190.7,94.8L190.7,94.8L190.7,94.8L190.7,94.8
										L190.7,94.8L190.7,94.8L190.7,94.8L190.7,94.8L190.7,94.8L190.7,94.8L190.7,94.8L190.7,94.8L190.7,94.8L190.7,94.8
										L190.7,94.8C190.8,94.8,190.8,94.8,190.7,94.8C190.8,94.8,190.8,94.8,190.7,94.8c0.1,0,0.1,0,0.1,0l0,0l0,0l0,0l0,0l0,0
										l0,0l0,0l0,0l0,0l0,0l0,0l0,0l0,0l0,0l0,0l0,0l0,0l0,0l0,0l0,0l0,0l0,0l0,0l0,0l0,0l0,0l0,0l0,0l0,0l0,0l0,0l0,0l0,0l0,0
										l0,0l0,0l0,0l0,0l0,0l0,0l0,0l0,0l0,0l0,0l0,0l0,0l0,0l0,0l0,0l0,0l0,0l0,0l0,0l0,0l0,0l0,0l0,0l0,0
										C190.7,94.7,190.7,94.7,190.7,94.8C190.7,94.7,190.7,94.7,190.7,94.8C190.7,94.7,190.7,94.7,190.7,94.8
										C190.7,94.7,190.7,94.7,190.7,94.8C190.7,94.7,190.7,94.8,190.7,94.8L190.7,94.8L190.7,94.8z"/>
								</g>
								<g>
									<path class="st3" d="M298.6,103.9c-0.4,0.5,0,2.7,0.9,3.3c-0.2-0.8-0.2-1.6-0.4-2.4C298.9,104.3,298.7,104,298.6,103.9z"/>
								</g>
								<g>
									<path class="st3" d="M303,115.2L303,115.2L303,115.2C303,115.3,303,115.3,303,115.2C303,115.3,303,115.3,303,115.2
										C303,115.3,303,115.3,303,115.2L303,115.2L303,115.2L303,115.2L303,115.2L303,115.2L303,115.2L303,115.2L303,115.2
										L303,115.2L303,115.2L303,115.2L303,115.2L303,115.2L303,115.2L303,115.2L303,115.2L303,115.2L303,115.2L303,115.2
										L303,115.2L303,115.2L303,115.2L303,115.2L303,115.2L303,115.2L303,115.2L303,115.2L303,115.2L303,115.2L303,115.2
										L303,115.2L303,115.2L303,115.2L303,115.2L303,115.2L303,115.2L303,115.2L303,115.2L303,115.2L303,115.2L303,115.2
										L303,115.2L303,115.2L303,115.2L303,115.2L303,115.2L303,115.2L303,115.2L303,115.2L303,115.2L303,115.2L303,115.2
										L303,115.2L303,115.2L303,115.2L303,115.2L303,115.2L303,115.2L303,115.2L303,115.2L303,115.2L303,115.2L303,115.2
										L303,115.2C303.1,115.1,303.1,115.1,303,115.2C303.1,115.1,303.1,115.1,303,115.2C303,115.1,303,115.1,303,115.2L303,115.2
										C303,115.1,303,115.1,303,115.2C303,115.1,303,115.1,303,115.2C303,115.1,303,115.1,303,115.2L303,115.2
										C303,115.1,303,115.1,303,115.2C303,115.1,303,115.1,303,115.2L303,115.2C303,115.1,303,115.1,303,115.2L303,115.2
										C303,115.1,303,115.1,303,115.2L303,115.2C303,115.1,303,115.1,303,115.2L303,115.2C303,115.1,303,115.1,303,115.2
										L303,115.2L303,115.2L303,115.2L303,115.2L303,115.2L303,115.2L303,115.2L303,115.2L303,115.2z"/>
								</g>
								<g>
									<path class="st3" d="M281.7,117.4c-0.1,0.6-0.1,0.9,0.2,1.2c0-0.4,0.1-0.9,0.1-1.3c0-0.5-0.2-0.6-0.3-0.7
										C281.8,116.8,281.8,117.1,281.7,117.4z"/>
								</g>
								<g>
									<path class="st3" d="M302,116.7c-0.1-0.4-0.2-0.9-0.5-0.9h-0.1c0.1,0.7,0.3,1.2,0.6,1.4C302,117.3,302.1,117.1,302,116.7z"
										/>
								</g>
								<g>
									<path class="st3" d="M240.9,116.1c-0.2,0-0.2,0-0.3,0s-0.2,0-0.3,0l0,0l0,0c-0.1,0.1-0.1,0.2-0.1,0.3c0.1,0,0.2,0,0.3,0
										c0.5,0,0.8,0,0.9-0.3c0,0,0,0,0-0.1C241.4,116.1,241.2,116.1,240.9,116.1z"/>
								</g>
								<g>
									<path class="st3" d="M303.7,117.9C303.7,117.9,303.6,117.9,303.7,117.9c-0.1-0.1-0.2-0.1-0.2-0.1v0.2
										c0,0.1,0.1,0.1,0.1,0.2c0.1,0.1,0.1,0.2,0.1,0.5c0.1,0.4,0.2,0.5,0.3,0.6c0-0.5,0-1.1-0.1-1.6c-0.1-0.9-0.3-1-0.5-1l0,0
										h-0.1c0,0.3,0.1,0.4,0.2,0.6C303.6,117.4,303.7,117.5,303.7,117.9z"/>
								</g>
								<g>
									<path class="st3" d="M302.9,116.9c0,0.1,0.1,0.5,0.2,0.6s0.2-0.1,0.1-0.2C303.2,117.1,303.2,116.9,302.9,116.9z"/>
								</g>
								<g>
									<path class="st3" d="M301.6,117.7L301.6,117.7L301.6,117.7C301.6,117.6,301.6,117.6,301.6,117.7
										C301.6,117.6,301.6,117.6,301.6,117.7C301.6,117.6,301.6,117.6,301.6,117.7L301.6,117.7L301.6,117.7L301.6,117.7
										L301.6,117.7L301.6,117.7L301.6,117.7L301.6,117.7L301.6,117.7L301.6,117.7L301.6,117.7L301.6,117.7L301.6,117.7
										L301.6,117.7L301.6,117.7L301.6,117.7L301.6,117.7L301.6,117.7L301.6,117.7L301.6,117.7L301.6,117.7L301.6,117.7
										L301.6,117.7L301.6,117.7L301.6,117.7L301.6,117.7L301.6,117.7L301.6,117.7L301.6,117.7L301.6,117.7L301.6,117.7
										L301.6,117.7L301.6,117.7L301.6,117.7L301.6,117.7L301.6,117.7L301.6,117.7L301.6,117.7L301.6,117.7L301.6,117.7
										L301.6,117.7L301.6,117.7L301.6,117.7L301.6,117.7L301.6,117.7L301.6,117.7C301.5,117.8,301.5,117.8,301.6,117.7
										C301.5,117.8,301.5,117.8,301.6,117.7C301.5,117.8,301.5,117.8,301.6,117.7C301.5,117.8,301.5,117.8,301.6,117.7
										C301.5,117.8,301.5,117.8,301.6,117.7C301.5,117.8,301.5,117.8,301.6,117.7L301.6,117.7
										C301.5,117.8,301.5,117.8,301.6,117.7C301.5,117.8,301.6,117.8,301.6,117.7C301.6,117.8,301.6,117.8,301.6,117.7
										C301.6,117.8,301.6,117.8,301.6,117.7C301.6,117.8,301.6,117.8,301.6,117.7L301.6,117.7L301.6,117.7z"/>
								</g>
								<g>
									<path class="st3" d="M303.7,121.2c0,0-0.2,0-0.3-0.2c0,0.2-0.1,0.2-0.2,0.5c-0.2,0.3-0.3,0.5-0.3,1.3
										c0.1-0.4,0.2-0.4,0.4-0.5c0.2-0.1,0.2-0.1,0.3-0.3c0.2,0.1,0.2,0.3,0.2,1.1c0,0.1,0,0.1,0,0.2c0,0,0.5,0.9,0.7,0.7
										c0,0,0.1-0.1,0-0.7c-0.1-0.4-0.1-0.5,0-0.7c0,0,0,0,0.1-0.1c0.2,0.1,0,0.3,0.2,0.4c0.1,0,0.1,0,0.1-0.9
										c0-0.3-0.1-2-0.6-2.3C304.3,121.1,303.8,121.2,303.7,121.2z"/>
								</g>
								<g>
									<path class="st3" d="M296.2,134.8c0.3-0.1,0.1-0.4,0.3-0.6c0.2,0.6,0.2,0.6,1.3,0.1c0.1,0.2,0.1,0.2,0.3,0.3
										c0.3,0.1,0.5,0.2,0.3,0.8c0.3-0.2,0.4-0.5,0.8-0.6c0.1,0,0.2,0.1,0.3,0.2c0-0.8,0.5-1.6,0.4-2.5c0.2-0.3,0.4-0.6,0.7-0.8
										c0-0.9,0-0.9,0.1-1.8c0.3,0.1,0.4-0.2,0.6-0.3h0.1c0,0-1.1-3.3,0.1-3.9c-0.3-0.5-0.3-0.5-0.4-0.5l0,0l0,0l0,0l0,0l0,0l0,0
										l0,0l0,0c0.3,0,0.5-0.1,0.5-0.6l0,0l0,0l0,0l0,0l0,0l0,0l0,0l0,0l0,0c-1,0-0.6-1.3-1.3-1.6c-0.4,1.2-0.9,2.4-0.9,2.4
										c-0.1,0.2-0.4,0.3-0.5,0.5c-0.3,0.4-0.4,0.8-0.6,1.2c-0.1,0.1-0.2,0.3-0.2,0.3c-0.1,0.1-0.4,0.4-0.8,0.4h-0.1
										c-0.3,0.3,0,0.8-0.3,1.2c-0.1,0-0.1,0-0.3,0c-0.3,0-0.5,0-0.8-0.2c-0.4,0.8-0.4,0.8-0.2,3.7
										C296.6,132.6,295.1,134.3,296.2,134.8z"/>
								</g>
								<g>
									<path class="st3" d="M195.6,122.1c0,0,0.1-0.1,0.1-0.3c0,0,0-0.3-0.1-0.3l0,0c0,0.1,0,0.2-0.1,0.2l0,0l0,0l0,0l0,0l0,0l0,0
										l0,0l0,0l0,0l0,0l0,0l0,0l0,0l0,0l0,0l0,0l0,0C195.4,122.1,195.5,122.2,195.6,122.1z"/>
								</g>
								<g>
									<path class="st3" d="M305.5,127.8C305.5,127.8,305.6,127.8,305.5,127.8C305.6,127.8,305.6,127.8,305.5,127.8
										C305.6,127.8,305.6,127.8,305.5,127.8C305.6,127.8,305.6,127.8,305.5,127.8C305.6,127.8,305.6,127.8,305.5,127.8
										C305.6,127.8,305.6,127.8,305.5,127.8C305.6,127.8,305.6,127.8,305.5,127.8C305.6,127.8,305.6,127.8,305.5,127.8
										c0.1,0,0.1,0,0.1,0l0,0l0,0l0,0l0,0l0,0l0,0l0,0l0,0l0,0l0,0l0,0l0,0l0,0l0,0l0,0l0,0l0,0l0,0l0,0l0,0l0,0l0,0l0,0l0,0l0,0
										l0,0l0,0l0,0l0,0l0,0l0,0l0,0l0,0l0,0l0,0l0,0l0,0l0,0l0,0l0,0l0,0l0,0l0,0l0,0l0,0l0,0l0,0l0,0
										C305.5,127.7,305.5,127.7,305.5,127.8C305.5,127.7,305.5,127.7,305.5,127.8C305.5,127.7,305.5,127.7,305.5,127.8
										L305.5,127.8L305.5,127.8L305.5,127.8L305.5,127.8z"/>
								</g>
								<g>
									<path class="st3" d="M305.1,130.9c0,0,0.1,0,0.1-0.1c0.1-0.1,0.1-0.1,0.1-0.1c0-0.7,0-1.1,0.2-1.1l0,0c0.1,0,0.1,0,0.1,0.1
										c0-0.1,0.1-0.3,0.1-0.6c0-0.3,0-0.5,0-0.8c-0.1,0.3-0.1,0.3-0.1,0.3s0-0.1-0.1-0.4c0-0.2,0-0.2,0-0.3
										c0,0.1-0.1,0.3-0.1,0.6c0,0.6,0,1.1,0,1.7c0,0.1-0.2,0.2-0.3,0.3C304.9,130.9,305.1,130.9,305.1,130.9z"/>
								</g>
								<g>
									<path class="st3" d="M286.2,129.7c-0.1,0-0.1,0-0.2,0c0,0.2,0,0.7,0.5,0.8l0,0C286.6,130,286.5,129.7,286.2,129.7z"/>
								</g>
								<g>
									<path class="st3" d="M306.4,130.3L306.4,130.3c0-0.2,0-0.4-0.1-0.4s-0.1,0.1-0.1,0.3c0,0,0.1,0.1,0.1,0.2L306.4,130.3z"/>
								</g>
								<g>
									<path class="st3" d="M287.6,132.9c0-0.2,0-0.6-0.3-0.7c-0.4,0.4-0.1,0.8,0.2,1C287.5,133.1,287.6,133,287.6,132.9z"/>
								</g>
								<g>
									<path class="st3" d="M305.2,131.7L305.2,131.7L305.2,131.7L305.2,131.7L305.2,131.7L305.2,131.7
										C305.1,131.7,305.1,131.7,305.2,131.7L305.2,131.7C305.1,131.7,305.1,131.7,305.2,131.7
										C305.1,131.7,305.1,131.7,305.2,131.7C305.1,131.7,305.1,131.7,305.2,131.7C305.1,131.7,305.1,131.7,305.2,131.7
										C305.1,131.7,305.1,131.7,305.2,131.7h-0.1l0,0l0,0l0,0l0,0l0,0l0,0l0,0l0,0l0,0l0,0l0,0l0,0l0,0l0,0l0,0l0,0l0,0l0,0l0,0
										l0,0l0,0l0,0l0,0l0,0l0,0l0,0l0,0l0,0l0,0l0,0l0,0l0,0l0,0l0,0l0,0l0,0l0,0l0,0l0,0l0,0l0,0l0,0l0,0l0,0l0,0l0,0l0,0l0,0
										l0,0l0,0l0,0l0,0l0,0l0,0l0,0l0,0l0,0l0,0l0,0l0,0l0,0l0,0l0,0l0,0l0,0l0,0l0,0l0,0l0,0l0,0l0,0
										C305.2,131.8,305.2,131.8,305.2,131.7C305.2,131.8,305.2,131.8,305.2,131.7C305.2,131.8,305.2,131.8,305.2,131.7
										C305.2,131.8,305.2,131.8,305.2,131.7L305.2,131.7L305.2,131.7L305.2,131.7L305.2,131.7L305.2,131.7L305.2,131.7
										L305.2,131.7L305.2,131.7z"/>
								</g>
								<g>
									<path class="st3" d="M303.8,132.4c0,0.1,0.1,0.1,0.2-0.2l0,0c-0.1,0-0.1,0-0.1,0C303.8,132.2,303.8,132.4,303.8,132.4z"/>
								</g>
								<g>
									<path class="st3" d="M306,132C306,131.9,306,131.9,306,132c-0.1,0-0.2,0-0.2,0.3l0,0v0.1l0,0
										C305.9,132.3,305.9,132.3,306,132z"/>
								</g>
								<g>
									<path class="st3" d="M294.5,134.2c0-0.1,0-0.2,0-0.3c-0.1,0-0.1,0-0.2,0c-0.4,0-0.5,0.2-0.4,0.8
										C294.2,134.6,294.5,134.6,294.5,134.2z"/>
								</g>
								<g>
									<path class="st3" d="M304.5,133.7C304.5,133.7,304.4,133.7,304.5,133.7c-0.1,0-0.2,0-0.2,0l0,0l0,0l0,0
										c0,0.2,0,0.4,0.1,0.6c0.1,0.1,0.1,0.1,0.2,0s0.1-0.1,0.1-0.3l0,0C304.8,133.7,304.6,133.7,304.5,133.7z"/>
								</g>
								<g>
									<path class="st3" d="M306.2,137.3L306.2,137.3L306.2,137.3C306.3,137.3,306.3,137.3,306.2,137.3
										C306.3,137.3,306.3,137.3,306.2,137.3C306.3,137.3,306.3,137.3,306.2,137.3C306.3,137.3,306.3,137.3,306.2,137.3
										C306.3,137.3,306.3,137.3,306.2,137.3c0.1,0,0.1,0,0.1,0l0,0l0,0l0,0l0,0l0,0l0,0v-0.1l0,0l0,0l0,0
										c0.2-0.9,0.2-1.3,0.2-1.5C306.5,136.1,306.3,136.6,306.2,137.3C306.2,137.4,306.2,137.4,306.2,137.3
										C306.2,137.4,306.2,137.4,306.2,137.3z"/>
								</g>
								<g>
									<path class="st3" d="M223.5,135c-0.1,0.2,0,0.5,0,0.5c0.1,0.1,0.3,0.2,0.3-0.1l0,0C223.6,135.3,223.7,135,223.5,135z"/>
								</g>
								<g>
									<path class="st3" d="M292.4,138.8c0.1,0.3,0.2,0.5,0.6,0.5c0.1,0,0.1,0,1,0c0.3,0,0.4,0,0.6,0c0.3,0.1,0.5,0.4,0.8,0.5
										c0,0,0.4,0.1,1.3,0.2c1.2,0.1,1.4,0.1,1.6-0.4l0,0c-0.8-0.2-1.1-0.4-1.5-0.8c0.1-0.2,0.2-0.2,0.4-0.2c0.2,0,0.4,0,0.4-0.3
										l0,0l0,0c-0.2,0.1-0.3,0.1-0.4,0.1l0,0c-0.3,0-0.4,0-0.7-0.2c-0.6-0.2-0.9-0.3-1.3,0.4c-0.9-0.1-1.4-0.9-2.3-1
										c-0.4,0-0.8,0.3-1.1,1c0.1-0.1,0.1-0.1,0.2-0.1C292.3,138.4,292.3,138.6,292.4,138.8z"/>
								</g>
								<g>
									<path class="st3" d="M303.7,138.4L303.7,138.4L303.7,138.4L303.7,138.4C303.7,138.4,303.6,138.4,303.7,138.4
										C303.6,138.4,303.6,138.4,303.7,138.4C303.6,138.4,303.6,138.4,303.7,138.4C303.6,138.4,303.6,138.4,303.7,138.4
										C303.6,138.4,303.6,138.4,303.7,138.4C303.6,138.4,303.6,138.4,303.7,138.4C303.6,138.4,303.6,138.4,303.7,138.4
										C303.6,138.4,303.6,138.4,303.7,138.4C303.6,138.4,303.6,138.4,303.7,138.4c-0.1,0-0.1,0-0.1,0l0,0c0,0.1-0.1,0.3-0.1,0.4
										C303.6,138.8,303.7,138.7,303.7,138.4L303.7,138.4L303.7,138.4L303.7,138.4z"/>
								</g>
								<g>
									<path class="st3" d="M300.2,139.8C300.2,139.8,300.2,139.7,300.2,139.8c-0.1-0.2-0.2-0.3-0.3-0.2c-0.4,0-0.6,0.4-1,0.5
										c0,0,0-0.1-0.1-0.2s-0.3-0.1-0.3,0.4c0.3,0.1,0.5,0.1,0.9,0.1l0,0l0,0l0,0l0,0l0,0l0,0l0,0l0,0l0,0l0,0c0-0.1,0-0.3,0-0.4
										s0-0.1,0.1-0.2c0,0.1,0,0.1,0,0.2C299.7,140.2,300,140.2,300.2,139.8z"/>
								</g>
								<g>
									<path class="st3" d="M302.9,139.4c0,0,0.1-0.1,0.1-0.2l0,0l0,0c0,0,0,0-0.1,0l0,0c-0.1,0-0.1,0-0.2,0s-0.1,0.1-0.1,0.2l0,0
										l0,0c0,0,0,0,0.1,0c0,0,0,0,0.1,0C302.8,139.4,302.8,139.4,302.9,139.4z"/>
								</g>
								<g>
									<path class="st3" d="M303.7,139.3L303.7,139.3L303.7,139.3c-0.6,0.1-1.6,0.8-1.8,2.2C302.4,140.8,303.1,140.1,303.7,139.3
										L303.7,139.3L303.7,139.3L303.7,139.3z"/>
								</g>
								<g>
									<path class="st3" d="M300.6,140.9c-0.2-0.3-0.3-0.3-0.4-0.3c-0.2,0-0.3,0.3-0.4,0.4c0.1,0,0.2,0.1,0.3,0.2
										c0.2,0.2,0.3,0.4,0.6-0.1V141C300.7,141,300.7,141,300.6,140.9z"/>
								</g>
								<g>
									<path class="st3" d="M232.6,143.9C232.5,143.9,232.5,143.9,232.6,143.9c-0.4,1.6-1.1,1.7-3.8,2.2c-0.6,1.1-0.3,2.3,0.2,3.8
										c-0.3,0.5-0.7,0.9-1,1.3c-0.6,1.1,0.8,3.5,0.8,3.5c0.2,0.2,0.9,0.5,2.9-0.1c0.8-3,2.7-5.7,2.5-8.9h0.1c0,0,0,0,0.1,0
										c0.3,0.1,0.5,0.5,0.8,0.2l0,0c-0.3-2.1-0.5-2.8-1.2-3.6C233.5,142.9,233.6,143.9,232.6,143.9z"/>
								</g>
								<g>
									<path class="st3" d="M293.5,163.9L293.5,163.9L293.5,163.9L293.5,163.9L293.5,163.9L293.5,163.9
										C293.4,163.9,293.4,163.9,293.5,163.9C293.4,163.9,293.4,163.9,293.5,163.9C293.4,163.9,293.4,163.9,293.5,163.9
										C293.4,163.9,293.4,163.9,293.5,163.9C293.4,163.9,293.4,163.9,293.5,163.9C293.4,163.9,293.4,163.9,293.5,163.9
										L293.5,163.9C293.4,163.9,293.4,163.9,293.5,163.9C293.4,163.9,293.4,163.9,293.5,163.9
										C293.4,163.9,293.4,163.9,293.5,163.9C293.4,163.9,293.4,163.9,293.5,163.9C293.4,163.9,293.4,163.9,293.5,163.9
										C293.4,163.9,293.4,163.9,293.5,163.9C293.4,163.9,293.4,163.9,293.5,163.9c-0.1,0-0.1,0-0.1,0l0,0l0,0l0,0l0,0l0,0l0,0
										l0,0l0,0l0,0l0,0l0,0l0,0l0,0l0,0l0,0l0,0l0,0l0,0l0,0l0,0l0,0l0,0l0,0l0,0l0,0l0,0l0,0l0,0l0,0l0,0l0,0l0,0l0,0l0,0l0,0
										l0,0l0,0l0,0l0,0l0,0l0,0l0,0l0,0l0,0l0,0l0,0l0,0l0,0l0,0l0,0l0,0l0,0l0,0l0,0C293.4,164,293.4,164,293.5,163.9
										C293.4,164,293.4,163.9,293.5,163.9C293.4,163.9,293.4,163.9,293.5,163.9L293.5,163.9L293.5,163.9L293.5,163.9z"/>
								</g>
								<g>
									<path class="st3" d="M262.9,182.4c-0.1,0-0.2-0.1-0.3-0.1c0.1,0,0.1-0.1,0.2-0.2c-1.5,0-3.1,0.2-4.6,0.1
										c0.1-0.3,0.1-0.3,0.6-0.5c-0.6,0.1-1.1,0.2-2,0.7c-0.5,0.1-0.6,0.1-1,0.1c0,0,0,0-0.1,0c-0.5,0-0.6,0-1,0c0,0,0,0-0.1,0
										s-0.2,0-0.2,0c-0.1-0.1-0.2-0.2-0.3-0.3c-1.1,0.2-1.6,0.3-2.3,0.3c-0.1,0-0.3,0-0.4,0c-0.3,0.1-0.7,0.2-1,0.4
										c-0.1,0-0.3,0-0.5,0c-0.1,0-0.2,0-0.3,0c-0.2,0-0.4,0.1-0.5,0.1c0,0-3.2,0.3-3.6-0.4c-0.3,0-0.5,0-0.8,0l0,0l0,0l0,0l0,0
										l0,0l0,0l0,0l0,0c-2.2-0.1-3.5-0.3-4.5-0.5c0.1,0,0.2-0.1,0.2-0.1c-0.6-0.2-1.7-0.5-3.1-0.3c0,0,0,0-0.1,0.1
										c0,0.1,0,0.2,0,0.2c-0.7-0.2-0.7-0.2-0.8-0.2c0,0,0,0,0,0.1s0.1,0.2,0.1,0.2c-0.5-0.1-0.7-0.2-0.9-0.2
										c0,0.1-0.1,0.1-0.2,0.2c-1.4,0-1.6,0-2.2,0.2c0,0.1,0.1,0.1,0.1,0.2c-0.1,0-0.2,0-0.2,0c-0.1,0-0.3-0.1-0.4-0.1
										c-1.6-0.4-1.6-0.4-3.7-0.3c-0.5-0.1-0.5-0.1-0.6-0.1l-0.2,0.1l0,0l0,0l0,0c-0.7-0.1-1.4-0.3-2.2-0.4c-0.1,0-0.3,0-0.4,0
										c-0.3,0-0.6-0.2-0.9-0.2l-0.2,0.1h-0.2c-0.6-0.1-1.3-0.1-1.9-0.2c-0.5-0.1-1-0.3-1.6-0.3c-0.2,0-0.4,0.1-0.6,0.1
										c0.1,0,0.2,0.1,0.2,0.1s0,0,0.2,0.1c0.1,0,0.1,0.1,0.2,0.1l0.2,0.1c4.5,1.6,7.2,2.1,10.8,2.8c0.8,0.1,0.9,0.2,2.3,0.4
										c0.6,0.1,0.6,0.1,1.6,0.2c0.4,0.1,0.8,0.1,1.2,0.1c0.3,0,0.7,0.1,1,0.1c0.2,0,0.3,0,0.5,0s0.4,0,0.6,0c0.5,0,1,0.1,1.5,0.1
										c0.1,0,0.2,0,0.4,0c0.9,0,1.9,0.1,2.8,0.1c0.2,0,0.4,0,0.6,0c0.7,0,1.5,0,2.2-0.1c0.4,0,0.8,0,1.1,0c0.9,0,1.8-0.1,2.7-0.2
										c0.1,0,0.2,0,0.4,0c5.3-0.5,10.3-1.6,15.1-3.2c0.1-0.1,0.2-0.1,0.3-0.2C264.9,181.9,264,182.3,262.9,182.4z"/>
								</g>
								<g>
									<path class="st3" d="M260.4,181.9c-0.2,0.1-0.3,0.1-0.3,0.2c0,0,0,0,0.1,0C260.3,182,260.5,182,260.4,181.9
										C260.5,181.9,260.5,181.9,260.4,181.9L260.4,181.9z"/>
								</g>
								<g>
									<path class="st3" d="M267.3,68.8c0.2,0.1,0.4,0.2,0.5,0.2c0,0,0,0,0.1,0.1c0.2,0.1,0.4,0.1,0.5,0.2l-0.1,0.1h-0.1
										c0,0.1,0.1,0.1,0.1,0.2c-0.2-0.1-0.4-0.1-0.5-0.2c0.2,0.1,0.4,0.3,0.6,0.4c-0.7-0.2-0.7-0.2-1.7-0.7c-1-0.3-1-0.3-1.9-0.3
										c0.2,0.1,0.4,0.2,0.6,0.2v0.1c-0.2,0-0.4,0-0.6,0l-0.2-0.1h0.1c0,0,0,0-0.2-0.1l-0.4-0.1H264l-0.4,0.1
										c-0.3,0-0.7-0.2-0.9-0.3l-0.3-0.1h-0.1c0,0,0,0-0.1,0c-0.2-0.2-0.6-0.6-2.2-0.8l-0.4,0.1l-0.3-0.2l-0.2-0.1
										c-0.2,0-0.6-0.1-0.8-0.1l0.2,0.4l-0.4,0.1c-0.2,0-0.4-0.1-0.6-0.2l-0.2-0.2h-0.1l0.1,0.2l0,0l0.1,0.1l0,0l0,0l0,0l0,0
										c0,0,0,0,0.1,0c-0.3,0.1-0.8,0.3-1.1,0.4c0,0.2-0.1,0.4-0.1,0.6c-0.4,0-0.9,0.1-1.3,0.1c0.1,0.1,0.3,0.2,0.4,0.3
										c0.3,0.1,0.7,0.2,1,0.3h-0.2c-0.1,0-1.8-0.1-3.1-0.6l0,0c0,0.2,0.3,0.3,0.4,0.5c-0.2,0.1-0.4,0.2-0.6,0.3
										c0-0.2-0.1-0.4-0.1-0.5c-0.3-0.1-0.7-0.3-1-0.4c-0.5,0.2-0.6,0.8-1,1.1c0.1,0.1,0.2,0.3,0.3,0.5c0.3,0.1,0.7,0.3,1,0.5
										l-0.2,0.2c-1.4-0.2-2.7-0.8-4.1-1.1c0.3,0.2,0.7,0.5,0.9,0.7h-0.4h-0.4c-3.1-0.2-4.1,0.2-5.2,0.5h-0.1c0,0,0,0-0.3,0
										c0,0,0,0-0.3-0.1l0.3-0.1c0.1,0,0.2,0,0.3,0.1c-0.1-0.1-0.2-0.3-0.3-0.5c-0.2,0-0.4,0-0.6,0c-0.1,0.1-0.2,0.3-0.4,0.4l0,0
										l0,0l0,0c0,0.1,0.1,0.2,0.1,0.3c-0.1,0.1-0.3,0.2-0.5,0.3c0,0-1.4-0.5-2.1,0.6h-0.3l-0.5-0.1c-0.2-0.1-0.5-0.1-0.8-0.1
										l0.2,0.2l0,0l0,0l0,0l0,0l0,0c0,0,0,0,0.2,0.2l0,0l0,0l0,0l-0.5,0.2c-0.2-0.1-0.5-0.3-0.7-0.4c0.1-0.3,0.2-0.6,0.3-0.9
										c-0.1-0.1-0.3-0.3-0.4-0.4H236l0.5-0.2c0.3,0.1,0.7,0.3,1,0.4h0.2h0.2c0.3,0.1,0.7,0.2,1,0.3c0.5,0,0.5,0,1.3-0.4
										c-0.3-0.4-0.6-0.9-2.1-1.2l0,0l-0.2-0.3h-0.1c0,0-0.1,0-0.2,0s-0.1,0-0.1,0s-0.1,0-0.2,0h-0.1h-0.1c-0.1,0-0.1,0-0.2,0
										h-0.1l0,0l0,0l0,0l0,0c0,0,0,0,0.4-0.1l0,0l0,0l0,0l0,0l0,0l0,0l0,0l0,0c0,0,0,0,0.3,0c-0.2-0.2-0.5-0.3-0.7-0.3
										c-0.3,0-0.6,0-0.9,0c0.1-0.1,0.3-0.1,0.4-0.2c-1.8,0.3-2,0.3-2.7,0.2c-0.4,0-0.8,0.1-1.2,0.2l0,0l-0.1,0.2H232
										c0,0,0,0-0.3-0.1c-0.3,0-0.6,0.1-0.8,0.2l-0.1,0.1l0,0c0,0,0,0,0.2,0h0.2l-0.1,0.1c-3.4,1.4-7.3,1.6-10.4,3.8l-0.1,0.1
										c-0.1,0.2-0.2,0.4-0.3,0.6c0.8,0,1.6-0.3,2.4-0.3h0.1c-0.3,0.2-0.3,0.2-1.2,1.6c-0.3,0.1-0.8,0.2-1.1,0.2
										c-0.2,0.2-0.5,0.5-0.7,0.6l0,0l0,0l0,0l0,0l0,0l0,0l0.1,0.2c0.5,0,0.9-0.3,1.4-0.3h0.2h0.1c0.2-0.1,0.5-0.3,0.8-0.4
										c0.3,0,0.3,0,1.4-0.2v-0.2c1.1-0.8,1.1-0.8,1.4-1l0,0c1-0.1,1.1-0.2,1.7-0.6c0-0.2-0.1-0.4-0.1-0.6c1.3-0.9,3-0.9,4.3-1.9
										c0.5-0.2,0.5-0.2,1.4-0.2l0.4,0.2c-3,1.3-3,1.3-4.8,2.4c0.2,0.2,0.5,0.2,0.7,0.3c0,0,0,0,0.2,0c0.8,0,1.6-0.1,2.5-0.1
										c0.2,0,0.4,0.2,0.6,0.2h0.2c-0.4,0.1-1,0.3-1.4,0.4c-0.3-0.1-0.8-0.1-1.1-0.2l0,0c-0.5,0-0.6,0-1.6,0.3h-0.1l-0.1-0.1
										c-0.1,0.2-0.4,0.3-0.7,0.4l0.1,0.1h0.4l0.4-0.1c0,0.1,0.1,0.2,0.2,0.2c-0.2,0.3-0.6,0.6-1,0.7h-0.1
										c-0.1-0.1-0.2-0.3-0.3-0.5c-0.6,0.2-1,0.2-2,1.4l0,0l0,0c-0.2,0-0.2,0-1.5,0.4c-0.1-0.1-0.3-0.3-0.5-0.4
										c-0.9,0.1-1.7,0.3-2.5,0.4c0.1-0.1,0.2-0.4,0.2-0.6c-1.2,0.2-1.2,0.2-1.7,0.3c0,0,0.1,0,0.1-0.1c0-0.2,0-0.4,0-0.5l0.5,0.1
										l0,0c0.2-0.2,0.4-0.5,0.5-0.8l0.4-0.1c0.1-0.3,0.4-0.5,0.8-0.8l-9.7,4.1c-0.3,0-0.8,0.2-1,0.4c-0.1-0.1-0.3-0.3-0.4-0.4
										c-0.3,0.2-0.6,0.5-1,0.6c0,0,0,0-0.4-0.2c-0.2,0-0.4,0-0.6,0.1c-0.1,0.1-0.1,0.1-0.2,0.2c0.3,1.3-1.4,3.4-2.8,3.6
										c-0.2-0.1-0.5-0.2-0.8-0.3l-0.5-0.2l-0.3-0.1c-0.3,0-0.7,0-1,0.1c-1.6,2-2.4,2.6-3.2,3.2c-0.6,1-0.6,1-1.1,1.6h0.2l0,0
										c0.5,0.1,0.5,0.5,0.4,1.1c0.7-0.3,0.9-0.4,1.7-0.3c0.2,0,0.2,0,2.6-1.3c0.9-1.8,3.2-2,4.5-3.3l0.7-0.1
										c1.2,0.6,2.3-0.6,3.5,0h0.1c-0.4,0.8-0.4,0.8,1.1,3.9c-0.2,0.4-0.5,0.9-0.9,1.1c-0.8,0.2-1.5,0-2.3,0
										c0.1,0.6,0.3,0.8,1.2,1.2c0.6-1,1.8-1.2,2.6-1.9c0-0.2,0-0.4,0-0.6c0.2-0.1,0.4-0.2,0.6-0.2c0.2,0.1,0.4,0.4,0.6,0.5l0,0
										l0,0l0,0l0,0l0,0l0,0c0-0.4-0.3-1-0.6-1.3c0-0.2,0.1-0.4,0.1-0.6l-0.3,0.1c-0.2,0-0.4-0.2-0.6-0.3c0.2-0.7,0.2-0.8,0-1.9
										c0.3-0.3,0.7-0.6,1.1-0.7h0.1c0,0.2,0.1,0.4,0.2,0.5h0.5c-0.1,0.3-0.2,0.7-0.2,1c0.4,0.6,1.1,1.2,1.4,1.9
										c-0.2,0.3-0.5,0.6-0.7,0.9c0,0,0,1.7,0.2,3.3c0.2,0.1,0.4,0.2,0.5,0.3c0-0.2,0.2-0.5,0.4-0.7l0.2,0.2c0-0.2,0-0.4,0-0.6
										c-0.2-0.1-0.4-0.2-0.5-0.2l0.4-0.2l0.4,0.3c0.1,0.1,0.2,0.2,0.3,0.3c0.2-0.1,0.4-0.1,0.5-0.2c0-0.2-0.1-0.4-0.1-0.5
										c-0.2-0.1-0.4-0.2-0.6-0.2l0,0c0.3-0.2,0.3-0.6,0.4-1.2l0.3-0.1c0.6,0.1,1.2-0.2,1.8-0.2l0,0c0.3,0.1,0.8,0.2,1.1,0.3
										c-0.5,0.2-0.5,0.2-1.2,1.2l0.2,0.1c0.2,0,0.4-0.2,0.5-0.2c-0.2,0.3-0.5,0.6-0.8,0.8c0.7,0.6,1,1.5,1.8,2.1
										c0.3,0,0.8-0.3,1.2-0.5c0.4,0.2,0.8,0.5,1,0.9c0.8,0,1.6-0.3,2.4-0.4c-0.2,0.5-0.3,0.8-0.5,1.3l0,0c0,0,0,0-0.2,0.5
										c-1,2.8-1.3,2.8-2.5,2.8h-0.3c-0.2,0-0.5-0.1-0.8-0.2s-0.7-0.1-1-0.2c-0.8,0-0.9,0.1-1.5,0.4c-4.1-1.7-4.1-1.7-5.2-2.4
										c-1.2-0.1-1.2-0.1-2.7,1.9l-0.6,0.1c-0.3-0.1-0.6-0.3-0.8-0.5s-0.6-0.4-0.9-0.5c0,0,0,0-0.1,0c-0.1-0.1-0.2-0.3-0.3-0.5
										c0.1-0.2,0.1-0.4,0.2-0.5c0,0,0,0-2.3-0.9c-0.1-0.4-0.2-0.8-0.2-1.2l0,0c0.2-0.1,0.5-0.2,0.7-0.3l0.1,0.1
										c0.5-1.6,0.5-1.6,0.8-1.9c-0.2-0.1-0.2-0.3-0.3-0.5l0,0l0,0l0,0l0,0c-0.4,0.1-0.9,0.1-1.2,0.2c-0.2,0-0.5-0.1-0.7-0.2
										c-0.3,0-0.8,0.1-1.1,0.2l0,0l0,0l0,0l0,0c-0.2-0.1-0.3-0.3-0.5-0.4h-0.1c-1.8-0.1-2.5,0.1-4.2,0.9
										c-0.2-0.1-0.5-0.2-0.8-0.2h-0.6l0,0c-0.1-0.1-0.3-0.3-0.4-0.4c-4.6,4-4.6,4-4.8,4.3c-4.6,4.1-4.6,4.1-4.8,4.4
										c0,0-2.3,1.8-3.2,5.6c-1.2,2.6-1.3,2.8-1.9,3.7c-0.8,7.9-1,9.8,1.1,11.9c0.3,0,0.7-0.2,0.9-0.3c0.3-0.1,0.7-0.2,1.1-0.3
										c0,0,0,0,0.4,0.2c0.2,0.1,0.4,0.3,0.5,0.5c1.6-0.2,3-1.4,4.8-0.8c0.9,2.3,0.9,2.3,2.2,2.4l0,0c0.8,0.1,1.1,0.7,1.3,1.3
										c-0.5,3.4-0.5,3.4-1.2,4.7c0.8,3,2.5,5.6,3.6,8.5c0,0.1-1.4,8,0.4,10.7l8.1,13.6c0.6,0.7,0.7,0.8,2,1.6
										c1.7-0.5,1.9-0.5,2.6-0.3l0.5,0.1c2.3,0.2,6.4-3,5.7-6.7c1.6-0.5,1.6-0.5,2.3-1.1c-0.1-1.6-0.4-2.4-1.1-3.7
										c1-2,3.7-1.8,5.1-3.4c0.2-0.2,0.2-0.2,0.4-5.4c-1-1.5-1-1.5-1.3-2.6l0,0c0.1-0.1,0.2-0.3,0.4-0.5c-0.1-0.2-0.2-0.4-0.3-0.5
										l0.4-0.3l0,0c-0.2-0.5-0.6-0.8-0.9-1.2c2.3-7.4,13.6-8.4,14.3-17c0,0,0,0,0.1,0c0,0,0,0,0.1,0c0,0,0,0,0.1,0h0.1
										c0,0,0,0,0.1,0c0,0,0,0,0.1,0c0,0,0,0,0.1,0c0,0,0,0,0.1,0c-0.4-0.7-0.4-0.7,0-1.7c0,0-5.1,0.8-7.6,1
										c-1.1-0.9-1.2-1.3-0.8-2c-1-1.6-1.7-2.4-3.1-3.4c0.2-0.1,0.4-0.4,0.6-0.5c-0.1-0.1-0.2-0.3-0.3-0.5l0,0
										c-0.2,0.2-0.4,0.5-0.6,0.8h-0.1c-0.2-2.5-0.6-2.9-1.5-3.8c0.4-3,0-3.5-0.9-4.5c0.1-0.2,0.2-0.3,0.2-0.5
										c-0.7-1.8-0.9-3.6-1.5-5.4h0.1c0.7,0.3,0.5,1.1,0.9,1.6c0,0,0,0,0.4-0.1l0.4-0.1c0.1,0,0.1,0,0.2,0
										c0.8,1.8,1.8,3.5,2.4,5.4c-0.8,1.7,0.6,2.7,1.2,3.1c0,0.3,0,0.3,1.1,3l-0.6-0.2l-0.3,0.1l0.2,0.4l0.4-0.1l0.3-0.1
										c0,0,0.3,3,0.4,4.3c0.2,0.1,0.4,0.1,0.6,0.1c0.1,0,8.8-1.8,9.3-3.3c1.8-0.4,1.8-0.4,2.3-0.4c0.7,0.1,0.8-0.3,1-0.8l0.4,0.1
										c0.8-0.2,1.2-0.9,2-1c0.1,0,0.2-0.1,0.3-0.1c0-0.3,0.1-0.8,0.2-1.1l0.1-0.3l0.5,0.2c0.1,0,0.1,0,0.2,0
										c0.3-0.8,0.3-0.8,1.4-1.9c-0.7-1.7-3.8-1.8-3.3-4.2c-0.9,0.5-1.6,1.1-2.4,1.6l-0.5-0.1c0,0,0,0-1.5,0.3
										c-0.2,0-0.4-0.2-0.5-0.3c0.1-0.1,0.2-0.1,0.3-0.2c-0.1-0.3-0.1-0.8-0.1-1.2c-0.8-1.2-2.5-1.8-2.8-3.3c0,0,0,0,0.2-0.1
										c0.4-0.2,0.8-0.4,1.2-0.6c0.6,0.4,0.9,0.7,1.2,2c4.1,1.9,4.1,1.9,5.1,1.2l0,0c0.2,0,0.5,0.3,0.5,0.5
										c0.1,0.8,0.2,1.4,5.6,1.7l0,0c0,0,0,0,0.4,0c1.1,0,2,0,3.5,0c0,0.1,0,0.1,3.9,4.7h0.3h0.1c0.3,0,0.3,0,2,0.8
										c0,0.1,3.3,12.1,5.6,12.6c1-0.9,1-0.9,1.5-1.1c0.2,0,0.5,0.2,0.7,0.3c-0.1,1.8,0,2,0.2,3c1.9,0.5,2-0.5,2-0.9
										c0-0.6-0.5-1.4-1.2-2.4c-0.1-0.2-0.8-5.8-0.9-6.6c2.2-1.1,2.2-1.1,2.4-2c0,0,2.5-1.2,4.4-3.7c1.2-0.1,2.3-0.5,3.4-0.7
										c0.7,0.5,3.2,3.3,3.6,4.1c0,0.6-0.1,1.2-0.1,1.8c0.2,0.1,0.5,0.2,0.7,0.3c0.8-0.2,1.2-0.8,1.8-1.2c1.2,2.9,1.4,3.7,1.2,5
										c0.7,1.4,0.3,2.9,0.7,4.3c1,0.4,1,1.5,1.7,2.1c-0.5,1.3,1.1,2.5,0.2,3.9c-0.4-0.2-1.9-1.4-2.5-2.7
										c-0.7-0.1-0.7-0.1-2.2-0.5c0,0.1,6.8,11.9,6.9,12.1c0.3,0,0.7,0.1,0.9,0.1c0.1,0,0.3-0.1,0.4-0.1c0.4-1.3,0.4-1.3,0.4-1.9
										l0.1-0.2l0,0c0.1,0,0.2,0,0.3-0.1c0.1-1.7-0.2-1.9-0.8-2.3c-0.1,0.1-0.3,0.3-0.4,0.5l-0.2-0.2c0.4-0.6,0.3-1,0.2-2.1h-0.1
										c0,0,0,0-0.1,0c-0.1,0.3-0.3,0.7-0.5,1l0,0c0,0,0,0-0.1,0c0.1-0.4,0-0.9,0.1-1.4v-0.1c0,0,0,0,0.1-0.2l0.4,0.2l0.2-0.1
										c-0.3-1.1-0.3-1.4-0.9-2.3c0.2-2.3,0.2-3.3-2.4-4.7c0-0.9-0.5-1.7-0.6-2.6l-0.1-0.1l-0.4,0.3l0,0l0,0l0,0l0,0
										c0,0,0,0-0.2-0.2c0,0,0.3-2.8,0.9-4c0.2,0.2,0.3,0.5,0.3,0.8c1-0.1,1.3,0.4,1.8,1.3s0.5,0.9,1.2,1.3h0.2
										c0,0.1,0,0.1,0.3,1.9c4.1-3,4.1-3-0.8-11.3c0.7-2,0.7-2,1.5-2.4c0.2,0,0.4,0.1,0.6,0.1c0.4,0.9,0,1.8,0.1,2.7
										c0.1,0.2,0.3,0.3,0.5,0.4c1.3-0.8,0.8-1.6,0.1-2.7c0.1-0.3,0.5-0.6,0.8-0.8c0.1,0,0.2,0.1,0.3,0.1c2.3-3.3,2.3-3.3,2.6-4.1
										c-1-2.6-1.7-5.3-2.7-7.9c-0.6-0.3-1.1-0.7-1.6-1c-0.3-1-0.3-1,0-2.1c-0.3-0.3-0.8-0.4-1.2-0.7h-0.1V93
										c-0.4-0.3-0.4-0.3-0.7-1.1l0,0l0,0l-0.2,0.2c-0.5-0.5-0.5-0.7-0.3-1.4c0.2,0.1,0.4,0.5,0.4,0.7c0.2,0,0.4,0.1,0.6,0.1
										c0.1-0.1,0.2-0.3,0.3-0.5c0.6,0.1,0.6,0.2,1.3,1.4c0.7,0.4,1.4,0.9,2.1,2.7c0.1,0.2,0.4,0.4,0.6,0.5
										c0.2-1.1,0.3-1.7-2.7-4.6c-0.4-1.1-0.9-2.2-1.3-3.3c0.2,0.1,0.4,0.2,0.5,0.3c-0.1-1-0.1-1-5.7-7.2c0,0,1.5,1,4.4,4v-0.2
										c-0.2-0.2-0.3-0.2-1.1-1c-0.8-0.8-0.8-0.8-1.1-1.1h0.1c-2.5-2.1-2.7-2.3-3.5-2.8c-0.2-0.1-0.6-0.2-0.8-0.3l0.3,0.4
										c0,0,0,0-0.2-0.1s-0.4-0.3-0.5-0.4l0,0c0,0,0,0,0.2,0.2l0.2,0.2l0,0l-0.2-0.2l0,0l0,0l0,0l0,0l0,0l0,0l0,0l0,0l0,0l0,0l0,0
										l0,0l0,0l0,0l0,0c0,0,0,0-0.1-0.1c-0.2-0.1-0.4-0.2-0.5-0.2c-1.9-1.9-1.9-1.9-2.7-2.6c-0.3-0.2-0.6-0.6-0.9-0.8l0.2-0.1
										c0,0,0,0-0.1-0.1l-0.2-0.1c-2.6-1.6-5.3-3.1-8.1-4.4c-0.3-0.1-0.6-0.3-0.9-0.4c-0.8-0.4-1.6-0.7-2.5-1l0.4,0.2
										C268,68.9,268,68.9,267.3,68.8z"/>
								</g>
								<g>
									<path class="st3" d="M219.6,68.8c-0.4,0.2-0.8,0.3-1.3,0.5c-0.1,0-0.2,0.1-0.3,0.1c0.8-0.3,1.5-0.6,2.1-0.8
										C219.9,68.6,219.8,68.7,219.6,68.8z"/>
								</g>
								<g>
									<path class="st3" d="M225.4,67.3c0.1,0,0.2,0,0.3,0c0.3-0.1,0.5-0.2,0.8-0.2c-0.8,0.3-0.8,0.3-0.9,0.4l0,0l0,0
										c0.4-0.1,0.8-0.2,1.1-0.3c0.3-0.1,0.6-0.2,0.9-0.3c0,0-0.1,0-0.2,0.1c0.1,0,0.2,0,1-0.2c0.1-0.1,0.1-0.1,0.4-0.2
										c0,0-0.1,0-0.1,0.1l0,0c0.3,0,0.3,0,0.4,0c0.3,0,0.5-0.1,0.8-0.2c0.1,0,0.2,0,0.7-0.1l0,0h-0.1l0,0c0.1,0,0.2,0,0.5-0.1
										h-0.1c0.1,0,0.1,0,0.2,0c0.7-0.2,0.7-0.2,1.6-0.4h0.1c0,0-0.1,0-0.1,0.1l0,0h0.1c-0.4,0.1-0.4,0.1-0.9,0.2
										c0.3-0.1,0.3-0.1,1.6-0.3l0,0h-0.1c0,0,0,0,0.1,0h0.1c0.1,0,0.1,0,0.2,0h-0.1c0.1,0,0.2,0,0.3,0c0,0,0,0,0.1,0h0.1h0.1
										c0,0,0,0-0.1,0c0.2,0,0.3-0.1,0.5-0.1c0.1,0,0.5-0.1,0.9-0.1c-0.4,0-0.7,0.1-1,0.1c0.1,0,0.1,0,0.3-0.1h-0.1
										c0.2,0,0.9-0.1,1.1-0.2c0.1,0,0.1,0,0.2,0c-0.1,0-0.1,0-0.2,0c0.7,0,1.5-0.1,2.2-0.2c0.1,0,0.2,0,0.3,0s0.1,0,0.2-0.1l0,0
										c-0.1,0-0.1,0-0.7,0c0.1,0,0.3,0,0.4-0.1c-0.5,0-0.5,0-0.9,0c0.5,0,0.9-0.1,1.4-0.1l0,0c0,0,0.2,0,0.4,0
										c0.5-0.1,0.6-0.1,0.9-0.2h0.1l0,0c-0.1-0.1-0.1-0.1-0.8,0l0,0c-0.2,0-0.4,0-0.6,0c0.2,0,0.4,0,0.6-0.1h-0.1
										c1.4-0.1,1.7-0.1,3-0.2h0.1c-0.2,0-0.4,0-0.7,0l0,0l0,0c-0.7,0-1.4,0.1-2.1,0.1c-0.2,0-0.3,0-0.4,0c-0.1,0-0.2,0-0.3,0
										c-0.2,0-0.5,0-0.7,0.1h-0.1l0,0l0,0c-0.2,0-0.4,0-0.7,0.1h-0.1h0.1h0.1c-1.6,0.2-1.7,0.2-4.1,0.5c-0.2,0-0.5,0.1-0.7,0.1
										h-0.1c-2.2,0.4-2.6,0.4-4.7,0.9c-3.4,0.8-4.3,1.1-7.7,2.3c0.5-0.1,1.5-0.3,5.2-1.1C225.3,67.4,225.3,67.4,225.4,67.3z"/>
								</g>
								<g>
									<path class="st3" d="M239.3,64.6L239.3,64.6c0.1,0,0.3,0,0.5,0C239.6,64.6,239.4,64.6,239.3,64.6z"/>
								</g>
								<g>
									<path class="st3" d="M218,69.4l-0.4,0.2C217.7,69.5,217.9,69.4,218,69.4L218,69.4z"/>
								</g>
								<g>
									<path class="st3" d="M238.5,64.6c0.1,0,0.1,0,0.2,0c0,0,0,0,0.1,0C238.7,64.6,238.6,64.6,238.5,64.6z"/>
								</g>
								<g>
									<path class="st3" d="M238.2,66.1c0.1,0,0.1,0,0.1,0l0,0C238.3,66.1,238.3,66.1,238.2,66.1L238.2,66.1c-0.1,0-0.1,0-0.1,0
										c-0.1,0-0.1,0-0.1,0.1l0,0C238.1,66.2,238.1,66.2,238.2,66.1C238.2,66.2,238.2,66.2,238.2,66.1
										C238.2,66.2,238.2,66.2,238.2,66.1C238.2,66.2,238.2,66.2,238.2,66.1C238.2,66.2,238.2,66.2,238.2,66.1z"/>
								</g>
								<g>
									<path class="st3" d="M213.6,75.3c0,0.1,0.1,0.2,0.4,0.1c-1.1,1-1.1,1-1.3,1c-0.1,0-0.1-0.1-0.1-0.2
										c-0.3,0.2-0.4,0.5-0.7,0.7s-0.7,0.1-1,0.4l0,0h0.1h0.1l0,0c0,0.1,0,0.1-0.1,0.1c-0.5,0.4-1.1,0.5-1.6,0.8
										c0.2,0,0.5,0,0.7,0s0.3-0.1,0.5-0.2c0.1,0,0.2,0,0.4,0c0.1,0,0.2,0.1,0.3,0.1l0,0l0,0c0.8,0.1,1.1,0.1,1.9-0.3
										c-0.1,0-0.1,0-0.1-0.1c0,0,0-0.1,0.1-0.1s0.3,0,0.8-0.4c0.1-0.1,0.3-0.2,0.3-0.3v-0.1c0-0.1-0.1-0.1-0.2-0.1l0,0l0,0l0,0
										l0,0l0,0l0,0l0,0l0,0l0,0l0,0c0.6-0.7,1-1.6,1.7-2.3c0.6-0.3,0.8-0.3,1.3-0.6c0,0,0,0-0.1,0s-0.3,0-0.4,0l0,0l0,0l0,0
										c0-0.1,0.3-0.3,0.4-0.3h0.1c0.1,0,0.2,0,0.4-0.2c0,0,0,0-0.1,0c0,0,0,0-0.1,0c0,0,0,0-0.1,0c0,0,0,0-0.1,0c0,0,0,0-0.1,0
										c0,0,0,0-0.1,0c0,0,0,0-0.1,0c0,0,0,0-0.1,0c-0.4,0.2-0.9,0.4-1.3,0.6c0.1-0.1,0.1-0.1,0.2-0.2l0,0c-0.1,0-0.1,0-0.4,0.2
										c0,0,0,0,0,0.1c-0.2,0.3-0.5,0.4-0.7,0.6l0,0l0,0c0,0,0,0,0.1,0c-0.3,0.1-0.6,0.2-0.8,0.3l0,0c0.2,0,0.3-0.2,0.5-0.2l0,0
										c-0.2,0.1-0.3,0.2-0.5,0.3l0,0c0.2,0,0.3-0.2,0.5-0.2l0,0c-0.1,0.1-0.2,0.1-0.2,0.2C214,75.2,213.8,75.2,213.6,75.3z"/>
								</g>
								<g>
									<path class="st3" d="M300.7,113.1L300.7,113.1c-0.1,0-0.1,0-0.1,0s-0.1,0.1,0,0.3c0.2,0.7,0.2,0.8,0.6,1.3
										c0.2,0.3,0.3,0.5,0.3,0.9c0.2,0.3,0.3,0.2,0.4,0.1s0.2-0.2,0.3,0.4c0-0.3,0-0.3,0-0.3c0.2,0.1,0.1,0.4,0.3,0.5
										c0-0.3-0.4-0.5-0.1-0.7c0.6,1.1,0.6,1.1,0.8,1.2v-0.1c-0.1-0.4-0.4-0.7-0.4-1.2c-0.3,0-0.4-0.3-0.6-0.3
										c-0.1,0-0.1,0-0.3,0.2c-0.1-0.6-0.3-1.1-0.5-1.6c0-0.4,0.3-0.7,0.2-1.1l0,0c-0.1-0.5-0.4-1.1-0.5-1.6
										c-0.3,0-0.4-0.3-0.7-0.3l0,0c-0.1,0.3,0,0.6,0.2,1.6C300.8,113,300.8,113,300.7,113.1z"/>
								</g>
								<g>
									<path class="st3" d="M303.2,118.3c-0.4-0.1-0.3-0.7-0.8-0.7l0,0l0,0l0,0l0,0l0,0l0,0l0,0c0.1,0.4,0.1,0.9,0.2,1.3h0.1
										c0.2,0,0.3,0,0.3,0.4c-0.3,0.3-0.1,1,0.3,1.1c0-0.7,0-0.9,0.2-1.2c0,0.1,0,0.2,0,0.4c0,0.2,0,0.3,0.1,0.3
										c0-0.2,0-0.2,0.1-0.2c0.1-0.1,0.1-0.1,0.1-0.3v-0.1c-0.1-0.1-0.3-0.2-0.3-0.9l0,0l0,0l0,0c-0.1,0-0.1,0.1-0.1,0.5
										s0,0.6-0.1,0.6C303.3,118.7,303.3,118.7,303.2,118.3z"/>
								</g>
								<g>
									<path class="st3" d="M300.5,121.5c0.2-0.5,0.5-1,0.7-1.5c0-0.2,0.2-0.5,0.1-1c0-0.3-0.1-0.5-0.1-0.6
										c0.1,0.9-0.1,1.5-0.4,1.9C300.6,120.7,300.4,121,300.5,121.5z"/>
								</g>
								<g>
									<path class="st3" d="M303.7,129.6c-0.1,0-0.1,0-0.2,0l0,0c-0.3-0.1-0.5-0.5-0.8-0.5c-0.2,0-0.5,0.3-0.5,0.4l-1.1,4.1
										c-0.1,0.2-0.1,0.5-0.2,0.9c0.1,0,0.1,0,0.1-0.1c0.4,0,0.1,1.2-0.2,2.3c0,0,0,0,0.1,0c0,0,0,0,0.1,0c0,0,0,0,0.1,0
										c0,0,0,0,0.1,0c0,0,0,0,0.1,0c0,0,0,0,0.1,0c0,0,0,0,0.1,0c0,0,0,0,0.1,0c0.1-0.4,0.2-0.8,0.2-1.5c0.1-1,0.2-1.3,0.4-1.6
										c0,0.7,0.2,1.5,0.1,2.2l0,0c0.1,0,0.1-0.1,0.3-0.3c0.1-0.3,0.2-0.3,0.3-0.3l0,0l0,0c-0.3,0.3-0.5,1.2-0.3,1.3
										c0,0,0.1,0,0.2-0.2c0-0.1,0-0.1,0.2-0.8c0.1-0.4-0.2-0.7-0.2-1.1c0,0,0,0,0-0.2s0.1-0.5,0.1-0.7c0-0.3-0.4-0.6-0.3-1
										c0.1-0.2,0.3-0.4,0.5-0.6c0.1-0.1,0.1-0.1,0.6-0.9c0,0,0,0-0.1,0c-0.4,0.1-1.1,0.8-1.2,0.9c-0.3-0.4-0.4-1.6,0.1-2.1
										c0.4,0,0.8,0,1.2,0l0,0c0.3-0.1,0.6-0.1,0.7-0.9c0-0.1,0-0.2,0-0.5C304,128.9,304,129.3,303.7,129.6z"/>
								</g>
								<g>
									<path class="st3" d="M304.4,146.6L304.4,146.6c-0.1,0.1-0.1,0.1-0.1,0.1c-0.1-0.5,0-1,0-1.5c0.3-0.6,0.3-0.6,0.4-0.7
										l0.1,0.1c0.3-1,0.7-1.9,0.9-2.9c-0.4,0.9-0.4,0.9-0.5,1c-0.1-0.3-0.4-0.6-0.5-0.9c-0.9,0.8-0.9,0.8-0.7,1.4
										c-0.6,0.7-0.4,1.8-1.4,2.3c-0.3,0-0.3-0.4-0.3-0.7c-0.1,0.1-0.1,0.1-0.2,0.1s-0.1-0.1-0.2-0.1c-0.1,0.4-0.1,0.4-0.3,0.7
										h-0.1h-0.1c-0.8,0.4-0.8,1.3-1.2,1.9l-0.1-0.1l-0.2-0.1c-0.3,0.3-0.4,0.7-0.7,0.9l0,0c0,0,0,0.1-0.1,0.1
										c0,0.1,0,0.1-0.1,0.2c0,0.1,0,0.1-0.1,0.2c0,0.1,0,0.1-0.1,0.1c0,0,0,0.1-0.1,0.2c0,0.1,0,0.1-0.1,0.1c0,0,0,0.1-0.1,0.1
										c0,0.1,0,0.1-0.1,0.1c-1.1,1.5-1.3,1.7-1.9,1.8l0,0c-0.1,0-0.1,0-0.2,0c-0.7,0.7-1,0.7-1.3,0.8c-0.1,0-0.2,0-0.3-0.1
										c-1.7,1.3-1.7,1.3-1.8,1.3c-0.1,0-0.1,0-0.2-0.1c-1.5,2.5-1.7,3.2-1.8,3.7l0,0l0,0c0-0.1,0-0.3,0-0.4l-0.1,0.1
										c0,0.6,0,0.6-0.3,0.8c0.1-0.4,0.1-0.4,0.1-0.7l-0.1,0.1c-0.3,2.4-0.9,3.8-2.6,6.4c-0.2,0.1-0.3,0.2-0.5,0.3c0,0,0,0-0.1,0
										c-0.2,0.7,0,0.8,0.6,1c1-0.9,1.5-1,2.3-1.2c0.2,0,0.3,0,0.7,0c1.6-1.8,3.8-2.3,3.8-2.3c0,0.1,0.1,0.3,0.1,0.5
										c-0.4,0.6-0.8,1.3-1.3,1.9c1.1-1.1,1.2-1.2,1.4-1.4c-0.6,0.7-0.9,1-1.6,1.7l0,0c0.4-0.2,0.5-0.5,0.8-0.7
										c-0.3,0.3-0.4,0.4-0.8,0.9l0,0l0,0l0,0l0,0c5.6-6.2,9.9-13.5,12.5-21.5c-1.1,3.1-1.4,3.9-2,5
										C304.2,147.1,304.3,146.9,304.4,146.6z"/>
								</g>
								<g>
									<path class="st3" d="M307.8,131.3c-0.2,0.2-0.1,0.4-0.1,0.6l0,0l0,0l0,0l0,0l0,0l0,0l0,0l0,0c-0.2,0.9-0.2,1.2-0.5,1.6
										c0-1.1,0-1.7,0.1-3c-0.2-0.1-0.2-0.1-0.4-0.1c-0.2,0.1-0.3,0.2-0.5,0.9c0.3,0.9,0.4,1,0.7,1.2l0,0c0,0,0,0-0.3,0.3
										c0,0,0,0-0.1,0c0.1,0.5,0,1.1,0.1,1.6c0.2-0.7,0.2-0.7,0.2-0.8c0.4,2.6,0.4,2.6-0.2,4.7c0,0.2,0,0.2,0.1,0.4
										c0.2-0.1,0.3-0.3,0.4-0.6c-0.1,0.9-0.2,1.6-0.5,2.6c0.7-2.5,1.3-5.1,1.7-7.8c-0.1-0.4-0.2-1-0.4-1.9
										C307.9,131.1,307.8,131.2,307.8,131.3z"/>
								</g>
								<g>
									<path class="st3" d="M305.8,134.1C305.8,134.1,305.9,134.2,305.8,134.1c0.1-0.9-0.1-1-0.3-1c-0.2,0.1-0.5,0.4-0.5,0.7
										c0,0,0.1,0,0.2-0.1C305.7,133.7,305.8,133.9,305.8,134.1z"/>
								</g>
								<g>
									<path class="st3" d="M305.4,137.9c-0.1,0.2-0.2,0.3-0.3,0.7l0,0c0.1,0,0.3-0.6,0.4-0.9c0-0.2,0-0.2,0-0.2
										C305.5,137.7,305.4,137.8,305.4,137.9z"/>
								</g>
								<g>
									<path class="st3" d="M302.3,139.4C302.3,139.3,302.3,139.3,302.3,139.4c-0.2,0.1-0.3,0.2-0.5,0.3c-0.3,0-0.5-0.1-0.8-0.1
										c-0.2,0-0.4,0.2-0.6,0.5c0.1,0,0.1,0,0.2,0c0.2,0,0.4,0,0.5,0.1c0.1-0.1,0.2-0.2,0.6-0.4
										C302,139.6,302.2,139.5,302.3,139.4z"/>
								</g>
							</g>
						</g>
					</g>
				</g>
				<g>
					<path class="st2" d="M483.5,545.7H368.7L245.8,432.6l-120,113.1l-113.9-0.1l177-185.2L72,198.2h116.8l57.5,90.1l53.5-90.1h116
						L303.4,360.4L483.5,545.7z"/>
				</g>
				<g>
					<polygon class="st4" points="72,198.2 69.5,221.6 188.9,360.4 					"/>
				</g>
				<g>
					<polygon class="st4" points="415.9,198.2 418.4,221.6 303.7,360 					"/>
				</g>
				<g>
					<polygon class="st4" points="483.4,545.5 478.4,519.2 303.7,360.5 					"/>
				</g>
				<g>
					<polygon class="st4" points="11.9,545.6 16.4,519.5 188.7,360.7 					"/>
				</g>
			</g>
		</g>
		<g>
			<polygon class="st2" points="246.6,276.3 197.3,198.2 291.9,198.2 			"/>
		</g>
		<g>
			<path class="st2" d="M245.1,43.7c0,0,104.1,33.7,62.8,83.8c0,0,53.8-41.3-57.4-88.4L245.1,43.7z"/>
		</g>
		<g>
			<path class="st2" d="M191.8,36c0,0-27.6-8.1-32.5-9.6c-4.9-1.4-8.6-5.1-9.4-7.3c0,0,2.8-7,11.3-7.2s59.6,15.3,59.6,15.3
				s-1.4-5.9,3.6-5.5s9.6,3.2,9.6,3.2s5.6-6.9,5.1-7.5s-5.6-3.4-5.6-3.4s7.5,1.3,9.8,2.4l32.2-5.3l2.7,1l-28.1,6.4
				c0,0,4.1,1.8-1.7,2.5l-0.4,2.7l53.5-9.7l2.5,0.8l-54.3,18.3c0,0,5.1,3.7,0.9,5.5c0,0,2.1,5.7-5.2,6.2c-7.2,0.6-23.9-0.9-29.3-2.2
				c0,0-34.7,15.6-44.7,22.5l-4.9-0.7c0,0,18.2-16.9,20.5-21C187.1,43.3,190.4,37,191.8,36z"/>
		</g>
		<g>
			<path class="st2" d="M206.9,30.1c0,0-31.7-11.2-39.4-12.3c-12.2-1.7-15.7-0.2-17.5,1.2c0,0.1-0.1,0.1-0.1,0.1
				c0.8,2.2,4.5,5.8,9.4,7.3c4.9,1.4,32.5,9.6,32.5,9.6c-1.4,1-4.8,7.4-4.8,7.4c-2.3,4.2-20.5,21-20.5,21l4.9,0.7
				c10-6.9,44.7-22.5,44.7-22.5c5.5,1.3,22.1,2.8,29.3,2.2c7.2-0.6,5.2-6.2,5.2-6.2c4.2-1.8-0.9-5.5-0.9-5.5L304,14.8l-2.5-0.8
				c0,0-38.7,8.9-59.3,12.2C223.5,29.2,206.9,30.1,206.9,30.1z"/>
		</g>
		<g>
			<path class="st2" d="M222.2,27l3.1-0.5c0,0,0.7-4.3-2.1-4C220.5,22.9,221.8,26,222.2,27z"/>
		</g>
		<g>
			<path class="st2" d="M248.4,20.8c5.8-0.7,1.7-2.5,1.7-2.5l28.1-6.4l-2.7-1l-32.8,6.2L248.4,20.8z"/>
		</g>
		<g>
			<path class="st2" d="M191.8,36c-1.4,1-4.8,7.4-4.8,7.4c-2.3,4.2-20.5,21-20.5,21l4.9,0.7c10-6.9,44.7-22.5,44.7-22.5L191.8,36z"
				/>
		</g>
	</g>
</g>
</svg>
