<?xml version="1.0" encoding="utf-8"?>
<!-- Generator: Adobe Illustrator 22.0.0, SVG Export Plug-In . SVG Version: 6.00 Build 0)  -->
<svg version="1.1" id="Layer_1" xmlns="http://www.w3.org/2000/svg" xmlns:xlink="http://www.w3.org/1999/xlink" x="0px" y="0px"
	 viewBox="0 0 100.3 71.1" style="enable-background:new 0 0 100.3 71.1;" xml:space="preserve">
<style type="text/css">
	.st0{fill:url(#SVGID_1_);}
	.st1{fill:url(#SVGID_2_);}
	.st2{fill:url(#SVGID_3_);}
	.st3{fill:#161010;}
	.st4{fill:#FFFFFF;}
	.st5{fill:url(#SVGID_4_);}
	.st6{fill:url(#SVGID_5_);}
	.st7{fill:url(#SVGID_6_);}
	.st8{fill:url(#SVGID_7_);}
	.st9{fill:url(#SVGID_8_);}
	.st10{fill:url(#SVGID_9_);}
	.st11{fill:url(#SVGID_10_);}
	.st12{fill:url(#SVGID_11_);}
	.st13{fill:url(#SVGID_12_);}
	.st14{fill:url(#SVGID_13_);}
	.st15{fill:url(#SVGID_14_);}
	.st16{fill:url(#SVGID_15_);}
	.st17{fill:url(#SVGID_16_);}
	.st18{fill:url(#SVGID_17_);}
	.st19{fill:url(#SVGID_18_);}
	.st20{fill:url(#SVGID_19_);}
	.st21{fill:url(#SVGID_20_);}
	.st22{fill:url(#SVGID_21_);}
	.st23{fill:url(#SVGID_22_);}
	.st24{fill:url(#SVGID_23_);}
	.st25{fill:url(#SVGID_24_);}
	.st26{fill:url(#SVGID_25_);}
	.st27{fill:url(#SVGID_26_);}
	.st28{fill:url(#SVGID_27_);}
	.st29{fill:url(#SVGID_28_);}
	.st30{fill:url(#SVGID_29_);}
	.st31{fill:url(#SVGID_30_);}
	.st32{fill:url(#SVGID_31_);}
	.st33{fill:url(#SVGID_32_);}
	.st34{fill:url(#SVGID_33_);}
	.st35{fill:url(#SVGID_34_);}
	.st36{fill:url(#SVGID_35_);}
	.st37{fill:url(#SVGID_36_);}
	.st38{fill:url(#SVGID_37_);}
	.st39{fill:url(#SVGID_38_);}
	.st40{fill:url(#SVGID_39_);}
	.st41{fill:url(#SVGID_40_);}
	.st42{fill:url(#SVGID_41_);}
	.st43{fill:url(#SVGID_42_);}
	.st44{fill:url(#SVGID_43_);}
	.st45{fill:url(#SVGID_44_);}
	.st46{fill:url(#SVGID_45_);}
	.st47{fill:url(#SVGID_46_);}
	.st48{fill:url(#SVGID_47_);}
	.st49{fill:url(#SVGID_48_);}
	.st50{fill:url(#SVGID_49_);}
	.st51{fill:url(#SVGID_50_);}
	.st52{fill:url(#SVGID_51_);}
	.st53{fill:url(#SVGID_52_);}
	.st54{fill:url(#SVGID_53_);}
	.st55{fill:url(#SVGID_54_);}
	.st56{fill:url(#SVGID_55_);}
	.st57{fill:url(#SVGID_56_);}
	.st58{fill:url(#SVGID_57_);}
	.st59{fill:url(#SVGID_58_);}
	.st60{fill:url(#SVGID_59_);}
	.st61{fill:url(#SVGID_60_);}
	.st62{fill:url(#SVGID_61_);}
	.st63{fill:url(#SVGID_62_);}
	.st64{fill:url(#SVGID_63_);}
	.st65{fill:url(#SVGID_64_);}
	.st66{fill:url(#SVGID_65_);}
	.st67{fill:#4A4E55;}
</style>
<g>
	<g>
		<linearGradient id="SVGID_1_" gradientUnits="userSpaceOnUse" x1="2.6302" y1="51.5388" x2="7.2895" y2="51.5388">
			<stop  offset="0" style="stop-color:#4E5259"/>
			<stop  offset="0.2254" style="stop-color:#494D55"/>
			<stop  offset="0.503" style="stop-color:#3A3F48"/>
			<stop  offset="0.8069" style="stop-color:#212733"/>
			<stop  offset="1" style="stop-color:#0D1422"/>
		</linearGradient>
		<path class="st0" d="M3.8,45.2c-0.6,0-1.2,0.5-1.2,1.2v6.6c0,2.6,2.1,4.8,4.7,5V45.2H3.8z"/>
		<linearGradient id="SVGID_2_" gradientUnits="userSpaceOnUse" x1="67.4178" y1="47.6448" x2="67.4178" y2="12.05">
			<stop  offset="0" style="stop-color:#9D171E"/>
			<stop  offset="0.5" style="stop-color:#E24C39"/>
			<stop  offset="1" style="stop-color:#9D171E"/>
		</linearGradient>
		<path class="st1" d="M97.9,12.1H64.5H36.9c0,0-2.1,0-2.1,17.8c0,17.7,2.1,17.8,2.1,17.8h27.6h33.4c0,0,2.1-0.1,2.1-17.8
			C100,12.1,97.9,12.1,97.9,12.1z"/>
		<linearGradient id="SVGID_3_" gradientUnits="userSpaceOnUse" x1="67.4178" y1="35.4007" x2="67.4178" y2="23.5318">
			<stop  offset="0" style="stop-color:#F3A52B"/>
			<stop  offset="1" style="stop-color:#F3BC4E"/>
		</linearGradient>
		<path class="st2" d="M36.6,29.8c0,2.2,0.1,4.1,0.1,5.6h61.3c0.1-1.6,0.1-3.4,0.1-5.6c0-2.5-0.1-4.6-0.2-6.2H36.8
			C36.7,25.2,36.6,27.3,36.6,29.8z"/>
		<g>
			<path class="st3" d="M65.4,24.4c0,4.1-2.7,3.9-2.9,6.5c-0.2,2,1.4,3.6,3.4,3.6c2,0,3.4-1.6,3.4-3.5
				C69.3,28.5,67.5,26.2,65.4,24.4z"/>
			<path class="st4" d="M67.6,33.2c0.4-0.4,0.7-1,0.8-1.7c0.3-2-0.9-4.2-2.5-5.9c1.4,1.9,2.4,4.2,2.1,6.4
				C67.9,32.4,67.8,32.8,67.6,33.2z"/>
		</g>
		<rect x="3.9" y="43.2" class="st3" width="29.8" height="1.9"/>
		<linearGradient id="SVGID_4_" gradientUnits="userSpaceOnUse" x1="18.1466" y1="43.2357" x2="18.1466" y2="9.2938">
			<stop  offset="0" style="stop-color:#E2750B"/>
			<stop  offset="0.1786" style="stop-color:#EC911D"/>
			<stop  offset="0.3369" style="stop-color:#F2A229"/>
			<stop  offset="0.4541" style="stop-color:#F4A82D"/>
			<stop  offset="0.5705" style="stop-color:#F1A32A"/>
			<stop  offset="0.6991" style="stop-color:#E79623"/>
			<stop  offset="0.8337" style="stop-color:#D68016"/>
			<stop  offset="0.9714" style="stop-color:#BF6104"/>
			<stop  offset="1" style="stop-color:#BA5A00"/>
		</linearGradient>
		<path class="st5" d="M33.7,11.8c0-1.4-1.1-2.5-2.5-2.5H15.9c-3.6,0-7,2.7-8.5,6.8L2.6,33v9.1c0,0.6,0.5,1.2,1.2,1.2h29.9V33V11.8z
			"/>
		<linearGradient id="SVGID_5_" gradientUnits="userSpaceOnUse" x1="5.8532" y1="32.1769" x2="5.8532" y2="16.1282">
			<stop  offset="0" style="stop-color:#626A7B"/>
			<stop  offset="7.066998e-02" style="stop-color:#626A7B"/>
			<stop  offset="0.5" style="stop-color:#626A7B"/>
			<stop  offset="0.7318" style="stop-color:#606879"/>
			<stop  offset="0.8153" style="stop-color:#5A6272"/>
			<stop  offset="0.8748" style="stop-color:#4E5867"/>
			<stop  offset="0.9229" style="stop-color:#3D4956"/>
			<stop  offset="0.9636" style="stop-color:#283540"/>
			<stop  offset="0.9995" style="stop-color:#0E1D25"/>
			<stop  offset="1" style="stop-color:#0E1D25"/>
		</linearGradient>
		<path class="st6" d="M2.9,32.2c0,0,2.3-0.7,2.7-2.2C6.1,28,8.9,17.5,8.8,16.9c-0.1-0.7-1.4-0.7-1.4-0.7L2.9,32.2z"/>
		<linearGradient id="SVGID_6_" gradientUnits="userSpaceOnUse" x1="15.8968" y1="42.3528" x2="15.8968" y2="15.0319">
			<stop  offset="0" style="stop-color:#4F5E6C"/>
			<stop  offset="0.7857" style="stop-color:#42505C"/>
			<stop  offset="1" style="stop-color:#263039"/>
		</linearGradient>
		<path class="st7" d="M9,42.4c-0.7,0-1.3-0.3-1.8-0.9c-0.6-0.7-0.4-12.2-0.4-12.2l3-12.5c0.2-1,1.1-1.7,2.2-1.7h10.8
			c1.2,0,2.3,1,2.3,2.3v22.8c0,1.2-1,2.3-2.3,2.3H9z M22.8,42c1,0,1.9-0.8,1.9-1.9V17.3c0-1-0.8-1.9-1.9-1.9H12
			c-0.9,0-1.6,0.6-1.8,1.5l-3,12.5c-0.1,0.6,0,11.5,0.4,11.9C7.9,41.7,8.4,42,9,42H22.8z"/>
		<linearGradient id="SVGID_7_" gradientUnits="userSpaceOnUse" x1="65.4505" y1="50.2979" x2="65.4505" y2="47.6448">
			<stop  offset="0" style="stop-color:#4E5259"/>
			<stop  offset="0.2254" style="stop-color:#494D55"/>
			<stop  offset="0.503" style="stop-color:#3A3F48"/>
			<stop  offset="0.8069" style="stop-color:#212733"/>
			<stop  offset="1" style="stop-color:#0D1422"/>
		</linearGradient>
		<rect x="33.5" y="47.6" class="st8" width="63.8" height="2.7"/>
		<linearGradient id="SVGID_8_" gradientUnits="userSpaceOnUse" x1="15.8774" y1="30.9352" x2="15.8774" y2="16.1282">
			<stop  offset="0" style="stop-color:#626A7B"/>
			<stop  offset="7.066998e-02" style="stop-color:#626A7B"/>
			<stop  offset="0.5" style="stop-color:#626A7B"/>
			<stop  offset="0.7318" style="stop-color:#606879"/>
			<stop  offset="0.8153" style="stop-color:#5A6272"/>
			<stop  offset="0.8748" style="stop-color:#4E5867"/>
			<stop  offset="0.9229" style="stop-color:#3D4956"/>
			<stop  offset="0.9636" style="stop-color:#283540"/>
			<stop  offset="0.9995" style="stop-color:#0E1D25"/>
			<stop  offset="1" style="stop-color:#0E1D25"/>
		</linearGradient>
		<path class="st9" d="M23.9,29.8c0,0.6-0.5,1.2-1.2,1.2H9c-0.4,0-0.7-0.2-0.9-0.4c-0.2-0.3-0.3-0.6-0.2-1l3-12.5
			c0.1-0.5,0.6-0.9,1.1-0.9h10.8c0.6,0,1.2,0.5,1.2,1.2V29.8z"/>
		<linearGradient id="SVGID_9_" gradientUnits="userSpaceOnUse" x1="20.4763" y1="57.9111" x2="20.4763" y2="45.1843">
			<stop  offset="0" style="stop-color:#0D1422"/>
			<stop  offset="0.1931" style="stop-color:#212733"/>
			<stop  offset="0.497" style="stop-color:#3A3F48"/>
			<stop  offset="0.7746" style="stop-color:#494D55"/>
			<stop  offset="1" style="stop-color:#4E5259"/>
		</linearGradient>
		<path class="st10" d="M7.3,45.2v12.7c0.1,0,0.2,0,0.3,0H13c0-5.1,4.2-9.3,9.3-9.3c5.1,0,9.3,4.2,9.3,9.3h1.5
			c0.3,0,0.5-0.2,0.5-0.5V45.2H7.3z"/>
		<linearGradient id="SVGID_10_" gradientUnits="userSpaceOnUse" x1="22.3403" y1="66.4971" x2="22.3403" y2="49.3251">
			<stop  offset="0" style="stop-color:#5B5A5A"/>
			<stop  offset="0.15" style="stop-color:#2B2B2B"/>
			<stop  offset="0.2701" style="stop-color:#0C0C0C"/>
			<stop  offset="0.3367" style="stop-color:#000000"/>
			<stop  offset="1" style="stop-color:#403E40"/>
		</linearGradient>
		<circle class="st11" cx="22.3" cy="57.9" r="8.6"/>
		<linearGradient id="SVGID_11_" gradientUnits="userSpaceOnUse" x1="18.4865" y1="61.7648" x2="26.194" y2="54.0574">
			<stop  offset="0" style="stop-color:#EDF2F5"/>
			<stop  offset="0.2449" style="stop-color:#C3D2DB"/>
			<stop  offset="0.5" style="stop-color:#FFFFFF"/>
			<stop  offset="0.75" style="stop-color:#C3D2DB"/>
			<stop  offset="1" style="stop-color:#EDF2F5"/>
		</linearGradient>
		<circle class="st12" cx="22.3" cy="57.9" r="5.4"/>
		<linearGradient id="SVGID_12_" gradientUnits="userSpaceOnUse" x1="22.3403" y1="62.637" x2="22.3403" y2="53.1852">
			<stop  offset="0" style="stop-color:#403E40"/>
			<stop  offset="1" style="stop-color:#000000"/>
		</linearGradient>
		<circle class="st13" cx="22.3" cy="57.9" r="4.7"/>
		<radialGradient id="SVGID_13_" cx="22.3403" cy="57.9111" r="3.8716" gradientUnits="userSpaceOnUse">
			<stop  offset="0" style="stop-color:#E8EBED"/>
			<stop  offset="0.4469" style="stop-color:#E6E9EB"/>
			<stop  offset="0.6337" style="stop-color:#DFE2E5"/>
			<stop  offset="0.772" style="stop-color:#D2D7DB"/>
			<stop  offset="0.886" style="stop-color:#C1C6CC"/>
			<stop  offset="0.9846" style="stop-color:#AAB1B9"/>
			<stop  offset="1" style="stop-color:#A6ADB5"/>
		</radialGradient>
		<circle class="st14" cx="22.3" cy="57.9" r="3.9"/>
		<linearGradient id="SVGID_14_" gradientUnits="userSpaceOnUse" x1="22.3403" y1="59.9975" x2="22.3403" y2="55.8247">
			<stop  offset="0" style="stop-color:#403E40"/>
			<stop  offset="1" style="stop-color:#000000"/>
		</linearGradient>
		<circle class="st15" cx="22.3" cy="57.9" r="2.1"/>
		<linearGradient id="SVGID_15_" gradientUnits="userSpaceOnUse" x1="22.3402" y1="55.3506" x2="22.3402" y2="54.4431">
			<stop  offset="0" style="stop-color:#403E40"/>
			<stop  offset="1" style="stop-color:#000000"/>
		</linearGradient>
		<path class="st16" d="M22.8,54.9c0,0.3-0.2,0.5-0.5,0.5c-0.3,0-0.5-0.2-0.5-0.5c0-0.3,0.2-0.5,0.5-0.5
			C22.6,54.4,22.8,54.6,22.8,54.9z"/>
		
			<linearGradient id="SVGID_16_" gradientUnits="userSpaceOnUse" x1="503.5182" y1="-258.6239" x2="503.5182" y2="-259.5315" gradientTransform="matrix(0.866 -0.5 0.5 0.866 -285.6748 531.4211)">
			<stop  offset="0" style="stop-color:#403E40"/>
			<stop  offset="1" style="stop-color:#000000"/>
		</linearGradient>
		<path class="st17" d="M21.2,55.1c0.1,0.2,0.1,0.5-0.2,0.6c-0.2,0.1-0.5,0.1-0.6-0.2c-0.1-0.2-0.1-0.5,0.2-0.6
			C20.8,54.8,21.1,54.9,21.2,55.1z"/>
		
			<linearGradient id="SVGID_17_" gradientUnits="userSpaceOnUse" x1="1077.4835" y1="-290.4138" x2="1077.4835" y2="-291.3213" gradientTransform="matrix(0.5 -0.866 0.866 0.5 -267.1206 1134.9385)">
			<stop  offset="0" style="stop-color:#403E40"/>
			<stop  offset="1" style="stop-color:#000000"/>
		</linearGradient>
		<path class="st18" d="M20,56c0.2,0.1,0.3,0.4,0.2,0.6c-0.1,0.2-0.4,0.3-0.6,0.2c-0.2-0.1-0.3-0.4-0.2-0.6C19.5,56,19.7,55.9,20,56
			z"/>
		
			<linearGradient id="SVGID_18_" gradientUnits="userSpaceOnUse" x1="1589.8943" y1="-30.9424" x2="1589.8943" y2="-31.8498" gradientTransform="matrix(0 -1 1 0 50.7221 1647.8054)">
			<stop  offset="0" style="stop-color:#403E40"/>
			<stop  offset="1" style="stop-color:#000000"/>
		</linearGradient>
		<path class="st19" d="M19.3,57.5c0.3,0,0.5,0.2,0.5,0.5s-0.2,0.5-0.5,0.5c-0.3,0-0.5-0.2-0.5-0.5S19.1,57.5,19.3,57.5z"/>
		
			<linearGradient id="SVGID_19_" gradientUnits="userSpaceOnUse" x1="1904.228" y1="450.4547" x2="1904.228" y2="449.5471" gradientTransform="matrix(-0.5 -0.866 0.866 -0.5 582.1431 1933.4802)">
			<stop  offset="0" style="stop-color:#403E40"/>
			<stop  offset="1" style="stop-color:#000000"/>
		</linearGradient>
		<path class="st20" d="M19.5,59c0.2-0.1,0.5-0.1,0.6,0.2c0.1,0.2,0.1,0.5-0.2,0.6c-0.2,0.1-0.5,0.1-0.6-0.2
			C19.2,59.4,19.3,59.2,19.5,59z"/>
		
			<linearGradient id="SVGID_20_" gradientUnits="userSpaceOnUse" x1="1936.0281" y1="1023.9993" x2="1936.0281" y2="1023.0919" gradientTransform="matrix(-0.866 -0.5 0.5 -0.866 1185.6606 1914.926)">
			<stop  offset="0" style="stop-color:#403E40"/>
			<stop  offset="1" style="stop-color:#000000"/>
		</linearGradient>
		<path class="st21" d="M20.4,60.3c0.1-0.2,0.4-0.3,0.6-0.2c0.2,0.1,0.3,0.4,0.2,0.6c-0.1,0.2-0.4,0.3-0.6,0.2
			C20.4,60.8,20.3,60.5,20.4,60.3z"/>
		
			<linearGradient id="SVGID_21_" gradientUnits="userSpaceOnUse" x1="1676.1873" y1="1536.6117" x2="1676.1873" y2="1535.7042" gradientTransform="matrix(-1 0 0 -1 1698.5275 1597.0833)">
			<stop  offset="0" style="stop-color:#403E40"/>
			<stop  offset="1" style="stop-color:#000000"/>
		</linearGradient>
		<path class="st22" d="M21.9,60.9c0-0.3,0.2-0.5,0.5-0.5c0.3,0,0.5,0.2,0.5,0.5c0,0.3-0.2,0.5-0.5,0.5
			C22.1,61.4,21.9,61.2,21.9,60.9z"/>
		
			<linearGradient id="SVGID_22_" gradientUnits="userSpaceOnUse" x1="1195.1494" y1="1851.1646" x2="1195.1494" y2="1850.2571" gradientTransform="matrix(-0.866 0.5 -0.5 -0.866 1984.2021 1065.6624)">
			<stop  offset="0" style="stop-color:#403E40"/>
			<stop  offset="1" style="stop-color:#000000"/>
		</linearGradient>
		<path class="st23" d="M23.5,60.7c-0.1-0.2-0.1-0.5,0.2-0.6c0.2-0.1,0.5-0.1,0.6,0.2c0.1,0.2,0.1,0.5-0.2,0.6
			C23.9,61,23.6,61,23.5,60.7z"/>
		
			<linearGradient id="SVGID_23_" gradientUnits="userSpaceOnUse" x1="621.6149" y1="1882.5438" x2="621.6149" y2="1881.6364" gradientTransform="matrix(-0.5 0.866 -0.866 -0.5 1965.6481 462.1448)">
			<stop  offset="0" style="stop-color:#403E40"/>
			<stop  offset="1" style="stop-color:#000000"/>
		</linearGradient>
		<path class="st24" d="M24.7,59.8c-0.2-0.1-0.3-0.4-0.2-0.6c0.1-0.2,0.4-0.3,0.6-0.2c0.2,0.1,0.3,0.4,0.2,0.6
			C25.2,59.9,24.9,59.9,24.7,59.8z"/>
		
			<linearGradient id="SVGID_24_" gradientUnits="userSpaceOnUse" x1="108.6331" y1="1622.9047" x2="108.6331" y2="1621.9972" gradientTransform="matrix(0 1 -1 0 1647.8054 -50.7221)">
			<stop  offset="0" style="stop-color:#403E40"/>
			<stop  offset="1" style="stop-color:#000000"/>
		</linearGradient>
		<path class="st25" d="M25.4,58.4c-0.3,0-0.5-0.2-0.5-0.5s0.2-0.5,0.5-0.5c0.3,0,0.5,0.2,0.5,0.5S25.6,58.4,25.4,58.4z"/>
		
			<linearGradient id="SVGID_25_" gradientUnits="userSpaceOnUse" x1="-205.5604" y1="1142.0859" x2="-205.5604" y2="1141.1783" gradientTransform="matrix(0.5 0.866 -0.866 0.5 1116.3843 -336.3968)">
			<stop  offset="0" style="stop-color:#403E40"/>
			<stop  offset="1" style="stop-color:#000000"/>
		</linearGradient>
		<path class="st26" d="M25.2,56.8c-0.2,0.1-0.5,0.1-0.6-0.2c-0.1-0.2-0.1-0.5,0.2-0.6c0.2-0.1,0.5-0.1,0.6,0.2
			C25.5,56.4,25.4,56.7,25.2,56.8z"/>
		
			<linearGradient id="SVGID_26_" gradientUnits="userSpaceOnUse" x1="-236.9297" y1="568.1307" x2="-236.9297" y2="567.2232" gradientTransform="matrix(0.866 0.5 -0.5 0.866 512.8669 -317.8427)">
			<stop  offset="0" style="stop-color:#403E40"/>
			<stop  offset="1" style="stop-color:#000000"/>
		</linearGradient>
		<path class="st27" d="M24.2,55.5c-0.1,0.2-0.4,0.3-0.6,0.2c-0.2-0.1-0.3-0.4-0.2-0.6c0.1-0.2,0.4-0.3,0.6-0.2
			C24.3,55,24.4,55.3,24.2,55.5z"/>
		<linearGradient id="SVGID_27_" gradientUnits="userSpaceOnUse" x1="2.6302" y1="37.055" x2="4.1686" y2="37.055">
			<stop  offset="0" style="stop-color:#E24C39"/>
			<stop  offset="1" style="stop-color:#9D171E"/>
		</linearGradient>
		<path class="st28" d="M3.4,39.6H2.6v-5.1h0.8c0.4,0,0.8,0.3,0.8,0.8v3.6C4.2,39.3,3.8,39.6,3.4,39.6z"/>
		<linearGradient id="SVGID_28_" gradientUnits="userSpaceOnUse" x1="68.4572" y1="66.4971" x2="68.4572" y2="49.3251">
			<stop  offset="0" style="stop-color:#5B5A5A"/>
			<stop  offset="0.15" style="stop-color:#2B2B2B"/>
			<stop  offset="0.2701" style="stop-color:#0C0C0C"/>
			<stop  offset="0.3367" style="stop-color:#000000"/>
			<stop  offset="1" style="stop-color:#403E40"/>
		</linearGradient>
		<circle class="st29" cx="68.5" cy="57.9" r="8.6"/>
		<linearGradient id="SVGID_29_" gradientUnits="userSpaceOnUse" x1="64.6034" y1="61.7648" x2="72.3109" y2="54.0574">
			<stop  offset="0" style="stop-color:#EDF2F5"/>
			<stop  offset="0.2449" style="stop-color:#C3D2DB"/>
			<stop  offset="0.5" style="stop-color:#FFFFFF"/>
			<stop  offset="0.75" style="stop-color:#C3D2DB"/>
			<stop  offset="1" style="stop-color:#EDF2F5"/>
		</linearGradient>
		<circle class="st30" cx="68.5" cy="57.9" r="5.4"/>
		<linearGradient id="SVGID_30_" gradientUnits="userSpaceOnUse" x1="68.4572" y1="62.637" x2="68.4572" y2="53.1852">
			<stop  offset="0" style="stop-color:#403E40"/>
			<stop  offset="1" style="stop-color:#000000"/>
		</linearGradient>
		<circle class="st31" cx="68.5" cy="57.9" r="4.7"/>
		<radialGradient id="SVGID_31_" cx="68.4572" cy="57.9111" r="3.8716" gradientUnits="userSpaceOnUse">
			<stop  offset="0" style="stop-color:#E8EBED"/>
			<stop  offset="0.4469" style="stop-color:#E6E9EB"/>
			<stop  offset="0.6337" style="stop-color:#DFE2E5"/>
			<stop  offset="0.772" style="stop-color:#D2D7DB"/>
			<stop  offset="0.886" style="stop-color:#C1C6CC"/>
			<stop  offset="0.9846" style="stop-color:#AAB1B9"/>
			<stop  offset="1" style="stop-color:#A6ADB5"/>
		</radialGradient>
		<circle class="st32" cx="68.5" cy="57.9" r="3.9"/>
		<linearGradient id="SVGID_32_" gradientUnits="userSpaceOnUse" x1="68.4572" y1="59.9975" x2="68.4572" y2="55.8247">
			<stop  offset="0" style="stop-color:#403E40"/>
			<stop  offset="1" style="stop-color:#000000"/>
		</linearGradient>
		<circle class="st33" cx="68.5" cy="57.9" r="2.1"/>
		<linearGradient id="SVGID_33_" gradientUnits="userSpaceOnUse" x1="68.4572" y1="55.3506" x2="68.4572" y2="54.4431">
			<stop  offset="0" style="stop-color:#403E40"/>
			<stop  offset="1" style="stop-color:#000000"/>
		</linearGradient>
		<path class="st34" d="M68.9,54.9c0,0.3-0.2,0.5-0.5,0.5c-0.3,0-0.5-0.2-0.5-0.5c0-0.3,0.2-0.5,0.5-0.5
			C68.7,54.4,68.9,54.6,68.9,54.9z"/>
		
			<linearGradient id="SVGID_34_" gradientUnits="userSpaceOnUse" x1="543.4572" y1="-235.5645" x2="543.4572" y2="-236.472" gradientTransform="matrix(0.866 -0.5 0.5 0.866 -285.6748 531.4211)">
			<stop  offset="0" style="stop-color:#403E40"/>
			<stop  offset="1" style="stop-color:#000000"/>
		</linearGradient>
		<path class="st35" d="M67.3,55.1c0.1,0.2,0.1,0.5-0.2,0.6c-0.2,0.1-0.5,0.1-0.6-0.2c-0.1-0.2-0.1-0.5,0.2-0.6
			C66.9,54.8,67.2,54.9,67.3,55.1z"/>
		
			<linearGradient id="SVGID_35_" gradientUnits="userSpaceOnUse" x1="1100.5431" y1="-250.4748" x2="1100.5431" y2="-251.3823" gradientTransform="matrix(0.5 -0.866 0.866 0.5 -267.1206 1134.9385)">
			<stop  offset="0" style="stop-color:#403E40"/>
			<stop  offset="1" style="stop-color:#000000"/>
		</linearGradient>
		<path class="st36" d="M66.1,56c0.2,0.1,0.3,0.4,0.2,0.6c-0.1,0.2-0.4,0.3-0.6,0.2c-0.2-0.1-0.3-0.4-0.2-0.6
			C65.6,56,65.9,55.9,66.1,56z"/>
		
			<linearGradient id="SVGID_36_" gradientUnits="userSpaceOnUse" x1="1589.8943" y1="15.1746" x2="1589.8943" y2="14.2671" gradientTransform="matrix(0 -1 1 0 50.7221 1647.8054)">
			<stop  offset="0" style="stop-color:#403E40"/>
			<stop  offset="1" style="stop-color:#000000"/>
		</linearGradient>
		<path class="st37" d="M65.4,57.5c0.3,0,0.5,0.2,0.5,0.5s-0.2,0.5-0.5,0.5c-0.3,0-0.5-0.2-0.5-0.5S65.2,57.5,65.4,57.5z"/>
		
			<linearGradient id="SVGID_37_" gradientUnits="userSpaceOnUse" x1="1881.1686" y1="490.3937" x2="1881.1686" y2="489.4861" gradientTransform="matrix(-0.5 -0.866 0.866 -0.5 582.1431 1933.4802)">
			<stop  offset="0" style="stop-color:#403E40"/>
			<stop  offset="1" style="stop-color:#000000"/>
		</linearGradient>
		<path class="st38" d="M65.6,59c0.2-0.1,0.5-0.1,0.6,0.2c0.1,0.2,0.1,0.5-0.2,0.6c-0.2,0.1-0.5,0.1-0.6-0.2
			C65.3,59.4,65.4,59.2,65.6,59z"/>
		
			<linearGradient id="SVGID_38_" gradientUnits="userSpaceOnUse" x1="1896.0891" y1="1047.0588" x2="1896.0891" y2="1046.1514" gradientTransform="matrix(-0.866 -0.5 0.5 -0.866 1185.6606 1914.926)">
			<stop  offset="0" style="stop-color:#403E40"/>
			<stop  offset="1" style="stop-color:#000000"/>
		</linearGradient>
		<path class="st39" d="M66.6,60.3c0.1-0.2,0.4-0.3,0.6-0.2c0.2,0.1,0.3,0.4,0.2,0.6c-0.1,0.2-0.4,0.3-0.6,0.2
			C66.5,60.8,66.4,60.5,66.6,60.3z"/>
		
			<linearGradient id="SVGID_39_" gradientUnits="userSpaceOnUse" x1="1630.0703" y1="1536.6117" x2="1630.0703" y2="1535.7042" gradientTransform="matrix(-1 0 0 -1 1698.5275 1597.0833)">
			<stop  offset="0" style="stop-color:#403E40"/>
			<stop  offset="1" style="stop-color:#000000"/>
		</linearGradient>
		<path class="st40" d="M68,60.9c0-0.3,0.2-0.5,0.5-0.5c0.3,0,0.5,0.2,0.5,0.5c0,0.3-0.2,0.5-0.5,0.5C68.2,61.4,68,61.2,68,60.9z"/>
		
			<linearGradient id="SVGID_40_" gradientUnits="userSpaceOnUse" x1="1155.2104" y1="1828.1051" x2="1155.2104" y2="1827.1975" gradientTransform="matrix(-0.866 0.5 -0.5 -0.866 1984.2021 1065.6624)">
			<stop  offset="0" style="stop-color:#403E40"/>
			<stop  offset="1" style="stop-color:#000000"/>
		</linearGradient>
		<path class="st41" d="M69.6,60.7c-0.1-0.2-0.1-0.5,0.2-0.6c0.2-0.1,0.5-0.1,0.6,0.2c0.1,0.2,0.1,0.5-0.2,0.6
			C70,61,69.7,61,69.6,60.7z"/>
		
			<linearGradient id="SVGID_41_" gradientUnits="userSpaceOnUse" x1="598.5554" y1="1842.6049" x2="598.5554" y2="1841.6974" gradientTransform="matrix(-0.5 0.866 -0.866 -0.5 1965.6481 462.1448)">
			<stop  offset="0" style="stop-color:#403E40"/>
			<stop  offset="1" style="stop-color:#000000"/>
		</linearGradient>
		<path class="st42" d="M70.8,59.8c-0.2-0.1-0.3-0.4-0.2-0.6c0.1-0.2,0.4-0.3,0.6-0.2c0.2,0.1,0.3,0.4,0.2,0.6
			C71.3,59.9,71.1,59.9,70.8,59.8z"/>
		
			<linearGradient id="SVGID_42_" gradientUnits="userSpaceOnUse" x1="108.6331" y1="1576.7877" x2="108.6331" y2="1575.8802" gradientTransform="matrix(0 1 -1 0 1647.8054 -50.7221)">
			<stop  offset="0" style="stop-color:#403E40"/>
			<stop  offset="1" style="stop-color:#000000"/>
		</linearGradient>
		<path class="st43" d="M71.5,58.4c-0.3,0-0.5-0.2-0.5-0.5s0.2-0.5,0.5-0.5c0.3,0,0.5,0.2,0.5,0.5S71.7,58.4,71.5,58.4z"/>
		
			<linearGradient id="SVGID_43_" gradientUnits="userSpaceOnUse" x1="-182.501" y1="1102.147" x2="-182.501" y2="1101.2394" gradientTransform="matrix(0.5 0.866 -0.866 0.5 1116.3843 -336.3968)">
			<stop  offset="0" style="stop-color:#403E40"/>
			<stop  offset="1" style="stop-color:#000000"/>
		</linearGradient>
		<path class="st44" d="M71.3,56.8c-0.2,0.1-0.5,0.1-0.6-0.2c-0.1-0.2-0.1-0.5,0.2-0.6c0.2-0.1,0.5-0.1,0.6,0.2
			C71.6,56.4,71.5,56.7,71.3,56.8z"/>
		
			<linearGradient id="SVGID_44_" gradientUnits="userSpaceOnUse" x1="-196.9906" y1="545.0712" x2="-196.9906" y2="544.1637" gradientTransform="matrix(0.866 0.5 -0.5 0.866 512.8669 -317.8427)">
			<stop  offset="0" style="stop-color:#403E40"/>
			<stop  offset="1" style="stop-color:#000000"/>
		</linearGradient>
		<path class="st45" d="M70.4,55.5c-0.1,0.2-0.4,0.3-0.6,0.2c-0.2-0.1-0.3-0.4-0.2-0.6c0.1-0.2,0.4-0.3,0.6-0.2
			C70.4,55,70.5,55.3,70.4,55.5z"/>
		<path class="st3" d="M68.5,47.6c-5.9,0-10.3,4.5-9.7,11.4l0.7-0.6c0.3-6.7,4.5-9.5,9-9.5c4.5,0,8.7,2.9,9,9.5l0.7,0.6
			C78.8,52.1,74.4,47.6,68.5,47.6z"/>
		<linearGradient id="SVGID_45_" gradientUnits="userSpaceOnUse" x1="87.8448" y1="66.4971" x2="87.8448" y2="49.3251">
			<stop  offset="0" style="stop-color:#5B5A5A"/>
			<stop  offset="0.15" style="stop-color:#2B2B2B"/>
			<stop  offset="0.2701" style="stop-color:#0C0C0C"/>
			<stop  offset="0.3367" style="stop-color:#000000"/>
			<stop  offset="1" style="stop-color:#403E40"/>
		</linearGradient>
		<circle class="st46" cx="87.8" cy="57.9" r="8.6"/>
		<linearGradient id="SVGID_46_" gradientUnits="userSpaceOnUse" x1="83.9911" y1="61.7648" x2="91.6986" y2="54.0574">
			<stop  offset="0" style="stop-color:#EDF2F5"/>
			<stop  offset="0.2449" style="stop-color:#C3D2DB"/>
			<stop  offset="0.5" style="stop-color:#FFFFFF"/>
			<stop  offset="0.75" style="stop-color:#C3D2DB"/>
			<stop  offset="1" style="stop-color:#EDF2F5"/>
		</linearGradient>
		<circle class="st47" cx="87.8" cy="57.9" r="5.4"/>
		<linearGradient id="SVGID_47_" gradientUnits="userSpaceOnUse" x1="87.8448" y1="62.637" x2="87.8448" y2="53.1852">
			<stop  offset="0" style="stop-color:#403E40"/>
			<stop  offset="1" style="stop-color:#000000"/>
		</linearGradient>
		<circle class="st48" cx="87.8" cy="57.9" r="4.7"/>
		<radialGradient id="SVGID_48_" cx="87.8449" cy="57.9111" r="3.8717" gradientUnits="userSpaceOnUse">
			<stop  offset="0" style="stop-color:#E8EBED"/>
			<stop  offset="0.4469" style="stop-color:#E6E9EB"/>
			<stop  offset="0.6337" style="stop-color:#DFE2E5"/>
			<stop  offset="0.772" style="stop-color:#D2D7DB"/>
			<stop  offset="0.886" style="stop-color:#C1C6CC"/>
			<stop  offset="0.9846" style="stop-color:#AAB1B9"/>
			<stop  offset="1" style="stop-color:#A6ADB5"/>
		</radialGradient>
		<path class="st49" d="M91.7,57.9c0,2.1-1.7,3.9-3.9,3.9c-2.1,0-3.9-1.7-3.9-3.9c0-2.1,1.7-3.9,3.9-3.9C90,54,91.7,55.8,91.7,57.9z
			"/>
		<linearGradient id="SVGID_49_" gradientUnits="userSpaceOnUse" x1="87.8449" y1="59.9975" x2="87.8449" y2="55.8247">
			<stop  offset="0" style="stop-color:#403E40"/>
			<stop  offset="1" style="stop-color:#000000"/>
		</linearGradient>
		<path class="st50" d="M89.9,57.9c0,1.2-0.9,2.1-2.1,2.1c-1.2,0-2.1-0.9-2.1-2.1s0.9-2.1,2.1-2.1C89,55.8,89.9,56.8,89.9,57.9z"/>
		<linearGradient id="SVGID_50_" gradientUnits="userSpaceOnUse" x1="87.6013" y1="55.3506" x2="87.6013" y2="54.4431">
			<stop  offset="0" style="stop-color:#403E40"/>
			<stop  offset="1" style="stop-color:#000000"/>
		</linearGradient>
		<path class="st51" d="M88.1,54.9c0,0.3-0.2,0.5-0.5,0.5c-0.3,0-0.5-0.2-0.5-0.5c0-0.3,0.2-0.5,0.5-0.5
			C87.9,54.4,88.1,54.6,88.1,54.9z"/>
		
			<linearGradient id="SVGID_51_" gradientUnits="userSpaceOnUse" x1="560.0367" y1="-225.992" x2="560.0367" y2="-226.8994" gradientTransform="matrix(0.866 -0.5 0.5 0.866 -285.6748 531.4211)">
			<stop  offset="0" style="stop-color:#403E40"/>
			<stop  offset="1" style="stop-color:#000000"/>
		</linearGradient>
		<path class="st52" d="M86.5,55.1c0.1,0.2,0.1,0.5-0.2,0.6c-0.2,0.1-0.5,0.1-0.6-0.2c-0.1-0.2-0.1-0.5,0.2-0.6
			C86.1,54.8,86.4,54.9,86.5,55.1z"/>
		
			<linearGradient id="SVGID_52_" gradientUnits="userSpaceOnUse" x1="1110.1155" y1="-233.8953" x2="1110.1155" y2="-234.8027" gradientTransform="matrix(0.5 -0.866 0.866 0.5 -267.1206 1134.9385)">
			<stop  offset="0" style="stop-color:#403E40"/>
			<stop  offset="1" style="stop-color:#000000"/>
		</linearGradient>
		<path class="st53" d="M85.2,56c0.2,0.1,0.3,0.4,0.2,0.6c-0.1,0.2-0.4,0.3-0.6,0.2c-0.2-0.1-0.3-0.4-0.2-0.6
			C84.7,56,85,55.9,85.2,56z"/>
		
			<linearGradient id="SVGID_53_" gradientUnits="userSpaceOnUse" x1="1589.8943" y1="34.3187" x2="1589.8943" y2="33.4112" gradientTransform="matrix(0 -1 1 0 50.7221 1647.8054)">
			<stop  offset="0" style="stop-color:#403E40"/>
			<stop  offset="1" style="stop-color:#000000"/>
		</linearGradient>
		<path class="st54" d="M84.6,57.5c0.3,0,0.5,0.2,0.5,0.5s-0.2,0.5-0.5,0.5c-0.3,0-0.5-0.2-0.5-0.5S84.3,57.5,84.6,57.5z"/>
		
			<linearGradient id="SVGID_54_" gradientUnits="userSpaceOnUse" x1="1871.5961" y1="506.9732" x2="1871.5961" y2="506.0657" gradientTransform="matrix(-0.5 -0.866 0.866 -0.5 582.1431 1933.4802)">
			<stop  offset="0" style="stop-color:#403E40"/>
			<stop  offset="1" style="stop-color:#000000"/>
		</linearGradient>
		<path class="st55" d="M84.8,59c0.2-0.1,0.5-0.1,0.6,0.2c0.1,0.2,0.1,0.5-0.2,0.6c-0.2,0.1-0.5,0.1-0.6-0.2
			C84.5,59.4,84.5,59.2,84.8,59z"/>
		
			<linearGradient id="SVGID_55_" gradientUnits="userSpaceOnUse" x1="1879.5095" y1="1056.6313" x2="1879.5095" y2="1055.7239" gradientTransform="matrix(-0.866 -0.5 0.5 -0.866 1185.6606 1914.926)">
			<stop  offset="0" style="stop-color:#403E40"/>
			<stop  offset="1" style="stop-color:#000000"/>
		</linearGradient>
		<path class="st56" d="M85.7,60.3c0.1-0.2,0.4-0.3,0.6-0.2c0.2,0.1,0.3,0.4,0.2,0.6c-0.1,0.2-0.4,0.3-0.6,0.2
			C85.7,60.8,85.6,60.5,85.7,60.3z"/>
		
			<linearGradient id="SVGID_56_" gradientUnits="userSpaceOnUse" x1="1610.9261" y1="1536.6117" x2="1610.9261" y2="1535.7042" gradientTransform="matrix(-1 0 0 -1 1698.5275 1597.0833)">
			<stop  offset="0" style="stop-color:#403E40"/>
			<stop  offset="1" style="stop-color:#000000"/>
		</linearGradient>
		<path class="st57" d="M87.1,60.9c0-0.3,0.2-0.5,0.5-0.5c0.3,0,0.5,0.2,0.5,0.5c0,0.3-0.2,0.5-0.5,0.5
			C87.4,61.4,87.1,61.2,87.1,60.9z"/>
		
			<linearGradient id="SVGID_57_" gradientUnits="userSpaceOnUse" x1="1138.4199" y1="1818.4108" x2="1138.4199" y2="1817.5033" gradientTransform="matrix(-0.866 0.5 -0.5 -0.866 1984.2021 1065.6624)">
			<stop  offset="0" style="stop-color:#403E40"/>
			<stop  offset="1" style="stop-color:#000000"/>
		</linearGradient>
		<path class="st58" d="M89,60.7c-0.1-0.2-0.1-0.5,0.2-0.6c0.2-0.1,0.5-0.1,0.6,0.2c0.1,0.2,0.1,0.5-0.2,0.6
			C89.4,61,89.1,61,89,60.7z"/>
		
			<linearGradient id="SVGID_58_" gradientUnits="userSpaceOnUse" x1="588.8611" y1="1825.8143" x2="588.8611" y2="1824.9069" gradientTransform="matrix(-0.5 0.866 -0.866 -0.5 1965.6481 462.1448)">
			<stop  offset="0" style="stop-color:#403E40"/>
			<stop  offset="1" style="stop-color:#000000"/>
		</linearGradient>
		<path class="st59" d="M90.2,59.8c-0.2-0.1-0.3-0.4-0.2-0.6c0.1-0.2,0.4-0.3,0.6-0.2c0.2,0.1,0.3,0.4,0.2,0.6
			C90.7,59.9,90.4,59.9,90.2,59.8z"/>
		
			<linearGradient id="SVGID_59_" gradientUnits="userSpaceOnUse" x1="108.6331" y1="1557.4" x2="108.6331" y2="1556.4926" gradientTransform="matrix(0 1 -1 0 1647.8054 -50.7221)">
			<stop  offset="0" style="stop-color:#403E40"/>
			<stop  offset="1" style="stop-color:#000000"/>
		</linearGradient>
		<path class="st60" d="M90.9,58.4c-0.3,0-0.5-0.2-0.5-0.5s0.2-0.5,0.5-0.5c0.3,0,0.5,0.2,0.5,0.5S91.1,58.4,90.9,58.4z"/>
		
			<linearGradient id="SVGID_60_" gradientUnits="userSpaceOnUse" x1="-172.8067" y1="1085.3564" x2="-172.8067" y2="1084.4489" gradientTransform="matrix(0.5 0.866 -0.866 0.5 1116.3843 -336.3968)">
			<stop  offset="0" style="stop-color:#403E40"/>
			<stop  offset="1" style="stop-color:#000000"/>
		</linearGradient>
		<path class="st61" d="M90.7,56.8c-0.2,0.1-0.5,0.1-0.6-0.2c-0.1-0.2-0.1-0.5,0.2-0.6c0.2-0.1,0.5-0.1,0.6,0.2
			C91,56.4,90.9,56.7,90.7,56.8z"/>
		
			<linearGradient id="SVGID_61_" gradientUnits="userSpaceOnUse" x1="-180.2001" y1="535.377" x2="-180.2001" y2="534.4694" gradientTransform="matrix(0.866 0.5 -0.5 0.866 512.8669 -317.8427)">
			<stop  offset="0" style="stop-color:#403E40"/>
			<stop  offset="1" style="stop-color:#000000"/>
		</linearGradient>
		<path class="st62" d="M89.7,55.5c-0.1,0.2-0.4,0.3-0.6,0.2c-0.2-0.1-0.3-0.4-0.2-0.6c0.1-0.2,0.4-0.3,0.6-0.2
			C89.8,55,89.9,55.3,89.7,55.5z"/>
		<path class="st3" d="M87.8,47.6c-5.9,0-10.3,4.5-9.7,11.4l0.7-0.6c0.3-6.7,4.5-9.5,9-9.5c4.5,0,8.7,2.9,9,9.5l0.7,0.6
			C98.2,52.1,93.8,47.6,87.8,47.6z"/>
		<linearGradient id="SVGID_62_" gradientUnits="userSpaceOnUse" x1="21.3661" y1="34.1929" x2="21.3661" y2="32.8534">
			<stop  offset="0" style="stop-color:#4F5E6C"/>
			<stop  offset="0.4949" style="stop-color:#42505C"/>
			<stop  offset="1" style="stop-color:#263039"/>
		</linearGradient>
		<path class="st63" d="M23.1,34.2h-3.5c-0.2,0-0.3-0.1-0.3-0.3v-0.8c0-0.2,0.1-0.3,0.3-0.3h3.5c0.2,0,0.3,0.1,0.3,0.3v0.8
			C23.4,34.1,23.3,34.2,23.1,34.2z"/>
		<linearGradient id="SVGID_63_" gradientUnits="userSpaceOnUse" x1="44.8912" y1="57.8934" x2="44.8912" y2="50.2979">
			<stop  offset="0" style="stop-color:#4E5259"/>
			<stop  offset="0.2254" style="stop-color:#494D55"/>
			<stop  offset="0.503" style="stop-color:#3A3F48"/>
			<stop  offset="0.8069" style="stop-color:#212733"/>
			<stop  offset="1" style="stop-color:#0D1422"/>
		</linearGradient>
		<path class="st64" d="M54.6,57.9H35.2c-0.3,0-0.6-0.3-0.6-0.6v-6.4c0-0.3,0.3-0.6,0.6-0.6h19.4c0.3,0,0.6,0.3,0.6,0.6v6.4
			C55.2,57.6,54.9,57.9,54.6,57.9z"/>
		<linearGradient id="SVGID_64_" gradientUnits="userSpaceOnUse" x1="37.2795" y1="58.1531" x2="37.2795" y2="50.2979">
			<stop  offset="0" style="stop-color:#D9DADC"/>
			<stop  offset="0.2449" style="stop-color:#BFC2C7"/>
			<stop  offset="0.5" style="stop-color:#D9DADC"/>
			<stop  offset="1" style="stop-color:#A7AAB2"/>
		</linearGradient>
		<rect x="36.6" y="50.3" class="st65" width="1.3" height="7.9"/>
		
			<linearGradient id="SVGID_65_" gradientUnits="userSpaceOnUse" x1="1668.6637" y1="58.1531" x2="1668.6637" y2="50.2979" gradientTransform="matrix(-1 0 0 1 1721.1667 0)">
			<stop  offset="0" style="stop-color:#D9DADC"/>
			<stop  offset="0.2449" style="stop-color:#BFC2C7"/>
			<stop  offset="0.5" style="stop-color:#D9DADC"/>
			<stop  offset="1" style="stop-color:#A7AAB2"/>
		</linearGradient>
		<polygon class="st66" points="51.8,58.2 53.2,58.2 53.2,50.3 51.8,50.3 		"/>
		<circle class="st3" cx="44.9" cy="53.2" r="1.2"/>
		<circle class="st67" cx="44.9" cy="52.9" r="1.2"/>
	</g>
</g>
</svg>
